<?xml version="1.0" encoding="UTF-8" standalone="no"?>
<!-- Created with Inkscape (http://www.inkscape.org/) -->

<svg
   width="52.916668mm"
   height="29.104166mm"
   viewBox="0 0 52.916668 29.104166"
   version="1.1"
   id="svg1"
   xml:space="preserve"
   inkscape:version="1.3.2 (091e20e, 2023-11-25)"
   sodipodi:docname="ao-logo.svg"
   xmlns:inkscape="http://www.inkscape.org/namespaces/inkscape"
   xmlns:sodipodi="http://sodipodi.sourceforge.net/DTD/sodipodi-0.dtd"
   xmlns="http://www.w3.org/2000/svg"
   xmlns:svg="http://www.w3.org/2000/svg"><sodipodi:namedview
     id="namedview1"
     pagecolor="#ffffff"
     bordercolor="#000000"
     borderopacity="0.25"
     inkscape:showpageshadow="2"
     inkscape:pageopacity="0.0"
     inkscape:pagecheckerboard="0"
     inkscape:deskcolor="#d1d1d1"
     inkscape:document-units="mm"
     showgrid="false"
     inkscape:zoom="0.60310746"
     inkscape:cx="100.3138"
     inkscape:cy="55.545656"
     inkscape:window-width="1424"
     inkscape:window-height="890"
     inkscape:window-x="0"
     inkscape:window-y="38"
     inkscape:window-maximized="1"
     inkscape:current-layer="layer1" /><defs
     id="defs1" /><g
     inkscape:label="Layer 1"
     inkscape:groupmode="layer"
     id="layer1"
     transform="translate(-78.610352,-133.94792)"><g
       id="g1"><path
         style="fill:#fefefe"
         d="m 78.610352,148.5 v -14.55208 h 26.458338 26.45833 V 148.5 163.05209 H 105.06869 78.610352 Z m 11.015883,5.22553 3.735496,-7.47448 1.681388,3.37343 1.681389,3.37344 h 2.584589 c 1.421523,0 2.584593,-0.0602 2.584593,-0.13389 0,-0.0737 -1.919945,-3.97233 -4.26654,-8.66374 l -4.266534,-8.52983 -6.302348,12.56633 c -3.466291,6.91149 -6.308851,12.65564 -6.316799,12.76478 -0.0079,0.10914 1.147387,0.19843 2.56741,0.19843 h 2.581861 z m 15.310155,5.09322 -1.19593,-2.38125 h -2.51089 c -1.533884,0 -2.510885,0.10524 -2.510885,0.27046 0,0.14875 0.477579,1.22031 1.061287,2.38125 L 100.84126,161.2 h 2.64553 2.64554 z m 14.80568,1.97613 c 2.14032,-0.55749 4.34201,-1.78353 5.71497,-3.18248 l 1.15307,-1.1749 h -9.71238 c -5.69714,0 -9.71238,0.10009 -9.71238,0.2421 0,0.41444 2.45102,2.4271 3.77416,3.09916 2.74862,1.39611 5.91652,1.76262 8.78256,1.01612 z m -10.24343,-9.05373 c -0.82624,-1.83014 -0.80182,-4.77058 0.0542,-6.52804 0.81148,-1.66603 2.37758,-3.22957 3.94305,-3.93662 1.80248,-0.8141 4.75601,-0.78412 6.50136,0.066 1.65929,0.80821 3.06391,2.21345 3.8689,3.87062 0.86521,1.78113 0.89453,4.72014 0.0651,6.52804 l -0.57657,1.25677 h 2.63751 c 2.63191,0 2.6381,-0.002 2.92202,-0.7276 0.4432,-1.13338 0.59624,-4.83091 0.26406,-6.3798 -0.51768,-2.41386 -1.57677,-4.26853 -3.58334,-6.2751 -4.13397,-4.13396 -9.6109,-4.98526 -14.77516,-2.29654 -4.35087,2.26523 -7.0842,7.12881 -6.72989,11.97487 0.0798,1.09141 0.28479,2.37133 0.45553,2.84428 l 0.31045,0.85989 h 2.60507 2.60507 z"
         id="path4" /><path
         style="fill:#e78360"
         d="m 125.41839,157.43308 0.63825,-0.72421 -9.50179,-0.073 -9.50179,-0.073 9.59115,-0.0627 c 5.27513,-0.0345 9.59114,0.0356 9.59114,0.15577 0,0.12015 -0.32742,0.5071 -0.7276,0.85989 l -0.72761,0.64144 z"
         id="path3" /><path
         style="fill:#df5729"
         d="m 99.96733,158.94667 c -0.541234,-1.09381 -0.984061,-2.04631 -0.984061,-2.11667 0,-0.0704 1.070231,-0.12791 2.378301,-0.12791 h 2.37829 l 1.06424,2.11666 1.06424,2.11667 h -2.45847 -2.45848 z m 12.97587,1.47497 c -1.73407,-0.55434 -3.69649,-1.74079 -4.8214,-2.91494 l -0.77087,-0.80461 h 9.35942 9.35942 l -0.7771,0.81201 c -2.87778,3.00705 -8.153,4.24904 -12.34947,2.90754 z"
         id="path2" /><path
         style="fill:#242729"
         d="m 87.13722,148.64229 c 3.385171,-6.77222 6.215893,-12.31312 6.290491,-12.31312 0.131919,0 8.201389,16.01126 8.201389,16.27301 0,0.0721 -1.07216,0.13116 -2.382589,0.13116 H 96.86392 l -1.647404,-3.30729 c -0.906072,-1.81901 -1.70914,-3.30456 -1.784596,-3.30122 -0.07546,0.003 -1.811705,3.30733 -3.85833,7.34219 l -3.721138,7.33611 -2.435045,0.0761 -2.435044,0.0761 z m 17.42422,2.75511 c -0.90015,-4.19728 0.1963,-8.26549 3.05947,-11.35164 2.49273,-2.68686 5.49325,-3.98117 9.2293,-3.98117 6.76717,0 12.29556,5.5492 12.29556,12.34182 0,1.08677 -0.1332,2.50491 -0.29599,3.15143 l -0.296,1.1755 h -2.46185 -2.46185 l 0.37576,-0.75323 c 0.63666,-1.27621 0.91577,-3.3595 0.64288,-4.79843 -1.13936,-6.00782 -8.0343,-8.7343 -12.83316,-5.07464 -2.87476,2.19232 -3.98198,6.7033 -2.41588,9.84263 l 0.39095,0.78367 h -2.47134 -2.47134 z"
         id="path1" /></g></g></svg>
