<?xml version="1.0" encoding="UTF-8" standalone="no"?>
<!-- Created with Inkscape (http://www.inkscape.org/) -->

<svg
   width="71.713196mm"
   height="68.859077mm"
   viewBox="0 0 71.713196 68.859077"
   version="1.1"
   id="svg1"
   xmlns:inkscape="http://www.inkscape.org/namespaces/inkscape"
   xmlns:sodipodi="http://sodipodi.sourceforge.net/DTD/sodipodi-0.dtd"
   xmlns="http://www.w3.org/2000/svg"
   xmlns:svg="http://www.w3.org/2000/svg">
  <sodipodi:namedview
     id="namedview1"
     pagecolor="#ffffff"
     bordercolor="#000000"
     borderopacity="0.25"
     inkscape:showpageshadow="2"
     inkscape:pageopacity="0.0"
     inkscape:pagecheckerboard="0"
     inkscape:deskcolor="#d1d1d1"
     inkscape:document-units="mm"
     inkscape:export-bgcolor="#ffffff00" />
  <defs
     id="defs1" />
  <g
     inkscape:label="Layer 1"
     inkscape:groupmode="layer"
     id="layer1"
     transform="translate(-69.056253,-114.03542)">
    <g
       id="g14"
       inkscape:export-filename="g14.svg"
       inkscape:export-xdpi="96"
       inkscape:export-ydpi="96"
       transform="matrix(0.26458333,0,0,0.26458333,69.053869,114.03542)">&#10;	<g
   id="g10">&#10;		<path
   class="st1"
   d="m 163.44,31.65 c 0,14.76 -27.67,100.56 -27.67,100.56 0,0 -27.67,-85.8 -27.67,-100.56 C 108.1,16.89 120.48,0 135.77,0 c 15.29,0 27.67,16.9 27.67,31.65 z"
   id="path6"
   style="fill:#51be99" />
&#10;		<path
   class="st1"
   d="m 39.69,80.85 c 14.03,4.56 87.09,57.39 87.09,57.39 0,0 -90.15,-0.2 -104.19,-4.76 C 8.55,128.92 -3.68,111.92 1.04,97.38 5.76,82.84 25.65,76.29 39.69,80.85 Z"
   id="path7"
   style="fill:#51be99" />
&#10;		<path
   class="st1"
   d="m 48.24,213.75 c 8.67,-11.94 81.5,-65.09 81.5,-65.09 0,0 -28.05,85.68 -36.72,97.62 -8.67,11.94 -28.63,18.32 -40.99,9.34 -12.37,-8.98 -12.47,-29.93 -3.79,-41.87 z"
   id="path8"
   style="fill:#51be99" />
&#10;		<path
   class="st1"
   d="m 177.28,246.69 c -8.67,-11.94 -36.72,-97.62 -36.72,-97.62 0,0 72.82,53.15 81.5,65.09 8.67,11.94 8.58,32.89 -3.78,41.87 -12.37,8.98 -32.33,2.6 -41,-9.34 z"
   id="path9"
   style="fill:#51be99" />
&#10;		<path
   class="st1"
   d="m 248.47,134.14 c -14.03,4.56 -104.19,4.76 -104.19,4.76 0,0 73.05,-52.83 87.09,-57.39 14.03,-4.56 33.93,2 38.65,16.54 4.72,14.54 -7.51,31.53 -21.55,36.09 z"
   id="path10"
   style="fill:#51be99" />
&#10;	</g>
&#10;	<circle
   class="st1"
   cx="189.46001"
   cy="67.370003"
   r="11.03"
   id="circle10"
   style="fill:#51be99" />
&#10;	<circle
   class="st1"
   cx="81.919998"
   cy="67.839996"
   r="11.03"
   id="circle11"
   style="fill:#51be99" />
&#10;	<circle
   class="st1"
   cx="61.16"
   cy="164.03"
   r="11.03"
   id="circle12"
   style="fill:#51be99" />
&#10;	<circle
   class="st1"
   cx="135.08"
   cy="212.31"
   r="11.03"
   id="circle13"
   style="fill:#51be99" />
&#10;	<circle
   class="st1"
   cx="209.77"
   cy="164.85001"
   r="11.03"
   id="circle14"
   style="fill:#51be99" />
&#10;</g>
  </g>
</svg>
