<svg width="771" height="259" viewBox="0 0 771 259" fill="none" xmlns="http://www.w3.org/2000/svg">
<path d="M285 88H302.28V161.833H327.415V178.066H285V88V88Z" fill="#130F40"/>
<path d="M404.913 149.789H350.978C351.502 154.502 353.597 158.167 357.262 161.309C360.928 164.451 365.117 165.498 370.353 165.498C376.637 165.498 381.873 163.404 386.586 158.691L400.724 165.498C397.059 170.735 392.869 174.4 388.157 176.495C383.444 178.589 377.16 180.16 370.877 180.16C360.404 180.16 352.026 177.018 345.218 170.211C338.411 163.404 335.269 155.549 335.269 145.6C335.269 135.651 338.411 126.749 345.218 120.466C352.026 114.182 359.88 110.516 369.829 110.516C380.302 110.516 388.68 113.658 395.488 120.466C402.295 127.273 405.437 136.175 405.437 147.171L404.913 149.789ZM388.157 136.698C387.109 133.033 385.015 129.891 381.873 127.796C378.731 125.702 375.066 124.131 370.353 124.131C365.64 124.131 361.451 125.178 358.309 128.32C356.215 129.891 354.12 133.033 352.026 137.222H388.157V136.698Z" fill="#130F40"/>
<path d="M412.768 111.564H432.142L445.233 129.891L458.324 111.564H477.699L455.182 142.982L480.841 178.589H461.466L445.757 156.597L430.048 178.589H410.673L435.808 143.506L412.768 111.564Z" fill="#130F40"/>
<path d="M487 88H536.745V104.756H520.512V178.066H502.709V104.756H487V88Z" fill="#130F40"/>
<path d="M607.037 149.789H553.102C553.626 154.502 555.721 158.167 559.386 161.309C563.052 164.451 567.241 165.498 572.477 165.498C578.761 165.498 583.997 163.404 588.71 158.691L602.848 165.498C599.183 170.735 594.994 174.4 590.281 176.495C585.568 178.589 579.284 180.16 573.001 180.16C562.528 180.16 554.15 177.018 547.342 170.211C540.535 163.404 537.393 155.549 537.393 145.6C537.393 135.651 540.535 126.749 547.342 120.466C554.15 114.182 562.004 110.516 571.953 110.516C582.426 110.516 590.804 113.658 597.612 120.466C604.419 127.273 607.561 136.175 607.561 147.171L607.037 149.789ZM590.281 136.698C589.234 133.033 587.139 129.891 583.997 127.796C580.855 125.702 577.19 124.131 572.477 124.131C567.764 124.131 563.575 125.178 560.433 128.32C558.339 129.891 556.244 133.033 554.15 137.222H590.281V136.698Z" fill="#130F40"/>
<path d="M669.874 111.564H686.63V168.64C686.63 180.16 684.536 188.015 679.823 193.775C673.539 201.106 664.637 204.771 652.07 204.771C645.787 204.771 640.027 203.724 635.314 202.153C630.601 200.582 626.935 197.964 623.794 194.822C620.652 191.68 618.557 188.015 616.986 183.302H635.314C636.885 185.397 638.979 186.444 641.597 187.491C644.216 188.538 647.357 189.062 650.499 189.062C655.212 189.062 658.877 188.538 661.496 186.968C664.114 185.397 666.208 183.826 667.256 181.731C668.303 179.637 668.827 175.971 668.827 170.211C665.685 173.353 662.543 175.448 659.401 176.495C656.259 177.542 652.594 178.589 648.405 178.589C639.503 178.589 631.648 175.448 625.888 168.64C620.128 161.833 616.463 153.978 616.463 144.029C616.463 133.556 619.605 125.178 626.412 118.371C632.172 112.611 639.503 109.469 647.881 109.469C651.547 109.469 655.212 109.993 658.877 111.564C662.543 113.135 665.685 115.229 669.35 118.371V111.564H669.874ZM652.594 125.702C647.357 125.702 643.168 127.273 639.503 130.938C635.837 134.604 634.266 138.793 634.266 144.029C634.266 149.789 635.837 153.978 639.503 157.644C643.168 161.309 647.357 162.88 652.594 162.88C657.83 162.88 662.019 161.309 665.685 157.644C669.35 153.978 670.921 149.789 670.921 144.029C670.921 138.269 669.35 134.08 665.685 130.415C662.019 126.749 657.83 125.702 652.594 125.702Z" fill="#130F40"/>
<path d="M734.805 109.993C741.089 109.993 746.849 111.564 752.609 114.706C758.369 117.847 762.558 122.036 765.7 127.273C768.842 132.509 770.412 138.269 770.412 144.553C770.412 150.837 768.842 156.597 765.7 162.357C762.558 168.117 758.369 172.306 753.132 175.448C747.896 178.589 741.612 180.16 735.329 180.16C725.903 180.16 717.525 176.495 710.718 169.688C703.91 162.88 700.245 155.026 700.245 145.077C700.245 134.604 703.91 125.702 711.765 118.895C718.049 113.135 725.903 109.993 734.805 109.993ZM734.805 125.702C729.569 125.702 725.38 127.273 721.714 130.938C718.049 134.604 716.478 139.317 716.478 145.077C716.478 150.837 718.049 155.549 721.714 159.215C725.38 162.88 729.569 164.451 734.805 164.451C740.042 164.451 744.231 162.88 747.896 159.215C751.562 155.549 753.132 150.837 753.132 145.077C753.132 139.317 751.562 134.604 747.896 130.938C744.754 127.796 740.565 125.702 734.805 125.702Z" fill="#130F40"/>
<path d="M204.425 186.209C200.542 190.091 194.255 190.117 190.341 186.266L139.732 136.473C135.747 132.553 135.75 126.127 139.738 122.21L161.804 100.539L225.028 37.7864C228.887 33.956 235.1 33.9112 239.014 37.6855L253.91 52.0494C257.958 55.9527 257.992 62.4251 253.987 66.3715L197.781 121.744C193.826 125.641 193.802 132.013 197.728 135.939L219.141 157.351C223.046 161.257 223.046 167.588 219.141 171.493L204.425 186.209Z" fill="url(#paint0_linear_4_279)"/>
<path d="M36.331 220.878C32.4425 224.71 26.2 224.715 22.3054 220.89L7.27978 206.132C3.28322 202.207 3.29012 195.765 7.29508 191.848L63.9851 136.409C67.9649 132.517 68.0005 126.124 64.0644 122.188L42.7425 100.866C38.8123 96.9362 38.841 90.5553 42.8064 86.6608L57.9179 71.8192C61.8105 67.9961 68.0491 67.9988 71.9383 71.8253L122.611 121.68C126.595 125.601 126.593 132.026 122.604 135.943L100.539 157.615L36.331 220.878Z" fill="url(#paint1_linear_4_279)"/>
<path d="M208.645 251.759C204.74 255.594 198.478 255.577 194.593 251.722L137.98 195.528C134.071 191.648 127.76 191.66 123.865 195.555L102.31 217.109C98.4293 220.99 92.1467 221.018 88.2315 217.173L73.2065 202.416C69.2298 198.511 69.214 192.107 73.1712 188.182L123.902 137.861C127.787 134.007 134.047 133.992 137.951 137.826L160.233 159.71L223.736 222.742C227.691 226.668 227.674 233.069 223.698 236.974L208.645 251.759Z" fill="url(#paint2_linear_4_279)"/>
<path d="M101.586 98.444L38.0715 35.8708C34.1165 31.9743 34.0927 25.6019 38.0186 21.6761L52.6761 7.0185C56.5608 3.13385 62.8518 3.11037 66.7653 6.96593L123.315 62.678C127.229 66.5335 133.52 66.51 137.404 62.6254L158.986 41.0441C162.866 37.1637 169.148 37.1354 173.064 40.9807L188.059 55.7084C192.047 59.6253 192.05 66.0508 188.065 69.9712L137.392 119.827C133.503 123.653 127.265 123.657 123.373 119.835L101.586 98.444Z" fill="url(#paint3_linear_4_279)"/>
<defs>
<linearGradient id="paint0_linear_4_279" x1="261.298" y1="112.037" x2="261.298" y2="-50.6523" gradientUnits="userSpaceOnUse">
<stop stop-color="#40AB3D"/>
<stop offset="0.52" stop-color="#3FA93D"/>
<stop offset="0.72" stop-color="#3BA23B"/>
<stop offset="0.86" stop-color="#359639"/>
<stop offset="0.97" stop-color="#2D8535"/>
<stop offset="1" stop-color="#2A8034"/>
</linearGradient>
<linearGradient id="paint1_linear_4_279" x1="0.212" y1="146.52" x2="0.212" y2="309.194" gradientUnits="userSpaceOnUse">
<stop stop-color="#40AB3D"/>
<stop offset="0.52" stop-color="#3FA93D"/>
<stop offset="0.72" stop-color="#3BA23B"/>
<stop offset="0.86" stop-color="#359639"/>
<stop offset="0.97" stop-color="#2D8535"/>
<stop offset="1" stop-color="#2A8034"/>
</linearGradient>
<linearGradient id="paint2_linear_4_279" x1="65.821" y1="194.796" x2="65.821" y2="322.087" gradientUnits="userSpaceOnUse">
<stop stop-color="#130F40"/>
<stop offset="1" stop-color="#161616"/>
</linearGradient>
<linearGradient id="paint3_linear_4_279" x1="113.261" y1="-0.00583144" x2="278.16" y2="-0.00583144" gradientUnits="userSpaceOnUse">
<stop stop-color="#130F40"/>
<stop offset="1" stop-color="#161616"/>
</linearGradient>
</defs>
</svg>
