<?xml version="1.0" encoding="UTF-8" standalone="no"?>
<!-- Created with Inkscape (http://www.inkscape.org/) -->

<svg
   width="210mm"
   height="297mm"
   viewBox="0 0 210 297"
   version="1.1"
   id="svg1"
   xml:space="preserve"
   inkscape:version="1.3.2 (091e20e, 2023-11-25)"
   sodipodi:docname="paysys-logo.svg"
   xmlns:inkscape="http://www.inkscape.org/namespaces/inkscape"
   xmlns:sodipodi="http://sodipodi.sourceforge.net/DTD/sodipodi-0.dtd"
   xmlns="http://www.w3.org/2000/svg"
   xmlns:svg="http://www.w3.org/2000/svg"><sodipodi:namedview
     id="namedview1"
     pagecolor="#ffffff"
     bordercolor="#000000"
     borderopacity="0.25"
     inkscape:showpageshadow="2"
     inkscape:pageopacity="0.0"
     inkscape:pagecheckerboard="0"
     inkscape:deskcolor="#d1d1d1"
     inkscape:document-units="mm"
     showgrid="false"
     inkscape:zoom="0.64052329"
     inkscape:cx="397.33138"
     inkscape:cy="561.25984"
     inkscape:window-width="1392"
     inkscape:window-height="890"
     inkscape:window-x="0"
     inkscape:window-y="38"
     inkscape:window-maximized="0"
     inkscape:current-layer="layer1" /><defs
     id="defs1" /><g
     inkscape:label="Layer 1"
     inkscape:groupmode="layer"
     id="layer1"><g
       id="g1"><path
         style="fill:#fdfefe"
         d="m 52.02538,156.91375 c 0.198839,-0.19884 0.3175,-1.18768 0.3175,-2.64583 v -2.32833 l 5.09323,-0.006 c 5.399091,-0.007 6.754164,-0.17859 7.850877,-0.99596 1.409921,-1.05081 1.740269,-2.04083 1.740269,-5.21543 0,-3.29208 -0.360312,-4.27103 -1.971662,-5.35692 l -0.884718,-0.59621 3.280274,9.9e-4 3.280273,9.9e-4 -0.79375,0.4903 c -2.098551,1.29626 -2.248959,1.96346 -2.248959,9.9762 0,5.10071 0.07839,6.71697 0.33073,6.81879 0.181901,0.0734 -3.413787,0.14286 -7.990417,0.15434 -6.472003,0.0162 -8.250591,-0.0497 -8.003647,-0.29661 z m 19.579168,0 c 0.192671,-0.19267 0.3175,-1.12889 0.3175,-2.38125 v -2.06375 h 5.55625 5.556251 v 2.06375 c 0,1.25236 0.124829,2.18858 0.3175,2.38125 0.246944,0.24695 -1.058334,0.3175 -5.873751,0.3175 -4.815417,0 -6.120694,-0.0705 -5.87375,-0.3175 z m 15.332605,0.14227 c 0.252799,-0.102 0.330729,-1.77057 0.330729,-7.08124 0,-6.71773 -0.01993,-6.98549 -0.601907,-8.08602 -0.35498,-0.67128 -0.977409,-1.33961 -1.517226,-1.62912 -0.894863,-0.47992 -0.899526,-0.49089 -0.208633,-0.49089 0.602243,0 1.16446,0.60611 3.804084,4.10104 1.703569,2.25558 3.185101,4.10105 3.292294,4.10105 0.203861,0 2.375139,-2.77685 2.375139,-3.03757 0,-0.0824 -0.898249,-1.27815 -1.996108,-2.65719 l -1.996108,-2.50733 h 5.476698 c 5.190365,0 5.455995,0.0242 5.080725,0.46302 -0.21779,0.25467 -2.022178,2.56368 -4.009758,5.13116 l -3.613783,4.66813 v 3.6001 3.60009 l -3.373437,-0.0209 c -1.855391,-0.0115 -3.22461,-0.0809 -3.042709,-0.15434 z m 10.86346,-3.16046 0.08169,-3.33666 3.195008,-4.27059 c 3.96191,-5.29567 3.99486,-5.33211 3.47731,-3.84686 -0.51351,1.47366 -0.36541,4.7734 0.26883,5.98981 0.24999,0.47945 0.90641,1.09167 1.48935,1.38906 0.94657,0.48291 1.55539,0.53177 6.62652,0.53177 3.34335,0 5.78955,0.1099 6.09596,0.27389 0.32719,0.1751 0.51177,0.55346 0.51177,1.04902 0,0.49556 -0.18458,0.87392 -0.51177,1.04903 -0.30668,0.16413 -2.77188,0.27429 -6.15156,0.27488 -5.1269,9e-4 -5.71683,0.048 -6.48685,0.51746 -0.9579,0.58407 -1.66284,1.76818 -1.74397,2.9294 l -0.0548,0.78443 -3.43958,0.001 -3.439585,0.001 z m 23.466227,3.01721 c 1.88919,-0.65858 2.77813,-2.3594 2.77813,-5.31545 0,-2.39704 -0.83905,-4.07937 -2.38125,-4.77454 -0.39589,-0.17845 -3.10468,-0.35308 -6.74688,-0.43495 l -6.08541,-0.13679 v -1.05833 -1.05833 l 5.95312,-0.13229 c 6.8183,-0.15152 7.24172,-0.26511 8.17499,-2.19299 0.30594,-0.632 0.55626,-1.34962 0.55626,-1.59472 0,-0.24509 0.0893,-0.44103 0.19844,-0.43542 0.10914,0.006 1.61222,1.91297 3.34019,4.23855 l 3.14175,4.22834 1.26653,-1.63645 1.26653,-1.63645 -1.63016,-2.08165 c -0.89658,-1.1449 -1.7935,-2.31584 -1.99315,-2.60209 -0.35735,-0.51235 -0.27985,-0.52046 4.97655,-0.52046 4.20111,0 5.29723,0.0705 5.14108,0.33073 -0.10916,0.1819 -1.90213,2.51315 -3.98437,5.18055 l -3.78589,4.84982 v 3.5507 3.5507 l -5.4901,-0.0209 c -4.17105,-0.0159 -5.2994,-0.0874 -4.69636,-0.29759 z m 14.69328,-2.92266 0.009,-3.24115 4.08666,-5.4901 c 3.2276,-4.33603 4.21295,-5.4899 4.68745,-5.48912 0.53731,8.9e-4 0.50968,0.0565 -0.26152,0.52675 -1.51639,0.92455 -1.91383,1.91387 -1.91383,4.76393 0,2.02573 0.10005,2.67763 0.51555,3.35906 1.04897,1.72038 1.32785,1.78655 8.14492,1.93261 5.09953,0.10926 6.21802,0.20138 6.42485,0.52916 0.37113,0.58816 0.31161,1.23205 -0.15724,1.7009 -0.35317,0.35317 -1.30618,0.41577 -6.3297,0.41577 h -5.91392 l -0.82356,0.69297 c -0.9785,0.82336 -1.59829,1.93466 -1.59829,2.86577 v 0.67459 h -3.43959 -3.43958 z m 23.64405,2.85046 c 1.1801,-0.42056 1.55196,-0.74541 2.12723,-1.85828 l 0.41031,-0.79375 0.002,1.52136 0.002,1.52135 -1.78594,-0.0116 -1.78594,-0.0116 z m 1.98807,-8.41165 c -0.23124,-0.46905 -0.82655,-1.09143 -1.32292,-1.38306 -0.8171,-0.48007 -1.4652,-0.53827 -6.85113,-0.61516 -3.64324,-0.052 -6.07856,-0.19275 -6.28385,-0.36313 -0.42391,-0.35182 -0.43384,-1.33185 -0.0177,-1.74798 0.2268,-0.22681 1.90842,-0.31762 5.88698,-0.31791 4.77436,-3.6e-4 5.70093,-0.0665 6.49024,-0.46303 1.11712,-0.56126 2.12194,-1.98911 2.12194,-3.01527 0,-0.41505 0.11907,-0.75463 0.26459,-0.75463 0.16659,0 0.26458,1.76389 0.26458,4.7625 0,2.61938 -0.0298,4.7598 -0.0661,4.75649 -0.0364,-0.003 -0.25534,-0.38977 -0.48658,-0.85882 z M 71.922048,146.5745 c 0,-0.83558 0.165408,-1.63249 0.411878,-1.98438 0.399375,-0.57018 0.554751,-0.58803 5.118368,-0.58803 5.545086,0 5.582255,0.0164 5.582255,2.46823 v 1.50052 h -5.556251 -5.55625 z M 52.34288,145.72188 v -1.71979 h 4.841876 c 3.413125,0 4.935563,0.0937 5.159375,0.3175 0.411247,0.41124 0.411247,2.39333 0,2.80458 -0.223812,0.22381 -1.74625,0.3175 -5.159375,0.3175 H 52.34288 Z m 53.05906,-5.22543 c 0.33132,-0.45388 0.75832,-0.70652 1.18053,-0.69849 0.40201,0.008 0.50579,0.0711 0.26458,0.1617 -0.21828,0.082 -0.74952,0.39634 -1.18052,0.69849 l -0.78365,0.54937 z"
         id="path7" /><path
         style="fill:#aac8da"
         d="m 97.688593,153.79167 c 0,-1.81901 0.04227,-2.56315 0.09394,-1.65365 0.05166,0.90951 0.05166,2.39779 0,3.3073 -0.05167,0.9095 -0.09394,0.16536 -0.09394,-1.65365 z m 62.868877,2.54594 c 0,-0.0549 0.20836,-0.2633 0.46302,-0.46302 0.41964,-0.32911 0.429,-0.31975 0.0999,0.0999 -0.34565,0.44073 -0.56292,0.58089 -0.56292,0.36313 z m -54.90105,-2.28136 c 0.26339,-0.29104 0.53843,-0.52916 0.61119,-0.52916 0.0728,0 -0.0832,0.23812 -0.3466,0.52916 -0.26339,0.29104 -0.53842,0.52917 -0.61118,0.52917 -0.0728,0 0.0832,-0.23813 0.34659,-0.52917 z m 18.21292,-2.38125 c 0,-1.0914 0.0467,-1.53789 0.10378,-0.99218 0.0571,0.5457 0.0571,1.43867 0,1.98437 -0.0571,0.5457 -0.10378,0.0992 -0.10378,-0.99219 z m -49.235313,0.59632 c 1.564349,-0.0468 4.124193,-0.0468 5.688542,0 1.564349,0.0468 0.284427,0.085 -2.844271,0.085 -3.128698,0 -4.40862,-0.0383 -2.844271,-0.085 z m -19.711459,-0.52908 c 1.491589,-0.0472 3.93237,-0.0472 5.423959,0 1.491588,0.0472 0.271197,0.0857 -2.71198,0.0857 -2.983177,0 -4.203568,-0.0386 -2.711979,-0.0857 z m 50.303232,-2.64692 c -0.32911,-0.41965 -0.31975,-0.42901 0.0999,-0.0999 0.44073,0.34564 0.58088,0.56292 0.36312,0.56292 -0.0549,0 -0.2633,-0.20836 -0.46302,-0.46302 z m 55.5625,-1.5875 c -0.3291,-0.41965 -0.31974,-0.42901 0.0999,-0.0999 0.44073,0.34564 0.58089,0.56292 0.36313,0.56292 -0.0549,0 -0.26331,-0.20836 -0.46303,-0.46302 z m -56.49813,-2.4474 c 0,-1.09141 0.0467,-1.53789 0.10379,-0.99219 0.0571,0.54571 0.0571,1.43867 0,1.98438 -0.0571,0.5457 -0.10379,0.0992 -0.10379,-0.99219 z m -41.576959,0.66146 c 0.0054,-0.43656 0.06469,-0.58313 0.131774,-0.3257 0.06708,0.25744 0.06267,0.61462 -0.0098,0.79375 -0.07248,0.17914 -0.127362,-0.0315 -0.12197,-0.46805 z m 42.149459,-4.48034 c 0.29105,-0.24048 0.52917,-0.54125 0.52917,-0.66838 0,-0.12713 0.0804,-0.31151 0.17859,-0.40973 0.0982,-0.0982 0.14753,0.0329 0.10959,0.29148 -0.0379,0.25854 -0.35643,0.63967 -0.70775,0.84696 -0.61189,0.36105 -0.6165,0.35851 -0.1096,-0.0603 z m -19.022743,-0.37036 c -0.07495,-0.12126 0.03185,-0.22048 0.23733,-0.22048 0.205479,0 0.312277,0.0992 0.23733,0.22048 -0.172387,0.27893 -0.302273,0.27893 -0.47466,0 z"
         id="path6" /><path
         style="fill:#88b3cc"
         d="m 49.371056,157.0395 c 0.475549,-0.0589 1.189924,-0.0577 1.5875,0.003 0.397576,0.0604 0.0085,0.10855 -0.864634,0.10707 -0.873125,-0.001 -1.198415,-0.0509 -0.722866,-0.10977 z m 19.574429,3.5e-4 c 0.472943,-0.0587 1.246849,-0.0587 1.719792,0 0.472943,0.0587 0.08599,0.10672 -0.859896,0.10672 -0.945885,0 -1.332838,-0.048 -0.859896,-0.10672 z m 15.615156,-3.5e-4 c 0.475549,-0.0589 1.189924,-0.0577 1.5875,0.003 0.397577,0.0604 0.0085,0.10855 -0.864634,0.10707 -0.873125,-0.001 -1.198414,-0.0509 -0.722866,-0.10977 z m 10.056423,-0.002 c 0.62231,-0.0559 1.57481,-0.0551 2.116667,0.002 0.541856,0.0568 0.03269,0.10258 -1.131473,0.10162 -1.164167,-9.6e-4 -1.607504,-0.0475 -0.985194,-0.10337 z m 13.883636,-0.004 c 2.14643,-0.0445 5.65877,-0.0445 7.8052,0 2.14644,0.0445 0.39027,0.0809 -3.9026,0.0809 -4.29286,0 -6.04904,-0.0364 -3.9026,-0.0809 z m 23.06803,-0.14753 c -0.0729,-0.18998 -0.0949,-1.82708 -0.0489,-3.63802 l 0.0836,-3.29262 0.0572,3.4946 0.0572,3.4946 2.05053,0.0902 2.05052,0.0902 -2.05883,0.0532 c -1.48929,0.0385 -2.09549,-0.0423 -2.19137,-0.29216 z m 15.03197,0.14753 c 2.14643,-0.0445 5.65877,-0.0445 7.80521,0 2.14643,0.0445 0.39026,0.0809 -3.90261,0.0809 -4.29286,0 -6.04903,-0.0364 -3.9026,-0.0809 z M 119.58883,151.675 c 0,-0.3638 0.0601,-0.51263 0.13345,-0.33073 0.0734,0.1819 0.0734,0.47956 0,0.66146 -0.0734,0.1819 -0.13345,0.0331 -0.13345,-0.33073 z m -44.954803,-3.63702 c 1.564349,-0.0468 4.124193,-0.0468 5.688542,0 1.564349,0.0468 0.284427,0.085 -2.844271,0.085 -3.128698,0 -4.40862,-0.0383 -2.844271,-0.085 z m -19.976042,-0.52886 c 1.346067,-0.048 3.548724,-0.048 4.894791,0 1.346068,0.048 0.24474,0.0873 -2.447395,0.0873 -2.692136,0 -3.793464,-0.0393 -2.447396,-0.0873 z m 12.3238,-1.78724 c 0.0012,-1.01865 0.049,-1.40295 0.106272,-0.854 0.05728,0.54895 0.05631,1.38239 -0.0021,1.85209 -0.05845,0.46969 -0.105312,0.0206 -0.104138,-0.99809 z m 45.369445,0.72854 c 1.49933,-0.0473 3.88058,-0.0471 5.29167,4.2e-4 1.41108,0.0475 0.18436,0.0861 -2.72606,0.0859 -2.91041,-2.4e-4 -4.06494,-0.0391 -2.56561,-0.0863 z m 38.08593,1.5e-4 c 1.49159,-0.0472 3.93237,-0.0472 5.42396,0 1.49158,0.0472 0.27119,0.0857 -2.71198,0.0857 -2.98318,0 -4.20357,-0.0386 -2.71198,-0.0857 z m -41.98172,-1.27991 c 0.0127,-0.30822 0.0754,-0.37092 0.15985,-0.15985 0.0764,0.191 0.067,0.4192 -0.0209,0.50712 -0.0879,0.0879 -0.15045,-0.0684 -0.13896,-0.34727 z m -53.94313,-1.36538 c 1.265947,-0.0484 3.409072,-0.0486 4.7625,-5e-4 1.353429,0.0481 0.317654,0.0877 -2.301721,0.088 -2.619375,2.7e-4 -3.726726,-0.0391 -2.460779,-0.0875 z m 20.783176,-4e-5 c 1.200547,-0.049 3.165078,-0.049 4.365625,0 1.200547,0.049 0.218281,0.0891 -2.182813,0.0891 -2.401094,0 -3.383359,-0.0401 -2.182812,-0.0891 z m 36.777084,-5e-4 c 1.49159,-0.0472 3.93237,-0.0472 5.42396,0 1.49159,0.0472 0.2712,0.0857 -2.71198,0.0857 -2.98318,0 -4.20357,-0.0386 -2.71198,-0.0857 z m 38.24668,-2.4e-4 c 1.57225,-0.0468 4.07257,-0.0467 5.55625,4e-4 1.48368,0.0471 0.19728,0.0854 -2.85866,0.0852 -3.05593,-2.1e-4 -4.26985,-0.0387 -2.69759,-0.0856 z m -27.04714,-3.66092 c 0.0127,-0.30823 0.0754,-0.37092 0.15985,-0.15985 0.0764,0.19099 0.067,0.4192 -0.0209,0.50712 -0.0879,0.0879 -0.15045,-0.0684 -0.13896,-0.34727 z"
         id="path5" /><path
         style="fill:#f2c414"
         d="m 127.20151,144.19561 c -1.66334,-2.18863 -3.06394,-4.08003 -3.11245,-4.2031 -0.0485,-0.12307 0.96353,-0.21869 2.24896,-0.21249 l 2.33716,0.0113 0.96317,1.2455 c 0.52975,0.68503 1.44266,1.84553 2.0287,2.57889 l 1.06552,1.33339 -1.2534,1.61294 -1.2534,1.61295 z m -38.448944,-0.32582 -3.078298,-4.10104 h 2.355425 2.355425 l 2.013257,2.50307 c 1.107292,1.37669 2.013258,2.57627 2.013258,2.66573 0,0.24521 -2.216442,3.03329 -2.411379,3.03329 -0.09316,0 -1.554624,-1.84547 -3.247688,-4.10105 z"
         id="path4" /><path
         style="fill:#4d8cb3"
         d="m 93.456942,153.52709 c 0,-1.96454 0.04165,-2.76821 0.09256,-1.78594 0.05091,0.98226 0.05091,2.58961 0,3.57187 -0.05091,0.98227 -0.09256,0.1786 -0.09256,-1.78593 z m 42.330698,0.39687 c 5.3e-4,-1.74625 0.0434,-2.42619 0.0952,-1.51098 0.0518,0.9152 0.0514,2.34395 -9.5e-4,3.175 -0.0523,0.83104 -0.0947,0.0822 -0.0942,-1.66402 z m -64.039473,0.52917 c 9.61e-4,-1.16417 0.04748,-1.60751 0.103369,-0.9852 0.05589,0.62231 0.0551,1.57481 -0.0017,2.11667 -0.05685,0.54186 -0.102582,0.0327 -0.101621,-1.13147 z m -19.577421,-0.39688 c 0,-1.23692 0.04558,-1.74294 0.10128,-1.12448 0.0557,0.61847 0.0557,1.6305 0,2.24896 -0.0557,0.61847 -0.10128,0.11245 -0.10128,-1.12448 z m 30.952757,0.26459 c 0,-1.09141 0.0467,-1.53789 0.103786,-0.99219 0.05708,0.5457 0.05708,1.43867 0,1.98437 -0.05708,0.54571 -0.103786,0.0992 -0.103786,-0.99218 z m 78.843707,-2.51355 c 0.001,-1.01864 0.049,-1.40294 0.10627,-0.85399 0.0573,0.54895 0.0563,1.38239 -0.002,1.85208 -0.0584,0.4697 -0.10531,0.0206 -0.10413,-0.99809 z m -90.234071,-5.02708 c 0.002,-0.7276 0.05337,-0.99386 0.114186,-0.59167 0.06082,0.40218 0.05919,0.99749 -0.0036,1.32291 -0.0628,0.32542 -0.11256,-0.004 -0.110574,-0.73124 z m 11.380696,-0.13229 c 0,-0.80036 0.0496,-1.12779 0.110223,-0.7276 0.06062,0.40018 0.06062,1.05502 0,1.4552 -0.06062,0.40019 -0.110223,0.0728 -0.110223,-0.7276 z m -30.948718,-0.92604 c 0.0012,-1.01865 0.049,-1.40295 0.106272,-0.854 0.05728,0.54895 0.05632,1.38239 -0.0021,1.85209 -0.05845,0.46969 -0.105311,0.0206 -0.104138,-0.99809 z"
         id="path3" /><path
         style="fill:#3e83ad"
         d="m 68.747048,141.25636 c 0,-0.0549 0.208359,-0.2633 0.463021,-0.46302 0.419644,-0.32911 0.429002,-0.31975 0.09989,0.0999 -0.345644,0.44073 -0.562916,0.58089 -0.562916,0.36313 z m 74.612502,0 c 0,-0.0549 0.20836,-0.2633 0.46302,-0.46302 0.41965,-0.32911 0.42901,-0.31975 0.0999,0.0999 -0.34565,0.44073 -0.56292,0.58089 -0.56292,0.36313 z"
         id="path2" /><path
         style="fill:#11669a"
         d="m 48.274499,156.5595 c -0.09072,-0.23642 -0.164952,-3.96818 -0.164952,-8.2928 0,-5.76285 0.0848,-7.94775 0.3175,-8.18045 0.231599,-0.2316 2.292356,-0.3175 7.616854,-0.3175 7.043522,0 7.340731,0.0209 8.479897,0.59532 1.763291,0.88917 2.372841,2.26728 2.365356,5.34772 -0.0043,1.75029 -0.136091,2.67505 -0.4918,3.44967 -1.048004,2.28223 -1.857165,2.51354 -8.792708,2.51354 h -5.507187 l -0.07573,2.57969 -0.07573,2.57969 -1.753277,0.0775 c -1.42152,0.0628 -1.784489,-0.004 -1.918229,-0.35237 z m 14.167861,-9.29113 c 0.622938,-0.56375 0.650329,-2.37921 0.04597,-3.04701 -0.394704,-0.43615 -0.929547,-0.48386 -5.423959,-0.48386 h -4.986076 v 1.98438 1.98437 h 4.940104 c 4.225523,0 5.010094,-0.0633 5.423959,-0.43788 z m 5.364847,8.79176 c -0.09354,-0.4986 -0.12369,-3.56446 -0.06701,-6.81302 0.113668,-6.51429 0.259543,-7.215 1.765878,-8.4825 1.12225,-0.94431 2.107545,-1.04943 8.898261,-0.94935 6.61006,0.0974 7.098593,0.22927 8.160605,2.20245 0.529199,0.98324 0.575859,1.50631 0.657576,7.37161 0.04838,3.4723 0.01523,6.60305 -0.07366,6.95722 -0.153786,0.61273 -0.247788,0.64016 -1.939528,0.56589 l -1.777908,-0.078 -0.07645,-2.31511 -0.07645,-2.3151 h -5.810533 -5.810532 v 2.38125 2.38125 H 69.81737 67.977276 Z m 15.491925,-9.37653 c 0,-1.1693 -0.135171,-1.72366 -0.54837,-2.24896 l -0.54837,-0.69714 h -4.70229 c -5.601224,0 -5.618404,0.008 -5.795728,2.7931 l -0.108555,1.70482 h 5.851657 5.851656 z m 10.323172,6.77734 0.0044,-3.50573 3.976303,-5.09323 3.976301,-5.09323 h 1.9724 c 1.08482,0 1.9724,0.055 1.9724,0.1222 0,0.0672 -1.78593,2.52828 -3.96875,5.46904 l -3.968747,5.34685 v 3.12991 3.12992 h -1.984375 -1.984375 z m 11.209496,2.66793 c 0.2552,-1.27603 1.35564,-2.54067 2.48331,-2.85385 0.54293,-0.15078 3.43388,-0.27481 6.42434,-0.27563 3.87441,-0.001 5.52844,-0.0927 5.75468,-0.31897 0.41577,-0.41576 0.40757,-1.65967 -0.0132,-2.00867 -0.19906,-0.1651 -2.70064,-0.31006 -6.28385,-0.36414 -6.50868,-0.0982 -7.07384,-0.21885 -8.09665,-1.72794 -0.70982,-1.04729 -0.73555,-5.96467 -0.0368,-7.03111 1.03041,-1.5726 1.42468,-1.63962 10.18397,-1.73112 l 8.00365,-0.0836 v 0.57278 c 0,0.97169 -0.80783,2.33809 -1.71305,2.89755 -0.79535,0.49155 -1.30988,0.53333 -6.56751,0.53333 -6.17589,0 -6.53611,0.0802 -6.53611,1.45521 0,1.37591 0.35761,1.45518 6.56734,1.45562 6.30982,4.5e-4 6.97189,0.1372 8.09823,1.67264 0.47086,0.64188 0.54797,1.13251 0.54797,3.48632 0,2.35382 -0.0771,2.84445 -0.54797,3.48633 -1.18241,1.61187 -1.55739,1.67219 -10.39916,1.67264 l -8.03672,4.1e-4 z m 26.88608,-2.60261 v -3.44041 l 4.0349,-5.15789 4.0349,-5.15789 2.08192,-6.6e-4 2.08193,-6.6e-4 -0.64815,0.8599 c -0.35648,0.47294 -2.21608,2.95371 -4.13245,5.51282 l -3.48429,4.65293 v 3.08614 3.08613 h -1.98438 -1.98438 z m 11.42378,2.44822 c 0.27903,-1.03067 1.02722,-2.0106 1.93768,-2.53783 0.33875,-0.19617 2.71906,-0.35405 6.61459,-0.43873 l 6.08541,-0.13229 v -1.19063 -1.19062 l -6.08541,-0.14639 c -3.46767,-0.0834 -6.36996,-0.27052 -6.74688,-0.43495 -1.85445,-0.809 -2.73602,-3.43719 -2.17137,-6.47344 0.36678,-1.97221 1.19715,-2.95679 2.84328,-3.37129 1.71619,-0.43215 15.9987,-0.39537 15.99103,0.0412 -0.0149,0.84528 -1.09662,2.6144 -1.89703,3.1024 -0.80667,0.49181 -1.3259,0.53372 -6.62387,0.53463 l -5.74859,9.9e-4 -0.42417,0.64736 c -0.36515,0.5573 -0.37477,0.75056 -0.0692,1.38907 l 0.355,0.7417 6.08234,0.13229 c 5.14797,0.11197 6.21374,0.20411 6.93775,0.59979 1.32101,0.72195 1.65813,1.64898 1.65813,4.55958 0,3.07893 -0.3533,3.92673 -1.93578,4.64519 -1.00803,0.45767 -1.82012,0.50309 -9.08925,0.50838 l -7.98232,0.006 z"
         id="path1" /></g></g></svg>
