<?xml version="1.0" encoding="UTF-8" standalone="no"?>
<!-- Generator: Adobe Illustrator 26.3.1, SVG Export Plug-In . SVG Version: 6.00 Build 0)  -->

<svg
   version="1.1"
   id="sybrin-logo"
   x="0px"
   y="0px"
   viewBox="0 0 500.10001 134.60001"
   xml:space="preserve"
   sodipodi:docname="sybrin-logo-blue.svg"
   width="500.10001"
   height="134.60001"
   inkscape:version="1.3.2 (091e20e, 2023-11-25)"
   xmlns:inkscape="http://www.inkscape.org/namespaces/inkscape"
   xmlns:sodipodi="http://sodipodi.sourceforge.net/DTD/sodipodi-0.dtd"
   xmlns="http://www.w3.org/2000/svg"
   xmlns:svg="http://www.w3.org/2000/svg"><defs
   id="defs1" /><sodipodi:namedview
   id="namedview1"
   pagecolor="#ffffff"
   bordercolor="#000000"
   borderopacity="0.25"
   inkscape:showpageshadow="2"
   inkscape:pageopacity="0.0"
   inkscape:pagecheckerboard="0"
   inkscape:deskcolor="#d1d1d1"
   inkscape:zoom="1.334"
   inkscape:cx="249.62519"
   inkscape:cy="67.841079"
   inkscape:window-width="1424"
   inkscape:window-height="890"
   inkscape:window-x="0"
   inkscape:window-y="38"
   inkscape:window-maximized="1"
   inkscape:current-layer="sybrin-logo" />
<style
   type="text/css"
   id="style1">
	.st0{fill:#FFFFFF;}
</style>
<path
   class="st0"
   d="m 280.2,80 v 16.9 c 0,7.8 -7.2,15.6 -14.7,15.6 -5.9,0 -9.4,-0.9 -13.7,-5.3 -3.9,-4.1 -3.9,-9.2 -3.9,-14.5 h 8.2 v 4 c 0,3.7 3.5,7.4 7.1,7.4 h 1.6 c 3.4,0 7.4,-3.4 7.4,-7.8 V 84 c 0,-0.8 -2.5,-2.5 -3.1,-3.2 L 260,71.7 C 258.6,70.3 247.9,60.4 247.9,59.5 V 47.6 c 0,-6.5 2.2,-12.7 8.2,-15.8 1.9,-1.1 4,-1.7 6.2,-1.8 6.1,0 8.6,0.3 13.3,5 4.7,4.7 4.5,8.8 4.5,14.9 h -8 c 0,-4.1 0.5,-5.9 -2.5,-8.8 -2.5,-2.5 -4,-2.5 -6.8,-2.5 -3.1,0 -6.7,3.3 -6.7,7.8 0,11.2 -0.9,8.5 3,12.4 l 9,9 c 1.5,1.5 12.1,11.4 12.1,12.2 z M 449.4,8.9 c 0,-0.5 -0.2,-0.7 -0.7,-0.7 h -7.1 c -0.5,0 -0.7,0.2 -0.7,0.7 v 0 7.8 h 8.5 V 8.9 Z M 116.2,0 C 59.3,0 0,25.2 0,62.1 c 0,44.9 132.4,60.8 132.4,38.7 0,-17.3 -69.5,-18.2 -69.5,-56.4 0,-34.2 66.6,-51.6 105.7,-13.8 -11.2,8.4 -19.4,14.2 -25.5,19 -14.7,-13.2 -41.4,-15.1 -41.7,-4.5 0,14.3 69.2,15.1 69.2,55.6 0,16.4 -21,33.8 -42.6,33.8 v 0.1 c 51.1,0 102.1,-32.5 101.9,-65.9 C 229.5,34.8 183.1,0 116.2,0 Z m 204.2,102.7 c -3.8,0 -7.1,-2.2 -9.3,-4.3 -0.6,-0.5 -0.7,-0.9 -1.2,-1.5 -0.9,-1 -1.7,-2 -2.4,-3.2 -1.7,-2.4 -2.6,-5.3 -2.7,-8.2 0,-16.9 -0.2,-35.1 0,-51.9 0,-2.8 1,-2.2 -7.6,-2.2 -0.5,0 -0.7,0.2 -0.7,0.7 v 0 52.6 c 0,11 5.2,18.6 14.3,23.8 1.7,1 7.1,3.1 9.6,3.1 0,5.1 0.7,9.7 -2.5,12.4 -3.5,3 -7.5,2.3 -12.9,2.3 v 8.2 c 7.9,0 13.5,1.1 19.1,-4.5 2,-2 4.8,-6.1 4.8,-10 V 31.4 h -8.5 v 71.3 z M 498.6,39.1 c -2.1,-4.5 -7.7,-9 -13.1,-9 -5.4,0 -9.2,0.3 -13.2,4.4 -2.8,2.6 -4.4,6.2 -4.4,10.1 v 0 66.4 h 8.5 V 45.5 c 0.2,-1.8 1,-3.4 2.3,-4.7 2.6,-2.2 6,-3.3 9,-1.3 2,1.3 3.9,3.4 3.9,6.2 v 65.2 h 8.5 V 44.8 c -0.2,-2 -0.7,-3.9 -1.5,-5.7 z M 448.7,31.4 H 438 c -0.5,0 -0.7,0.2 -0.7,0.7 v 0 7.8 h 3.6 v 71 h 8.5 V 32.1 c 0,-0.5 -0.2,-0.7 -0.7,-0.7 z m -68.4,15.2 v 49.9 c 0,7.3 -7.3,14.5 -14.5,14.5 H 348.2 V 0.7 v 0 c 0,-0.5 0.2,-0.7 0.7,-0.7 h 6.9 c 0.5,0 0.7,0.2 0.7,0.7 v 30.7 c 7.7,0 12.8,-0.6 18.2,3.8 3.5,2.8 5.5,6.9 5.6,11.4 z m -8.5,0.9 c 0.1,-2.2 -0.9,-4.4 -2.7,-5.8 -3.2,-2.4 -7.8,-1.8 -12.7,-1.8 v 62.8 h 4.9 c 1.5,0 2.9,-0.1 4.4,-0.3 3.6,-0.6 6.1,-3.7 6.1,-7.3 V 47.5 Z m 45.7,-16.1 c -6.2,0 -10.1,0.8 -13.5,3.6 -3.5,2.9 -5.5,7.2 -5.6,11.8 v 0 64.2 h 8.5 V 49.7 c 0,-2.9 1.4,-5.5 3.6,-7.3 3.7,-2.9 6.6,-2.5 11.7,-2.5 v -7.8 c 0,-1.1 -1.8,-0.7 -4.7,-0.7 z"
   id="path1"
   style="fill:#172554;fill-opacity:1" />
</svg>
