<?xml version="1.0" encoding="UTF-8" standalone="no"?>
<!-- Created with Inkscape (http://www.inkscape.org/) -->

<svg
   version="1.1"
   id="svg1"
   width="2445"
   height="1372"
   viewBox="0 0 2445 1372"
   sodipodi:docname="comesa-logo.jpg"
   xmlns:inkscape="http://www.inkscape.org/namespaces/inkscape"
   xmlns:sodipodi="http://sodipodi.sourceforge.net/DTD/sodipodi-0.dtd"
   xmlns="http://www.w3.org/2000/svg"
   xmlns:svg="http://www.w3.org/2000/svg">
  <defs
     id="defs1" />
  <sodipodi:namedview
     id="namedview1"
     pagecolor="#ffffff"
     bordercolor="#000000"
     borderopacity="0.25"
     inkscape:showpageshadow="2"
     inkscape:pageopacity="0.0"
     inkscape:pagecheckerboard="0"
     inkscape:deskcolor="#d1d1d1"
     showgrid="false" />
  <g
     inkscape:groupmode="layer"
     inkscape:label="Image"
     id="g1">
    <g
       id="g2">
      <path
         style="fill:#fcfdfd"
         d="M 0,686 V 0 H 1222.5 2445 v 686 686 H 1222.5 0 Z m 1748.6303,538.8776 c 1.8682,-1.7551 3.8694,-2.2061 11.5644,-2.6062 7.4839,-0.3891 9.9904,-0.9324 12.8053,-2.7757 5.0737,-3.3223 21.9503,-4.0647 29.787,-1.3104 5.3718,1.8881 5.4252,1.8871 8.9102,-0.1692 2.5675,-1.5148 4.413,-1.8985 6.8939,-1.433 2.7403,0.514 3.5192,0.2801 4.0754,-1.2238 1.067,-2.8852 2.3456,-3.3269 9.359,-3.2334 5.6328,0.075 7.2743,-0.3527 12,-3.1273 5.6491,-3.3169 16.813,-12.0499 20.6607,-16.1621 l 2.1862,-2.3365 -2.9362,-6.3101 c -1.6149,-3.4705 -2.9362,-6.4814 -2.9362,-6.6908 0,-0.2094 -1.8523,-4.3448 -4.1162,-9.1899 -12.7356,-27.2558 -21.9512,-56.2596 -26.7882,-84.3092 -3.9476,-22.8925 -4.5239,-30.3119 -4.5433,-58.5 -0.02,-28.45052 0.8152,-39.71254 4.5217,-61 3.1615,-18.15767 3.0336,-17.22234 2.0496,-14.98366 -0.9503,2.16191 -5.2758,22.79005 -7.0213,33.48366 -4.109,25.1741 -5.4167,42.7339 -5.4364,73 -0.025,37.9768 0.8287,46.6595 11.3774,115.7735 1.7019,11.1504 2.9103,21.0504 2.6855,22 -0.2845,1.2016 -0.647,0.8144 -1.1924,-1.2735 -0.431,-1.65 -3.8502,-13.853 -7.5982,-27.1178 -12.0454,-42.6309 -15.268,-63.6256 -15.3313,-99.8822 -0.058,-33.1142 2.6401,-55.6163 10.3823,-86.59335 4.9262,-19.71008 15.9498,-51.08825 19.0962,-54.35665 1.1451,-1.18944 1.0649,-2.64509 1.3755,24.95 0.6235,55.3946 10.3084,105.4795 31.3261,162 5.4116,14.5529 20.48,51.1004 21.4813,52.1017 0.3281,0.3281 3.7075,-4.0983 7.5097,-9.8364 l 6.9132,-10.4329 -5.4793,-7.9162 c -40.1988,-58.0771 -62.1881,-131.1583 -60.1524,-199.9162 0.2506,-8.46253 0.3067,-8.67155 0.9405,-3.5 l 0.674,5.5 0.163,-4.75 c 0.09,-2.6125 0.6216,-4.75 1.1821,-4.75 0.5745,0 0.7859,1.19944 0.4846,2.75 -0.4217,2.1697 -0.35,2.32796 0.3394,0.75 0.7739,-1.77119 0.9586,-1.61769 1.615,1.34168 1.3494,6.08447 13.1375,34.44309 19.9809,48.06796 17.9984,35.83406 42.7075,72.19916 69.6063,102.44156 0.4164,0.4681 4.0005,-0.1725 7.9647,-1.4236 l 7.2077,-2.2748 -8.3588,-7.4947 c -27.7785,-24.9068 -49.2868,-51.2444 -69.7641,-85.42857 -10.3495,-17.27708 -28.3161,-56.84156 -26.5942,-58.56342 1.6793,-1.67939 3.9051,-0.34836 8.6652,5.18188 26.1342,30.36273 60.7969,59.65329 97.6356,82.50361 17.3294,10.7491 16.6767,10.5395 15.803,5.0759 -0.6635,-4.1492 -3.816,-8.9275 -5.8899,-8.9275 -1.6443,0 -29.882,-16.08822 -39.1424,-22.30103 -21.0573,-14.12745 -43.6903,-32.88978 -60.4648,-50.12418 -4.616,-4.74252 -8.1218,-8.89364 -7.7907,-9.2247 0.331,-0.33107 3.6577,2.20798 7.3927,5.64232 13.3966,12.3186 38.9818,30.68522 61.3679,44.05371 13.7357,8.20267 38.5696,20.96468 40.6671,20.89858 0.9656,-0.03 2.7557,-1.32408 3.978,-2.87475 l 2.2223,-2.81939 -4.7223,-1.68976 c -34.568,-12.36933 -76.3163,-36.25438 -103.9723,-59.48471 -3.9875,-3.3494 -7.25,-5.61017 -7.25,-5.02393 0,0.58623 -0.4573,0.78322 -1.0163,0.43776 -0.559,-0.34546 -0.7766,-1.01593 -0.4837,-1.48992 0.2929,-0.47399 0.01,-1.18743 -0.6382,-1.58541 -0.7963,-0.49214 -0.9065,-0.27433 -0.3444,0.6809 0.4867,0.82728 0,0.68439 -1.1767,-0.34767 -1.1016,-0.9637 -2.4016,-1.4137 -2.8889,-1 -0.4872,0.4137 -0.3421,0.0358 0.3225,-0.83983 0.6646,-0.8756 0.991,-1.89185 0.7254,-2.25833 -0.2657,-0.36648 0.053,-0.21258 0.7086,0.34201 0.6555,0.55458 1.5517,1.00833 1.9917,1.00833 1.0631,0 0.5641,-2.306 -0.7,-3.23469 -0.5886,-0.43242 -0.3829,-0.74728 0.5,-0.76531 1.1893,-0.0243 1.2271,-0.20364 0.1825,-0.86604 -2.842,-1.80208 4.9432,-2.95906 27.1068,-4.02842 22.9188,-1.10581 26.7781,-1.51475 49.7107,-5.26748 30.3986,-4.97448 62.3966,-13.91158 92.7167,-25.89592 22.7019,-8.97318 40.1249,-17.05126 41.5809,-19.2788 4.0204,-6.15052 3.271,-10.64804 -2.3673,-14.20735 l -4.0319,-2.54524 -13.3863,9.04463 c -7.3624,4.97454 -13.5935,9.04462 -13.8469,9.04462 -0.2535,0 -3.5443,1.87776 -7.313,4.17281 -27.6021,16.80893 -74.5008,33.40976 -112.262,39.73762 -24.7807,4.15265 -57.0837,6.52709 -58.4618,4.29726 -0.4555,-0.73689 0.3853,-0.91941 2.5992,-0.56425 3.85,0.61763 20.3465,-1.71916 37.2571,-5.27763 48.106,-10.12286 94.0018,-28.42973 143.2653,-57.14556 20.4571,-11.92452 19.9793,-11.3069 15.7598,-20.37095 -1.3697,-2.94212 -2.4947,-6.1368 -2.5,-7.0993 -0.01,-0.9625 -0.2814,-1.75 -0.6133,-1.75 -0.332,0 -4.2695,3.31212 -8.75,7.36028 -40.9513,36.99916 -91.6626,63.30113 -149.6465,77.61579 -12.782,3.15553 -28.9185,6.09365 -32.5,5.91755 -1.9241,-0.0946 0.718,-0.97612 8.5,-2.83593 1.925,-0.46005 8.45,-2.38981 14.5,-4.28836 54.9864,-17.25527 104.4295,-44.4705 156.1724,-85.96288 11.6609,-9.35078 12.2401,-9.99349 13.7805,-15.29251 1.8526,-6.37262 1.5694,-7.20754 -4.411,-13.0033 l -4.1165,-3.98937 -2.7127,3.48555 c -14.3455,18.43251 -38.8215,43.0595 -56.3992,56.74709 -11.2798,8.78347 -29.101,20.97668 -39.8232,27.24687 -23.391,13.67871 -63.9036,30.70103 -84.2799,35.41221 -2.7944,0.64611 -7.0706,-1.35473 -7.3354,-3.43225 -0.2679,-2.1023 -0.4214,-2.18708 -1.8353,-1.0137 -1.2015,0.9972 -1.821,0.62024 -3.4962,-2.12756 -1.8306,-3.00253 -2.0364,-3.10651 -2.0398,-1.03046 0,1.284 -0.4476,2.03466 -1.0037,1.69098 -0.55,-0.33992 -1.0055,-3.17898 -1.0123,-6.30902 -0.021,-9.61601 -2.83,-38.03963 -5.0101,-50.69098 -6.1218,-35.52612 -15.7473,-68.74792 -29.6977,-102.5 -3.5236,-8.525 -15.6512,-33.95 -26.9503,-56.5 -11.2991,-22.55 -20.1112,-40.55 -19.5824,-40 1.2931,1.3449 25.9052,36.57866 30.3864,43.5 33.3704,51.54131 52.1794,117.14775 53.0084,184.89522 l 0.142,11.60478 0.948,-12 c 2.0473,-25.91359 -2.2051,-72.00253 -9.8722,-107 -4.005,-18.2811 -9.3218,-37.21112 -15.7283,-56 -10.753,-31.53572 -18.7074,-53.82637 -22.991,-64.42811 -2.5397,-6.28547 -4.444,-11.60171 -4.2318,-11.81388 0.2121,-0.21217 2.6226,3.80548 5.3565,8.92811 12.2729,22.996 14.3441,26.95312 19.5604,37.37071 15.5188,30.9925 25.6888,65.05313 31.3345,104.94317 1.4695,10.38276 1.8382,19.24112 1.8314,44 -0.01,29.59494 -0.7364,40.77403 -3.6257,55.65228 -0.6037,3.10876 -0.9035,6.23449 -0.6663,6.94608 0.4031,1.20938 2.4927,-8.78544 4.7245,-22.59836 7.2481,-44.85792 5.5812,-102.03184 -4.4317,-152 -3.4385,-17.15953 -10.7904,-50.50622 -14.9717,-67.90788 -3.746,-15.59032 -4.1805,-20.336 -1.0989,-12.00171 0.9985,2.70028 5.3515,13.94962 9.6735,24.99855 17.4393,44.58285 23.9105,78.27684 23.894,124.41104 -0.01,24.35929 -1.3882,41.35993 -4.9317,60.78084 -3.0254,16.58133 -3.1243,17.03637 -6.2141,28.60376 -1.5992,5.98653 -2.7164,11.07574 -2.4828,11.30935 0.593,0.59301 4.9838,-13.89595 8.544,-28.19395 10.579,-42.4857 15.083,-93.48539 12.0549,-136.5 -0.9962,-14.14998 -7.413,-82.12179 -8.3939,-88.91369 -0.7934,-5.4938 1.0025,-2.14152 2.3646,4.41369 0.6857,3.3 2.9801,13.2 5.0988,22 9.7349,40.43518 11.3876,53.28258 11.3843,88.5 0,20.6923 -0.4395,30.71818 -1.7677,40.5 -3.8053,28.02434 -10.9068,57.44076 -19.1925,79.5 -1.9626,5.225 -3.9412,10.625 -4.3969,12 -1.4705,4.43694 -8.0963,17.58379 -7.5597,15 0.2855,-1.375 0.7474,-3.625 1.0264,-5 0.5448,-2.68514 -1.7395,2.74336 -2.9456,7 -0.5638,1.98994 -0.4776,2.19396 0.4227,1 0.9067,-1.20256 1.0059,-1.00426 0.5,1 -0.4858,1.92455 -0.3893,2.15473 0.4192,1 0.9335,-1.33333 1.0536,-1.33333 1.0808,0 0.025,1.20382 0.1976,1.23663 0.8761,0.16615 0.6654,-1.04954 1.0156,-0.94297 1.6435,0.5 0.4389,1.00862 0.7124,2.21354 0.6079,2.6776 -0.1045,0.46406 0.3078,0.67781 0.9162,0.475 0.6085,-0.20281 1.034,-0.73299 0.9457,-1.17817 -0.088,-0.44517 7.6546,-8.75892 17.2065,-18.475 23.1081,-23.50529 39.2007,-43.7741 56.7173,-71.43611 4.4478,-7.0238 8.0868,-12.95081 8.0868,-13.17114 0,-0.22033 2.2214,-4.247 4.9364,-8.94816 5.2515,-9.09328 17.1679,-33.14041 21.3629,-43.11017 1.3885,-3.3 3.8707,-8.925 5.516,-12.5 7.2474,-15.74753 16.1869,-36.35787 20.1689,-46.5 4.6943,-11.9563 6.78,-15.67608 4.4275,-7.8961 -0.8143,2.69285 -3.5075,12.7711 -5.985,22.3961 -8.2663,32.11483 -13.5425,47.17801 -24.4483,69.79807 -17.4296,36.15149 -36.927,63.32478 -66.9043,93.24381 -18.4997,18.46375 -21.2394,20.95997 -32.3526,29.47742 -4.2782,3.27892 -7.2648,6.13292 -6.6369,6.34224 0.7809,0.2603 0.711,0.65347 -0.2214,1.2442 -0.7498,0.475 -0.8815,0.87053 -0.2927,0.87895 1.5779,0.0226 24.0826,-13.03321 34.7157,-20.13986 39.4893,-26.39262 79.7859,-64.17368 109.1592,-102.34483 3.8091,-4.95 13.0422,-16.875 20.5181,-26.5 7.4758,-9.625 16.4448,-21.4375 19.9311,-26.25 8.8449,-12.20969 9.0988,-11.69442 1.1086,2.25 -2.0484,3.575 -6.3485,11.45 -9.5556,17.5 -27.773,52.39159 -69.2615,96.54234 -121.5022,129.29875 -11.6506,7.30529 -35.9909,20.08594 -45.2385,23.75397 -3.7362,1.48195 -6.594,2.89351 -6.3507,3.1368 0.7493,0.74932 22.4404,-8.47937 36.1367,-15.37476 47.3224,-23.82433 83.7684,-51.1953 128.1906,-96.27133 20.7154,-21.02017 22.3592,-22.95758 24.8367,-29.27228 1.4592,-3.71925 3.734,-7.61255 5.0552,-8.65177 1.3211,-1.03922 3.936,-5.42872 5.8108,-9.75444 7.088,-16.35395 8.7346,-19.3232 11.6801,-21.06317 1.6149,-0.95398 3.1898,-2.53321 3.4996,-3.50941 0.3098,-0.9762 3.1218,-3.76325 6.2487,-6.19343 10.2475,-7.96404 21.1854,-20.68485 21.1854,-24.63862 0,-0.86648 1.7115,-2.33053 3.8033,-3.25345 2.1139,-0.93264 5.2985,-3.67347 7.1692,-6.17021 5.4036,-7.21174 24.5755,-24.23888 28.7989,-25.57712 6.6893,-2.11961 11.6578,-5.65359 15.613,-11.10538 2.1364,-2.94478 6.1426,-7.15415 8.9027,-9.35415 6.8179,-5.43443 16.7272,-17.17347 20.5481,-24.34227 1.7294,-3.24456 5.1364,-8.06887 7.5712,-10.72068 3.2169,-3.50367 5.8101,-8.11706 9.488,-16.87925 6.1454,-14.64064 8.5234,-21.47335 7.7446,-22.25216 -1.0295,-1.02944 -36.0458,26.58336 -64.139,50.57799 -20.8825,17.8359 -58.6721,55.43954 -71.9707,71.61637 -12.2102,14.85299 -12.5173,15.15953 -9.0173,9 3.2072,-5.64425 15.975,-23.45176 24.3715,-33.99141 19.7988,-24.85243 57.5656,-63.56155 100.1165,-102.61455 6.325,-5.80506 17.2951,-15.8993 24.378,-22.43164 l 12.878,-11.87699 -0.5073,-8.1326 c -0.2791,-4.47293 -0.111,-8.84098 0.3735,-9.70676 1.2252,-2.18925 0.214,-4.27185 -2.7243,-5.6106 -3.63,-1.65396 -5.0214,-1.42109 -7.7375,1.29505 -1.3368,1.33678 -4.1697,2.85446 -6.2954,3.37263 -10.6281,2.59072 -26.5709,5.50923 -32.3606,5.92397 l -6.4957,0.4653 -22.0043,22.19177 c -52.5266,52.97391 -85.5196,92.85638 -111.0007,134.17944 -2.0134,3.26501 -3.3418,4.81139 -2.9522,3.43639 1.773,-6.25752 22.3475,-42.05318 33.5477,-58.3665 13.4149,-19.53926 41.815,-56.4262 65.0988,-84.55249 4.2885,-5.18044 7.6426,-9.57377 7.4534,-9.76295 -0.1892,-0.18918 -3.0006,0.83099 -6.2477,2.26704 -9.9321,4.39262 -16.1658,2.06613 -24.4267,-9.1163 -5.1916,-7.02759 -6.7737,-7.84377 -12.0855,-6.23486 -3.5113,1.06357 -5.2855,2.70552 -11.0928,10.26606 -3.8021,4.95 -7.5407,9.76752 -8.308,10.7056 -2.7779,3.39624 -25.249,35.5366 -31.7445,45.40414 -12.2627,18.62865 -22.0622,35.7254 -33.4457,58.3511 -6.2153,12.35346 -11.3005,22.22538 -11.3005,21.93759 0,-1.96156 8.3232,-24.28296 14.1316,-37.89843 3.8056,-8.92076 16.5946,-34.63841 23.1238,-46.5 8.7093,-15.82229 31.4513,-53.49859 42.9127,-71.0929 9.5281,-14.62648 10.9386,-17.4071 8.8302,-17.4071 -0.5509,0 -2.5801,-2.19717 -4.5094,-4.8826 -1.9293,-2.68543 -4.7411,-5.4107 -6.2484,-6.05617 -1.5073,-0.64546 -4.2298,-3.1899 -6.05,-5.6543 -2.1514,-2.91275 -4.314,-4.68163 -6.18,-5.05482 -1.5787,-0.31575 -3.8804,-1.64915 -5.1148,-2.9631 -3.4879,-3.71277 -5.989,-3.07864 -9.3118,2.36099 -18.0772,29.59301 -35.8066,61.67162 -49.6037,89.75 -14.9514,30.42765 -19.3339,40.89496 -29.5171,70.5 -5.6384,16.39222 -6.8376,17.52615 -3.3602,3.17719 11.7631,-48.53862 28.16,-90.2533 67.2264,-171.02885 l 3.5556,-7.35166 -2.5646,-5.64834 c -1.4106,-3.10659 -4.339,-10.81935 -6.5077,-17.13948 -4.1972,-12.23179 -7.4085,-17.52454 -11.5997,-19.118 -1.4247,-0.5417 -3.206,-1.86375 -3.9584,-2.93789 -2.0648,-2.94786 -3.8705,-2.36412 -5.559,1.79703 -0.8369,2.0625 -3.7474,8.475 -6.4679,14.25 -9.5183,20.20542 -11.5193,24.67718 -21.7031,48.5 -24.4366,57.16417 -40.8475,106.64419 -47.5943,143.5 -0.6545,3.575 -1.546,7.625 -1.9811,9 -2.1189,6.69506 0.034,-16.9449 3.1419,-34.5 7.136,-40.30888 17.3365,-76.97562 40.8421,-146.81116 6.5142,-19.35386 14.3692,-42.37341 17.4555,-51.15456 6.9143,-19.67286 7.3076,-25.98094 1.9535,-31.33507 -0.7382,-0.73814 -1.3421,-2.23227 -1.3421,-3.3203 0,-5.11218 -5.4294,-11.03585 -14.1786,-15.46942 -5.4136,-2.74326 -8.3606,-6.72237 -9.36,-12.63817 -0.4847,-2.86895 -0.2389,-4.35973 0.9325,-5.65405 1.4705,-1.62493 1.361,-1.9779 -1.4489,-4.66997 -2.5387,-2.43221 -3.1941,-2.66785 -3.977,-1.42974 -0.5156,0.81534 -0.9443,2.27823 -0.9527,3.25086 -0.039,4.52295 -9.7968,39.30336 -18.0484,64.332 -28.5067,86.46653 -42.4435,141.26543 -49.441,194.39958 -1.2579,9.55166 -2.2205,20.22217 -3.6989,41 -0.6595,9.26833 -1.2084,-20.42954 -0.6931,-37.5 0.8169,-27.06397 2.9695,-46.10245 9.8932,-87.5 4.5109,-26.97121 14.7997,-78.05862 24.9731,-124 3.29,-14.85709 6.4923,-32.53602 8.5133,-47 1.4128,-10.11046 2.5221,-27.53566 2.5508,-40.06771 0.039,-17.00864 -1.2952,-22.2722 -6.4997,-25.64167 -3.1545,-2.04228 -9.5646,-10.07031 -9.5646,-11.97875 0,-0.45528 -1.1489,-2.98603 -2.5532,-5.62389 -2.0441,-3.83984 -2.43,-5.63271 -1.9355,-8.99204 0.649,-4.4085 -1.1956,-13.25096 -3.8247,-18.33514 -2.7078,-5.23617 -5.1016,-6.60497 -11.909,-6.80949 -10.4905,-0.31518 -9.7762,-2.33942 -9.7873,27.73387 -0.014,36.5507 -2.1801,72.21161 -6.0886,100.21482 -1.0747,7.7 -4.8518,28.625 -8.3935,46.5 -11.863,59.8731 -18.2913,101.85827 -22.0477,144 -1.5764,17.68551 -2.2515,67.81818 -1.1244,83.5 1.2074,16.79823 -2.2516,-4.09573 -4.8837,-29.5 -1.0356,-9.99481 -1.5027,-25.52994 -1.5036,-50 0,-45.13998 1.6353,-71.81289 10.5251,-171.5 1.9339,-21.68569 1.9517,-61.06183 0.037,-82.76178 -2.3459,-26.59303 -7.7381,-60.62675 -9.8145,-61.94678 -0.6583,-0.41845 -1.7454,-0.76771 -2.416,-0.77613 -0.6706,-0.008 -3.1206,-1.00636 -5.4445,-2.21765 -3.4607,-1.8038 -6.3513,-2.27815 -15.9735,-2.62121 -11.4522,-0.40832 -11.8128,-0.49141 -14.3132,-3.29766 -3.0262,-3.39638 -9.0862,-4.23409 -8.1656,-1.12879 0.5585,1.88376 3.8733,27.74507 5.5438,43.25 4.2538,39.4849 5.308,89.03977 2.6058,122.5 -3.7334,46.23054 -4.8362,72.78803 -4.8792,117.5 -0.05,51.82741 1.5215,75.09301 7.3949,109.5 3.0654,17.95751 3.2187,19.21681 2.1314,17.5 -1.1235,-1.77383 -7.459,-26.2794 -9.5658,-37 -8.7378,-44.46363 -13.0855,-95.11213 -16.6099,-193.5 -1.9509,-54.45998 -4.6558,-77.5993 -13.6186,-116.5 -3.5526,-15.41898 -4.4171,-18.50363 -11.0702,-39.5 -4.0904,-12.90869 -12.1765,-34.60802 -13.3774,-35.89865 -0.9961,-1.0706 -4.1982,0.89139 -9.2856,5.68941 -4.1641,3.92726 -4.5734,6.63933 -2.069,13.70924 2.0689,5.84077 0.8992,8.98998 -4.7209,12.70916 -5.1539,3.41072 -11.5472,3.79191 -14.7644,0.8803 -1.1612,-1.05079 -2.3724,-1.64931 -2.6916,-1.33005 -0.3193,0.31927 1.6991,10.40401 4.4854,22.41054 14.7573,63.59202 17.4855,83.38034 21.1399,153.33005 4.562,87.3216 15.2465,159.49641 31.0137,209.5 4.2585,13.50509 4.2571,13.5 3.6793,13.5 -0.9914,0 -10.6508,-24.7538 -16.1539,-41.39713 -13.2062,-39.94015 -23.9511,-91.44206 -41.0835,-196.92032 -4.5841,-28.22249 -6.4893,-37.71575 -11.4756,-57.18255 -10.6214,-41.46565 -29.1245,-86.38039 -51.0832,-124 -4.4945,-7.7 -8.3164,-14.16165 -8.4932,-14.35922 -0.1767,-0.19756 -4.0404,-0.30488 -8.586,-0.23847 -10.4964,0.15334 -16.8139,-1.86598 -21.9705,-7.02265 -2.1339,-2.13381 -4.5281,-3.87966 -5.3207,-3.87966 -0.7925,0 -1.7191,-0.45 -2.059,-1 -0.3399,-0.55 -1.7061,-1 -3.036,-1 -2.7648,0 -6.8595,-5.03484 -4.6843,-5.7599 0.6806,-0.22685 3.0095,-1.83618 5.1755,-3.57628 2.1659,-1.7401 5.1345,-4.0081 6.5968,-5.03999 2.6957,-1.90223 6.3859,-8.70174 6.426,-11.8405 0.012,-0.94416 -1.4405,-3.20004 -3.228,-5.01306 -1.7875,-1.81302 -6.8189,-7.65004 -11.1809,-12.97116 l -7.931,-9.67475 -3.5104,1.46675 c -1.9307,0.80671 -6.7993,1.74476 -10.8191,2.08456 -4.0197,0.33979 -7.3086,0.71542 -7.3086,0.83473 0,0.11931 3.6396,7.81578 8.0881,17.10326 6.7194,14.02892 12.9387,27.63761 27.3687,59.88634 7.2144,16.12306 24.4348,59.24541 30.7491,77 2.7385,7.7 5.8582,16.475 6.9328,19.5 9.1209,25.67571 19.5671,65.64881 23.781,91 17.1604,103.23743 37.0319,178.17629 60.6964,228.89607 9.2594,19.84573 2.7127,10.6978 -9.5804,-13.38688 -12.986,-25.44234 -22.962,-49.78446 -35.6582,-87.00919 -9.1964,-26.96322 -25.1794,-79.04802 -36.3635,-118.5 -10.2868,-36.28683 -20.8311,-63.95477 -35.1364,-92.19717 C 1593.9112,240.6155 1554.3738,190.00385 1504,145.62802 c -20.3619,-17.93743 -20.6614,-18.14628 -23.6983,-16.52783 -1.4447,0.76989 -3.7813,1.39981 -5.1925,1.39981 -4.3412,0 -3.5731,2.87357 3.66,13.69099 3.7912,5.66995 10.8654,16.60901 15.7205,24.30901 4.855,7.7 10.2676,16.25 12.028,19 3.0388,4.74692 10.8337,17.50979 12.9823,21.25631 0.55,0.95903 4.1896,7.14369 8.0879,13.74369 31.3015,52.99414 55.0975,99.83936 71.6239,141 5.997,14.93611 9.2821,24.74419 24.7108,73.77791 24.2102,76.94232 49.8953,138.74918 75.3658,181.35505 10.6174,17.76039 10.2398,17.09154 8.9593,15.86704 -2.4142,-2.30883 -18.5558,-25.21323 -25.487,-36.16536 -17.8443,-28.19619 -42.437,-76.54204 -62.7381,-123.33464 -1.7897,-4.125 -4.2671,-9.75 -5.5054,-12.5 -1.2383,-2.75 -7.7968,-18.05 -14.5745,-34 -21.7951,-51.29068 -40.1082,-84.45478 -64.8645,-117.4664 -29.0822,-38.78005 -67.2777,-76.80168 -106.5782,-106.09297 -12.0366,-8.9711 -34.2912,-23.99901 -42.5,-28.69916 -20.8659,-11.94723 -22.1137,-12.48459 -23.5591,-10.14578 -0.3725,0.60263 1.3287,3.19013 3.7803,5.75 17.5731,18.34872 62.8124,73.8645 93.4306,114.65431 41.0779,54.72411 75.7946,110.97081 92.2746,149.5 6.3866,14.93132 24.6633,53.99669 34.8547,74.5 29.7672,59.88587 55.1413,101.29348 83.5532,136.34922 8.3018,10.24321 4.1377,6.99482 -8.0146,-6.25201 -34.7811,-37.91392 -67.305,-86.02664 -125.8006,-186.09721 -16.7326,-28.62516 -38.2417,-60.68721 -46.6968,-69.60759 -0.7273,-0.7673 -3.1152,-3.64449 -5.3064,-6.39375 -4.0966,-5.13974 -19.5309,-22.32992 -27.5159,-30.64626 -14.1181,-14.7039 -38.3312,-35.61716 -59.5464,-51.43122 C 1386.0091,287.89039 1362.5025,272 1361.3274,272 c -0.3685,0 -1.3804,-0.62693 -2.2487,-1.39319 -2.917,-2.57422 -30.4525,-17.88937 -43.9688,-24.4553 -13.0162,-6.32301 -13.4629,-6.45964 -16,-4.89303 -1.4354,0.88638 -4.1305,2.39466 -5.9889,3.35173 l -3.3791,1.74013 5.402,5.07483 c 2.9711,2.79116 11.2416,10.46502 18.379,17.05304 36.5817,33.76589 85.8238,84.05505 114.4299,116.86296 25.3525,29.07631 45.4278,55.83443 62.2575,82.98203 5.6593,9.129 14.1147,22.76474 18.7897,30.30163 4.675,7.5369 9.1947,14.86709 10.0438,16.28931 4.9927,8.36253 25.9943,40.27474 35.2652,53.58586 26.3009,37.76266 48.3193,64.94793 73.6789,90.96857 9.6317,9.88271 15.7121,16.64735 13.5121,15.03252 -21.1449,-15.52059 -53.9307,-48.08371 -84.9711,-84.39397 C 1544.58,576.12962 1507.117,529.0925 1488,504.06484 c -24.0484,-31.48374 -39.0465,-49.20873 -55.9509,-66.12365 -8.552,-8.55734 -17.5741,-17.34485 -20.0491,-19.5278 -22.5373,-19.87789 -46.3082,-37.64719 -69.4875,-51.94357 -31.4979,-19.42703 -65.0668,-35.60768 -100.3475,-48.36882 -20.1482,-7.28763 -19.2975,-7.22222 -23.0472,-1.77226 -1.7148,2.49239 -3.107,4.90053 -3.0939,5.35144 0.013,0.4509 3.5007,3.26519 7.75,6.25398 30.774,21.64495 89.0512,66.86749 116.9546,90.75547 51.9283,44.4557 77.8837,71.12673 114.2444,117.39422 7.9601,10.12888 20.4953,25.73804 27.856,34.68702 11.319,13.76127 14.1766,16.64853 18.5272,18.71938 3.7051,1.76365 6.0846,3.83779 8.507,7.41555 1.8497,2.73187 3.9872,5.20653 4.75,5.49923 0.8013,0.30747 1.3869,1.94917 1.3869,3.88777 0,2.80857 1.0268,4.34695 6.2986,9.43714 l 6.2986,6.08157 5.3539,-1.38878 c 2.9447,-0.76384 6.1675,-2.12511 7.162,-3.02505 1.2862,-1.16402 2.7574,-1.45231 5.0975,-0.99888 1.8091,0.35056 5.4166,0.9105 8.0166,1.24433 4.4724,0.57424 4.7835,0.45886 5.7718,-2.14057 l 1.0446,-2.74752 2.4305,2.62248 c 1.3367,1.44236 3.1153,2.62248 3.9525,2.62248 0.8371,0 2.2133,1.33666 3.0581,2.97036 0.8448,1.63369 2.4018,3.43369 3.4599,4 2.5033,1.33974 6.0554,1.32251 6.0554,-0.0294 0,-0.58246 0.4953,-0.75288 1.1007,-0.37872 0.6357,0.39288 0.8509,1.92983 0.5093,3.63785 -0.4478,2.23894 0.036,3.78036 1.9914,6.34396 l 2.583,3.38642 -1.5376,6.28475 c -0.8457,3.45662 -1.8475,8.08476 -2.2263,10.28476 -0.3788,2.2 -1.5716,6.39175 -2.6508,9.315 -1.8008,4.87815 -1.8308,5.45995 -0.3659,7.07874 0.8779,0.97006 1.5962,2.08739 1.5962,2.48297 0,1.09496 4.0709,4.52793 21.1844,17.8647 8.6265,6.72269 15.5423,12.36527 15.3685,12.53907 -0.4359,0.43583 -20.3341,-12.21206 -29.9319,-19.02547 -7.4031,-5.25546 -11.2114,-6.45708 -9.9367,-3.13527 0.3069,0.79983 1.966,2.21221 3.6869,3.13863 2.8793,1.55011 2.9535,1.71163 0.9304,2.02581 -1.2091,0.18777 -3.0609,-0.1202 -4.1151,-0.68437 -1.7401,-0.93127 -1.97,-0.57557 -2.4954,3.86085 -0.6511,5.49717 -2.3442,8.79446 -4.9386,9.6179 -0.9639,0.30592 -1.7525,1.13431 -1.7525,1.84086 0,0.70656 2.5052,6.41373 5.5671,12.68261 l 5.567,11.39797 17.3083,17 c 17.5002,17.18852 20.6395,21.33898 23.581,31.17574 1.3362,4.46852 1.7046,4.67431 10.4766,5.85203 2.75,0.36922 9.5,1.77754 15,3.12961 60.5761,14.89145 115.2552,46.4592 161.1412,93.03126 11.8414,12.01851 23.3588,25.24228 23.3588,26.81965 0,0.4321 -4.1625,-3.21922 -9.25,-8.11406 -5.0875,-4.89483 -11.9469,-11.14847 -15.2432,-13.89696 -3.2962,-2.7485 -6.6712,-5.64401 -7.5,-6.43448 -0.8287,-0.79046 -7.3568,-5.79518 -14.5068,-11.12159 -31.0408,-23.12391 -63.0579,-41.24653 -101.0703,-57.20871 C 1670.0328,800.10687 1625.8013,783 1624.6526,783 c -1.677,0 -0.3295,4.24527 2.7844,8.77209 1.8903,2.74808 4.5501,7.63608 5.9105,10.86221 2.3582,5.59214 2.676,5.9011 6.813,6.62466 26.2552,4.59197 39.1651,7.7569 58.8395,14.42479 28.9369,9.80711 55.3223,22.87649 82,40.61677 14.8663,9.88591 26.6255,19.22239 45.9888,36.5139 4.448,3.97215 6.8801,4.62974 5.0849,1.37489 -0.5125,-0.92912 -5.7621,-7.53931 -11.6658,-14.68931 -19.1946,-23.24636 -46.625,-48.83365 -74.3201,-69.32624 -26.5484,-19.64404 -48.7858,-32.78232 -97.7622,-57.75967 -17.146,-8.74421 -31.0408,-16.03226 -30.8774,-16.19566 0.1634,-0.16341 3.3919,0.88343 7.1745,2.32629 3.7825,1.44287 14.0773,5.10594 22.8773,8.14016 40.6332,14.01026 68.4046,28.35416 98,50.61699 28.7901,21.65698 53.605,47.12427 74.761,76.72632 11.8178,16.53577 12.0882,16.88687 9.6039,12.47181 -6.5743,-11.68364 -21.1225,-32.2505 -34.2938,-48.4813 -21.2799,-26.22284 -59.0217,-61.39442 -86.1848,-80.31548 -10.263,-7.14889 -52.772,-36.39326 -62.0725,-42.70322 -4.4587,-3.025 -7.9657,-5.65018 -7.7932,-5.83373 0.1724,-0.18355 4.9633,2.12467 10.6465,5.12937 5.6831,3.0047 15.9579,8.29195 22.8329,11.74944 38.58,19.40218 63.6923,37.32517 91.5328,65.32841 27.5269,27.68774 47.1724,54.67375 64.1551,88.12651 5.5728,10.97754 7.1861,15.15819 5.4307,14.07329 -0.7032,-0.43462 -0.8663,-0.0793 -0.4551,0.99211 0.5502,1.43377 0.8156,1.3421 1.8816,-0.64975 1.1779,-2.20094 1.2267,-2.14325 0.9577,1.13266 -0.156,1.89843 -0.3329,3.6502 -0.3932,3.89282 -0.06,0.24262 -0.7525,-0.43238 -1.5382,-1.5 -1.3434,-1.82543 -1.4696,-1.8353 -2.1168,-0.16561 -0.4912,1.2673 -1.0389,1.48447 -1.9134,0.75868 -0.6739,-0.55927 -1.4608,-0.78129 -1.7487,-0.49338 -0.2879,0.28791 -4.5215,-1.79488 -9.408,-4.62841 -43.8851,-25.44771 -104.2038,-45.71019 -158.8845,-53.37303 -18.514,-2.59451 -19.5003,-2.68817 -19.4903,-1.85065 0.01,0.4462 1.5803,2.7871 3.5,5.202 1.9197,2.4149 3.4903,5.37011 3.4903,6.56712 0,2.12939 0.459,2.20223 21.25,3.37247 36.4915,2.05397 63.8987,7.27245 96.25,18.32654 17.7676,6.07101 41.0849,16.38938 56,24.78108 5.6612,3.18515 6.7212,4.54934 2,2.5739 -2.2,-0.92052 -7.6,-3.17609 -12,-5.01237 -32.1725,-13.42676 -72.5622,-23.38554 -113.5,-27.98536 -14.4601,-1.62475 -47.7012,-3.46454 -49.7228,-2.75199 -0.6725,0.23704 -1.5202,2.07503 -1.8836,4.08443 -0.9665,5.34313 -2.8265,8.4835 -6.8357,11.54149 -3.4789,2.65352 -7.2187,8.28451 -6.1871,9.31606 0.285,0.28503 4.2557,0.0137 8.8237,-0.60289 21.6642,-2.92435 74.9546,-4.19607 89.8055,-2.14311 3.9382,0.54441 0.3887,0.80113 -12.5,0.90406 -29.2261,0.23342 -57.03,3.57931 -81.9994,9.8677 l -10.9995,2.77014 -1.2655,10.27865 c -0.696,5.65325 -2.0948,12.46109 -3.1083,15.12852 l -1.8428,4.84987 10.6077,-4.45048 c 58.0232,-24.34359 124.855,-31.47917 191.1078,-20.40446 2.475,0.41372 -5.6623,0.5393 -18.0828,0.27907 -47.6423,-0.9982 -95.8426,5.96862 -144.4172,20.87387 -27.5185,8.44414 -40.7697,13.38725 -41.6053,15.52015 -0.9,2.29708 -0.9166,12.80201 -0.026,16.66819 l 0.6317,2.74338 10,-6.07593 C 1678.7679,931.36844 1743.7379,914 1807.7196,914 c 9.5692,0 17.1625,0.38176 16.8741,0.84836 -0.2884,0.46659 -5.3774,1.11827 -11.309,1.44816 -42.4839,2.36282 -93.3241,14.91014 -140.0505,34.56438 -13.0689,5.4971 -47.6734,22.1761 -50.644,24.40987 -1.818,1.3671 -1.6214,1.74609 4.0914,7.88694 l 6.0012,6.45082 10.8778,-7.87928 c 33.7728,-24.46319 74.1593,-43.5285 114.738,-54.16449 19.9145,-5.21973 43.0437,-9.17994 58.2014,-9.96529 8.8409,-0.45806 9.3825,-0.39665 4.672,0.52989 -7.6679,1.50827 -5.559,2.31749 2.4189,0.9282 4.9638,-0.86441 6.9861,-0.87513 7.8045,-0.0414 0.816,0.83134 0.3208,0.9551 -1.8954,0.47371 -2.2752,-0.4942 -2.6376,-0.39419 -1.5,0.41392 1.3333,0.94718 1.3333,1.06898 0,1.0962 -1.0537,0.0215 -1.1485,0.25416 -0.3188,0.78184 0.7391,0.47002 -2.2553,2.86011 -8,6.38532 -43.777,26.86396 -87.4738,68.05909 -121.8063,114.83285 -10.0348,13.6712 -28.8747,41.8302 -28.8869,43.1759 -0.01,0.7282 1.1602,6.2741 2.5929,12.3241 2.7166,11.4716 5.7323,19.5 7.3246,19.5 0.5123,0 1.924,-3.0375 3.1372,-6.75 18.8322,-57.6291 50.0123,-106.2312 94.5796,-147.42651 16.1831,-14.95859 46.4254,-38.10913 47.8814,-36.65318 0.3017,0.30177 -4.0756,4.40264 -9.7275,9.11304 -10.066,8.38921 -34.8646,32.82055 -44.3737,43.71664 -24.6048,28.19341 -49.9343,66.40301 -69.274,104.50001 -3.9089,7.7 -9.8096,19.175 -13.1126,25.5 -3.3031,6.325 -6.0079,12.2612 -6.0107,13.1916 0,0.9303 2.6946,3.7689 5.9943,6.308 5.0955,3.9209 6.6193,5.8969 10.1121,13.1131 2.2619,4.6731 4.2751,8.334 4.4737,8.1354 0.1986,-0.1986 1.961,-7.7607 3.9164,-16.8046 7.4612,-34.5076 10.5802,-45.455 19.2151,-67.4435 12.2822,-31.2758 30.354,-62.1021 52.7249,-89.93587 9.8231,-12.22188 30.6958,-33.86803 42.0886,-43.64826 4.6219,-3.9677 8.17,-7.59176 7.8847,-8.05348 -0.2854,-0.46172 0.1616,-0.57836 0.9933,-0.25921 1.1274,0.43262 1.4053,0.0254 1.0922,-1.60048 -0.3081,-1.60007 -0.098,-1.92497 0.7898,-1.22016 0.6653,0.52833 2.0448,0.82622 3.0655,0.66198 1.706,-0.27451 1.6858,-0.11771 -0.25,1.94288 -2.5253,2.68803 -2.8034,4.41859 -0.3994,2.48503 1.3671,-1.09959 1.294,-0.67661 -0.3676,2.12756 -30.5803,51.60709 -50.2746,109.73281 -58.2774,172.00001 -2.0292,15.789 -6.1604,53.3984 -7.6342,69.5 -1.8374,20.0739 -2.1484,21.3111 -2.3877,9.5 -0.1059,-5.225 -0.3814,-10.4 -0.6123,-11.5 -0.2309,-1.1 -0.4864,-15.05 -0.5679,-31 -0.183,-35.8423 1.5673,-52.2637 8.7931,-82.5 9.4993,-39.7495 30.463,-85.86239 53.8596,-118.47239 3.0671,-4.27486 5.3994,-7.94953 5.183,-8.16593 -0.5779,-0.5779 -10.3745,12.53174 -18.7061,25.0321 -27.936,41.91402 -48.6116,90.56822 -62.4871,147.04582 -4.7131,19.1834 -15.0185,63.6348 -17.0126,73.3819 -0.3737,1.8268 -0.8707,3.1304 -1.1043,2.8967 -0.6898,-0.6897 4.4963,-56.7587 6.1401,-66.3836 11.0314,-64.5911 39.2742,-123.06667 84.9254,-175.83461 l 8.6513,-10 -10.6111,11 c -33.5707,34.80132 -63.3321,81.12581 -84.4829,131.50001 -9.6834,23.0625 -33.0077,85.1682 -33.0077,87.8895 0,1.7722 5.2566,11.6672 10.9202,20.5559 5.4324,8.5259 6.6831,12.5254 5.6458,18.0546 -0.5386,2.8711 -1.0977,3.5 -3.1113,3.5 -1.3501,0 -2.4547,0.4723 -2.4547,1.0497 0,1.6548 3.0458,7.1682 5.7478,10.4043 2.0262,2.4268 2.3799,3.7206 1.9821,7.25 -0.5308,4.709 -0.3152,5.0241 1.913,2.796 2.0807,-2.0808 3.1628,-1.8753 3.5375,0.6717 0.2039,1.3856 1.4055,2.5255 3.3196,3.1493 1.65,0.5377 4.0732,1.8105 5.3849,2.8283 3.2541,2.5253 8.9074,2.3945 11.7454,-0.2717 z m 50.346,-33.1276 c -0.013,-0.6875 -1.3769,-8.9 -3.0309,-18.25 -4.744,-26.8179 -5.7697,-34.7476 -7.0672,-54.6358 -2.9888,-45.8146 5.5352,-97.2281 23.8518,-143.8642 5.6084,-14.27978 15.8846,-35.85278 20.2446,-42.5 3.7592,-5.73119 3.7325,-5.63103 -2.299,8.62838 -11.9467,28.24358 -21.2437,62.53982 -26.5311,97.87162 -4.3433,29.0229 -4.6463,35.3363 -4.5959,95.75 0.027,32.0375 -0.086,58.25 -0.25,58.25 -0.1643,0 -0.3092,-0.5625 -0.3223,-1.25 z M 1825.5,926 c 0.3399,-0.55 1.068,-1 1.618,-1 0.55,0 0.7219,0.45 0.382,1 -0.3399,0.55 -1.068,1 -1.618,1 -0.55,0 -0.7219,-0.45 -0.382,-1 z m 32.05,-20.87745 c 0.5225,-0.4826 5.9,-4.60374 11.95,-9.1581 45.2388,-34.05508 87.0568,-82.9521 119.7012,-139.96445 18.1686,-31.73075 27.1541,-47.53704 29.6776,-52.20549 3.1953,-5.91114 3.7895,-5.53119 1.3009,0.83176 -8.5148,21.77075 -18.27,44.84513 -23.1991,54.87373 C 1973.7273,806.81018 1938.4554,848.8194 1894,882.15104 1881.8296,891.27611 1859.3789,906 1857.6355,906 c -0.649,0 -0.6809,-0.32748 -0.086,-0.87745 z m -5.5023,-2.03461 c -0.7987,-0.52579 -1.8112,-0.73411 -2.25,-0.46294 -1.364,0.84304 -0.9102,-0.45145 2.6058,-7.43339 13.0879,-25.98899 26.3687,-65.91597 32.9939,-99.19161 7.0632,-35.47582 8.8404,-56.53253 11.267,-133.5 0.3989,-12.65 0.8607,-22.325 1.0263,-21.5 0.1657,0.825 1.653,13.59398 3.3052,28.37551 5.3922,48.24056 3.7136,85.8212 -5.5441,124.12449 -6.7537,27.94323 -14.8294,50.26711 -27.4928,76 -8.0334,16.32426 -10.5705,21.07414 -15.6693,29.33528 -1.4889,2.41237 -1.4912,2.52267 -0.024,1.16472 2.9506,-2.73091 17.7471,-28.25913 25.2133,-43.5 17.5218,-35.76759 30.884,-76.0823 38.4478,-116 1.1464,-6.05 2.5156,-13.25 3.0426,-16 2.0368,-10.62847 6.2845,-37.42988 8.9983,-56.77499 l 2.8371,-20.22501 0.089,27 c 0.091,27.44586 -0.725,41.66837 -3.4695,60.5 -7.7997,53.52027 -31.6607,110.00492 -65.5953,155.27939 -8.5563,11.41557 -11.6901,16.33653 -6.08,9.54734 1.5119,-1.8297 3.5748,-4.22673 4.5842,-5.32673 3.4239,-3.73126 15.6741,-20.42759 23.2454,-31.68221 19.5843,-29.11191 38.8552,-68.68856 52.2557,-107.31779 3.7866,-10.91535 17.9104,-59.22548 23.4629,-80.25418 2.2153,-8.3898 4.1898,-15.09212 4.3879,-14.89404 0.1981,0.19807 -0.2992,4.81245 -1.105,10.25418 -0.8059,5.44172 -2.1903,15.74404 -3.0765,22.89404 -7.1623,57.78708 -24.7957,104.85634 -57.5067,153.50468 -14.9217,22.19163 -46.8962,58.0929 -49.9492,56.08326 z m -14.9159,-5.66131 C 1824.8666,853.26034 1798.0183,800.88599 1766.171,759 c -11.8146,-15.53883 -33.7591,-41.82409 -54.421,-65.18586 -8.6625,-9.79444 -15.75,-18.06719 -15.75,-18.38391 0,-0.65704 0.6139,-0.14454 23.5764,19.68263 36.5472,31.55704 60.0103,59.56493 80.3247,95.8838 14.4136,25.76906 26.1176,55.12476 34.4885,86.50334 4.2981,16.11148 4.6521,13.31939 0.5887,-4.6428 -10.1449,-44.84575 -29.8157,-91.8563 -56.8472,-135.8572 -5.9158,-9.62954 -41.6081,-63.39747 -45.1398,-68 -3.551,-4.62758 -6.3395,-9 -5.7397,-9 0.5434,0 26.27,28.04235 34.862,38 39.9748,46.3287 68.8207,113.38881 76.7817,178.5 1.3365,10.93055 2.1648,26.721 1.2065,23 l -0.7726,-3 -0.4146,2.92663 c -0.3799,2.68158 -0.5292,2.51412 -1.7828,-2 z m 1.5305,-4.67663 c -0.2774,-0.6875 -0.5044,-0.125 -0.5044,1.25 0,1.375 0.227,1.9375 0.5044,1.25 0.2774,-0.6875 0.2774,-1.8125 0,-2.5 z m -5.1283,1.98211 c -22.6146,-52.15295 -61.8569,-105.03226 -111.034,-149.61883 -8.25,-7.4799 -16.35,-14.87527 -18,-16.43416 -1.65,-1.55889 -9.5062,-8.53692 -17.4581,-15.50673 -16.8432,-14.76283 -22.1354,-19.65312 -20.0215,-18.50102 7.9708,4.34429 56.4678,38.03072 61.6014,42.78887 0.617,0.57187 5.6902,5.08976 11.2739,10.03976 40.2136,35.65017 77.4019,92.79268 94.5707,145.31478 2.1306,6.51771 1.5659,7.67885 -0.9324,1.91733 z m 46.4356,284.79839 10.434,-10.4696 -2.0746,-3.7804 c -1.141,-2.0793 -4.6539,-8.2805 -7.8064,-13.7805 -25.6325,-44.7192 -38.883,-88.5826 -43.5858,-144.2831 -1.1574,-13.70827 -0.8009,-45.66538 0.6828,-61.2169 1.0749,-11.26537 -0.3651,-6.0677 -2.0778,7.5 -2.2585,17.89173 -3.0784,56.2029 -1.6265,76 2.843,38.7648 7.4328,64.072 19.8593,109.5 2.7833,10.175 6.7396,24.8 8.7916,32.5 3.7812,14.1882 5.2641,18.5 6.3622,18.5 0.334,0 5.3026,-4.7113 11.0412,-10.4695 z m 39.224,-44.0574 c 1.9398,-1.9399 4.3304,-5.3088 5.3125,-7.4866 l 1.7855,-3.9595 -4.2236,-5.2635 c -24.645,-30.7127 -41.9993,-60.2585 -55.3674,-94.2635 -8.5837,-21.8346 -16.4901,-50.11245 -19.7117,-70.5 -0.6518,-4.125 -1.5427,-9.3 -1.9799,-11.5 l -0.7948,-4 -0.1071,4.32684 c -0.059,2.37976 0.8307,10.47427 1.9769,17.98779 4.7527,31.15439 14.1966,65.34037 26.7093,96.68537 3.6622,9.1738 5.5652,13.4219 15.2312,34 3.0583,6.5108 9.5799,18.6958 17.6622,33 1.8646,3.3 4.3626,7.9125 5.551,10.25 1.1885,2.3375 2.6712,4.25 3.2949,4.25 0.6237,0 2.7212,-1.5871 4.661,-3.5269 z m 11.2646,-29.2231 c 0.3769,-2.6125 0.9281,-5.7676 1.2248,-7.0113 0.4037,-1.692 0.1742,-2.1211 -0.9115,-1.7045 -0.7981,0.3063 -2.0353,-0.1471 -2.7493,-1.0074 -1.0798,-1.3012 -1.0021,-1.8915 0.462,-3.5094 1.7033,-1.8821 1.5503,-2.1811 -4.7238,-9.2312 -8.0995,-9.1015 -20.446,-24.923 -26.7005,-34.2157 -20.379,-30.2784 -39.5108,-72.0905 -47.6193,-104.0705 -0.5116,-2.01793 -0.8922,-2.44616 -1.1627,-1.30814 -0.42,1.76708 5.9513,24.87544 10.4243,37.80814 14.2624,41.237 39.0167,88.2911 64.0505,121.75 2.9834,3.9875 5.7835,7.25 6.2223,7.25 0.4389,0 1.1063,-2.1375 1.4832,-4.75 z m 35.2133,-33.13 c 2.1717,-1.8137 6.3177,-7.9558 6.3248,-9.37 0,-0.4125 -0.7838,-0.7561 -1.7463,-0.7634 -0.9625,-0.01 -7.0435,-3.807 -13.5133,-8.4435 -32.0373,-22.9589 -61.5203,-53.0371 -83.8504,-85.5431 -10.0161,-14.5805 -23.5552,-37.66448 -22.6321,-38.58756 0.2435,-0.24343 2.1547,2.15169 4.2472,5.32248 7.1024,10.7621 20.0957,27.72622 29.6912,38.76508 10.3184,11.87045 35.5848,36.9837 45.3074,45.0328 3.3,2.7319 6.225,5.2084 6.5,5.5033 3.5409,3.7963 34.6026,26.9639 36.1516,26.9639 0.7279,0 3.289,-10.9242 2.6858,-11.456 -0.1856,-0.1636 -3.0374,-1.778 -6.3374,-3.5875 -10.0892,-5.5325 -33.4405,-21.2664 -44,-29.6468 -25.8079,-20.48211 -53.6909,-49.63344 -68.935,-72.07082 -3.371,-4.96169 -5.1867,-6.86175 -5.7338,-6 -0.6179,0.97342 -0.8041,0.93794 -0.8159,-0.15555 -0.01,-0.77916 -0.2771,-1.15484 -0.5971,-0.83483 -0.8958,0.89572 11.0414,23.8431 19.3781,37.2515 17.7266,28.51072 36.1085,52.0316 59.7037,76.3949 12.4803,12.8865 34.1633,33.1411 35.4041,33.0718 0.3278,-0.018 1.5731,-0.8493 2.7674,-1.8467 z m -295.5812,-4.87 c 34.2332,-60.8085 82.2486,-107.1673 144.4097,-139.42748 13.3225,-6.91407 15.8195,-8.94652 5.0455,-4.10688 -35.828,16.09387 -77.2196,43.73107 -109.0858,72.83671 -9.1584,8.36505 -28.7486,28.12555 -40.6313,40.98465 l -6.5026,7.0369 -0.6181,7.3727 c -0.7181,8.5652 1.5087,21.0534 3.7541,21.0534 0.2153,0 1.8481,-2.5875 3.6285,-5.75 z M 306.06358,1038.5021 c 33.17548,-4.3453 52.8028,-9.4651 90.58305,-23.6287 l 6.14662,-2.3043 6.90937,4.5944 c 33.04139,21.971 77.51694,28.2462 125.90048,17.7635 39.65752,-8.5922 74.65422,-31.1553 98.71378,-63.64296 3.34649,-4.51878 6.22621,-8.07429 6.39936,-7.90113 0.17315,0.17315 -3.51716,15.69655 -8.20071,34.49644 C 627.83199,1016.6792 624,1032.4973 624,1033.0305 c 0,1.5692 66.96126,1.2908 67.45773,-0.2805 0.35278,-1.1165 10.17209,-41.39029 27.49004,-112.75 6.65333,-27.41545 10.36711,-43.8513 16.04291,-71 11.03012,-52.7597 13.22529,-63.23421 14.98442,-71.5 1.05347,-4.95 2.20079,-10.4625 2.5496,-12.25 1.2695,-6.50555 2.24824,-2.95535 2.8947,10.5 1.87302,38.98524 5.10476,91.7624 6.10805,99.75 0.27633,2.2 1.18177,12.1 2.01208,22 0.83032,9.9 1.96124,23.175 2.51317,29.5 0.55193,6.325 1.42813,16.675 1.94712,23 0.519,6.325 1.37867,16.45 1.91038,22.5 0.53172,6.05 1.68108,19.775 2.55415,30.5 0.87306,10.725 1.82114,20.9625 2.10683,22.75 l 0.51945,3.25 h 28.39317 28.39317 l 35.64965,-71.25 C 898.31749,896.21084 909.6175,872.99838 931.1768,827 c 4.26224,-9.09383 28.06939,-63.23322 29.19557,-66.39313 1.3768,-3.8631 1.87264,-0.46411 0.74666,5.11836 -4.56803,22.64781 -12.60208,70.1409 -18.14687,107.27477 -5.80546,38.87962 -7.71846,50.71126 -11.07547,68.5 -1.66069,8.8 -3.41718,18.25 -3.90331,21 -1.07332,6.07174 -4.90796,26.66512 -9.54784,51.2754 -1.89505,10.0514 -3.44554,18.724 -3.44554,19.2724 0,0.66 57.04472,0.8943 168.75,0.693 156.8695,-0.2826 169.2076,-0.4269 175.25,-2.0506 17.518,-4.7073 26.7332,-9.3382 50.8221,-25.5398 18.6597,-12.54999 31.9617,-21.34776 105.1779,-69.56288 67.5959,-44.51401 79.0175,-51.90336 79.4922,-51.42862 0.2314,0.23138 1.3538,11.20278 2.4943,24.38089 1.1404,13.17812 2.9715,34.31021 4.069,46.96021 1.9851,22.87959 3.3589,39.73304 4.4833,55 0.324,4.4 0.7939,9.0125 1.0442,10.25 l 0.4551,2.25 h 37.981 c 33.9565,0 37.9809,-0.1675 37.9809,-1.5808 0,-1.5066 -5.4219,-49.487 -8.466,-74.9192 -1.3433,-11.2223 -3.3441,-28.31512 -5.5017,-47 -0.508,-4.4 -1.399,-12.05 -1.98,-17 -0.5809,-4.95 -2.865,-24.75 -5.0758,-44 -2.2108,-19.25 -5.3502,-46.475 -6.9765,-60.5 -1.6263,-14.025 -4.7761,-41.25 -6.9996,-60.5 -2.2235,-19.25 -4.244,-35.5625 -4.4902,-36.25 -0.3493,-0.9759 -10.7446,-1.25 -47.4065,-1.25 h -46.959 l -2.9838,6.25 c -1.6411,3.4375 -12.2966,25.15 -23.6788,48.25 -11.3822,23.1 -25.0966,51 -30.4763,62 -5.3798,11 -18.1896,37.09445 -28.4663,57.98766 l -18.685,37.98766 -4.1772,-8.01669 c -11.0996,-21.30146 -27.0776,-35.43217 -62.1773,-54.98883 -36.4501,-20.30903 -46.4253,-30.35978 -46.478,-46.82982 -0.039,-12.18229 7.2686,-22.38371 20.478,-28.58738 9.89,-4.64473 15.4491,-5.5526 34,-5.5526 22.2828,0 36.6872,2.86794 53.7628,10.70426 3.7195,1.70697 7.0318,2.83451 7.3606,2.50567 0.4827,-0.48271 16.3509,-41.72092 21.9195,-56.96439 l 1.3715,-3.75445 -3.7072,-1.57729 c -25.0277,-10.64838 -40.4689,-14.03325 -68.7072,-15.0613 -38.6298,-1.40636 -69.2744,6.32607 -96,24.22324 -8.0681,5.40291 -17.8328,14.075 -22.8575,20.29983 -1.4986,1.85656 -3.0099,3.09041 -3.3584,2.74189 -0.3485,-0.34853 0.1505,-4.56753 1.1089,-9.37557 0.9584,-4.80804 2.7735,-14.02939 4.0336,-20.49189 L 1183.7177,691 H 1060.3223 936.927 l -6.35039,13.25 c -3.49271,7.2875 -16.57229,33.95 -29.06575,59.25 -26.60407,53.87488 -37.16987,76.05944 -46.67428,98 -3.81207,8.8 -7.55215,17.35 -8.3113,19 -1.51457,3.29188 -12.8818,32.20599 -16.6782,42.42326 -1.31267,3.5328 -2.86895,6.58403 -3.45841,6.78052 -0.72755,0.24251 -1.29301,-6.79806 -1.76076,-21.92327 C 823.8157,881.51687 821.66123,850.87567 814.02607,757 c -1.05122,-12.925 -2.43051,-30.25 -3.06507,-38.5 -0.63457,-8.25 -1.44846,-17.7 -1.80865,-21 l -0.65488,-6 h -49.4876 -49.4876 l -15.01914,59.67467 c -8.26052,32.82107 -15.2897,59.94523 -15.62038,60.27592 -0.33069,0.33068 -0.90958,-2.44792 -1.28643,-6.17467 -2.31782,-22.92146 -10.77407,-47.17887 -22.61019,-64.8591 C 648.49271,730.71725 631.78596,713.8535 623,708.1301 c -15.54014,-10.12326 -35.70473,-17.71221 -56.5,-21.2638 -12.93641,-2.20938 -42.38736,-1.69305 -57,0.99933 -34.10287,6.28345 -62.35181,18.99097 -87,39.13614 -30.512,24.93771 -55.87881,69.89341 -65.45345,115.99823 -4.18034,20.12961 -5.19677,30.11978 -5.29068,52 -0.1055,24.58092 1.61683,36.45982 7.89972,54.48432 1.92017,5.50862 3.57069,10.88889 3.66781,11.95614 0.30412,3.34173 -17.19691,9.42475 -37.8234,13.14669 -11.41991,2.06066 -45.22128,2.40637 -54,0.55229 -27.07343,-5.71793 -46.39339,-19.17373 -57.68303,-40.17458 -16.54197,-30.77115 -14.77,-80.64861 4.24641,-119.5277 21.0423,-43.02105 61.73975,-67.56719 111.75898,-67.40597 9.59586,0.0309 31.15566,2.20026 34.32804,3.45407 1.23674,0.48879 2.84393,-1.05682 6.41219,-6.16649 10.9128,-15.62688 16.54004,-22.45049 28.13792,-34.12012 l 12.22572,-12.30135 -4.21312,-1.8034 c -7.3034,-3.12618 -21.76123,-6.98517 -34.71311,-9.26539 -10.47664,-1.84445 -16.38485,-2.20903 -36.5,-2.25233 -29.38709,-0.0632 -45.4724,1.97864 -68,8.632 -46.41349,13.70788 -86.48844,43.05303 -112.21975,82.17367 -10.33734,15.7164 -21.50023,41.85777 -25.84075,60.51418 -7.24092,31.12286 -8.33849,66.77464 -2.89077,93.8994 4.86854,24.2409 16.25909,46.79737 32.73527,64.82493 19.11664,20.91664 53.91452,37.89124 87.716,42.78844 13.14407,1.9043 44.85457,1.9544 59.06358,0.093 z m 176.70428,-61.96189 c -27.12348,-5.93774 -43.85478,-24.27919 -50.94732,-55.85029 -2.74085,-12.20039 -2.96518,-38.33854 -0.4608,-53.68992 9.51775,-58.3419 40.60667,-104.74117 78.12,-116.59172 10.86853,-3.43339 19.47251,-4.35923 30.36125,-3.26704 16.84541,1.68966 28.36828,6.91133 39.23698,17.7805 15.90303,15.90372 21.73194,35.89515 20.63369,70.76745 -0.42985,13.64875 -1.15711,20.61499 -3.1122,29.81081 -10.69786,50.31775 -37.65234,91.93091 -69.07056,106.63327 -3.71691,1.73935 -9.51896,3.75511 -12.89346,4.47947 -7.61989,1.63565 -24.2374,1.59783 -31.86758,-0.0725 z M 1196,974.49754 c -16.6597,-2.51528 -32.3527,-7.30194 -47.8975,-14.60963 -11.366,-5.34322 -12.1025,-5.55506 -12.1025,-3.48113 0,0.77373 -1.3312,4.37373 -2.9582,8 L 1130.0836,971 h -64.5418 c -60.8032,0 -64.5416,-0.10137 -64.5378,-1.75 0,-0.9625 1.3784,-8.95 3.0583,-17.75 1.6799,-8.8 3.4511,-18.25 3.9361,-21 1.1433,-6.4832 3.6108,-19.46246 6.0565,-31.85806 1.0698,-5.42193 1.9451,-10.03443 1.9451,-10.25 0,-0.21557 27.4012,-0.39194 60.8916,-0.39194 h 60.8916 l 0.5463,-2.25 c 0.3005,-1.2375 2.8522,-14.175 5.6705,-28.75 2.8183,-14.575 5.37,-27.5125 5.6705,-28.75 l 0.5463,-2.25 h -61.1084 C 1028.6575,826 1028,825.9785 1028,823.9991 c 0,-1.1005 2.679,-15.613 5.9534,-32.25 3.2744,-16.63701 6.2494,-31.9366 6.6113,-33.9991 l 0.6579,-3.75 h 61.5053 c 58.1198,0 61.475,0.0963 60.9543,1.75 -0.3031,0.9625 -1.7123,4.8267 -3.1317,8.58712 -8.0213,21.25114 -6.9913,47.86648 2.5927,66.99151 10.7269,21.40576 31.3281,39.54138 68.1715,60.01254 30.7735,17.09854 40.0503,27.5394 40.1431,45.17986 0.037,7.09392 -0.3377,8.7927 -3.2445,14.69736 -7.8693,15.98476 -27.0664,24.93453 -52.9211,24.67205 -5.9357,-0.0603 -14.6172,-0.68707 -19.2922,-1.3929 z M 1424.0008,877.25 c 5e-4,-0.9625 6.5645,-16.15 14.5866,-33.75 8.0222,-17.6 15.4006,-33.8 16.3966,-36 2.8688,-6.3368 26.6506,-63.7563 27.4392,-66.25 0.3914,-1.2375 1.0989,-2.25 1.5722,-2.25 0.9296,0 1.6093,5.35179 2.4769,19.5 2.0682,33.72887 2.9382,45.10273 6.0432,79 1.9145,20.9 3.4817,38.7875 3.4827,39.75 0,1.63429 -2.3785,1.75 -35.9982,1.75 -33.6194,0 -35.9999,-0.11573 -35.9992,-1.75 z m 246.8078,145.4806 c 21.5614,-25.33856 52.1634,-50.72931 84.6182,-70.20831 16.3514,-9.81397 49.2638,-25.20021 61.5732,-28.78492 1.925,-0.56059 2.9659,-1.20887 2.3131,-1.44062 -1.6698,-0.59278 -25.42,7.92618 -40.3131,14.45992 -32.0741,14.07117 -62.5948,32.09729 -92.5,54.63228 -9.7242,7.32762 -28.6673,22.93805 -35.3476,29.12885 -1.6031,1.4856 -0.7813,3.3457 4.7658,10.7872 l 3.5818,4.8049 2,-2.3952 c 1.1,-1.3173 5.2889,-6.2602 9.3086,-10.9841 z m -15.9621,-18.5717 c 42.0493,-38.51061 95.1674,-66.9996 151.6535,-81.3367 4.95,-1.2564 8.0439,-2.42928 6.8753,-2.60641 -2.976,-0.45109 -28.537,5.83946 -43.9648,10.81972 -39.9852,12.90762 -79.0377,31.87381 -118.9105,57.74993 -14.7797,9.5915 -13.8867,8.04429 -9.6318,16.68946 1.9975,4.0584 3.7877,7.4118 3.9783,7.452 0.1906,0.04 4.6906,-3.9054 10,-8.768 z m 330.904,-19.13096 c 0.728,-1.1658 1.8537,-1.73332 2.7533,-1.38812 1.4501,0.55645 4.4962,-1.16044 4.4962,-2.53421 0,-0.35723 -3.0375,-1.21881 -6.75,-1.91464 -29.9177,-5.60741 -67.7629,-18.92263 -95.8017,-33.70627 -14.1363,-7.45345 -31.8744,-18.39196 -31.0925,-19.1738 0.2428,-0.24284 5.7746,2.17931 12.2928,5.38254 35.6109,17.50009 75.7221,30.51687 116.2145,37.71359 l 13.363,2.37502 5.8162,-4.64102 5.8162,-4.64103 -20.1792,-1.6484 c -11.0986,-0.90662 -26.0293,-2.63983 -33.1793,-3.85157 -31.8489,-5.39759 -69.1086,-17.27928 -95.8415,-30.56279 -4.9342,-2.45179 -9.2009,-4.22818 -9.4816,-3.94752 -0.2806,0.28065 0.1273,0.51717 0.9064,0.52559 1.082,0.0117 1.1217,0.20265 0.1678,0.80831 -1.2322,0.78243 0.4516,2.18579 12.7246,10.60579 15.0384,10.31718 52.7499,30.16279 71.5243,37.63956 13.2017,5.25748 40.8567,14.82525 43.0095,14.87996 1.1052,0.0281 2.5636,-0.83636 3.241,-1.92099 z M 1856.5,925 c -0.3399,-0.55 -0.168,-1 0.382,-1 0.55,0 1.2781,0.45 1.618,1 0.3399,0.55 0.168,1 -0.382,1 -0.55,0 -1.2781,-0.45 -1.618,-1 z m 185.5497,24.47432 C 2043.7854,948.57671 2045,947.14645 2045,946 c 0,-1.1109 1.1822,-2.56616 2.75,-3.38504 3.2935,-1.72027 8.8392,-7.35912 8.0317,-8.16659 -0.3149,-0.31488 -4.0313,0.14193 -8.2587,1.01513 -22.075,4.5597 -33.9069,5.76358 -61.523,6.25981 -29.2411,0.52544 -45.9224,-0.63487 -69.4793,-4.8328 -13.9126,-2.47929 -38.5211,-8.82998 -50.1224,-12.93506 -11.1075,-3.93035 -14.2538,-4.63698 -8.3983,-1.88617 5.7304,2.69204 34.5244,12.25715 44.7222,14.85632 21.1172,5.38226 47.4017,9.92406 69.7778,12.05718 16.6474,1.587 18.2354,1.65457 43.2997,1.84251 19.1779,0.1438 23.8215,-0.0952 26.25,-1.35097 z m -208.3666,-4.66182 c -0.3192,-0.79773 -0.5562,-0.56078 -0.6042,0.60417 -0.043,1.05416 0.193,1.64479 0.5253,1.3125 0.3323,-0.33229 0.3678,-1.1948 0.079,-1.91667 z m 13.8725,-7.36806 c -0.3765,-2.00684 -0.9346,-3.39881 -1.2401,-3.09325 -0.3056,0.30555 -0.2475,2.19752 0.1289,4.20437 0.3765,2.00684 0.9346,3.39881 1.2401,3.09325 0.3056,-0.30555 0.2475,-2.19752 -0.1289,-4.20437 z m -8.8933,-2.69444 c -0.2774,-0.6875 -0.5044,-0.125 -0.5044,1.25 0,1.375 0.227,1.9375 0.5044,1.25 0.2774,-0.6875 0.2774,-1.8125 0,-2.5 z M 2004.5,930.90722 c 18.204,-1.69277 44.9342,-5.35772 54.2211,-7.43421 3.7717,-0.84332 4.3485,-3.44761 2.2036,-9.94936 -1.0648,-3.22754 -2.0661,-5.99839 -2.2252,-6.15745 -0.159,-0.15906 -5.894,1.52325 -12.7443,3.73848 -52.2947,16.91075 -109.2934,21.19078 -164.6944,12.36688 -9.7649,-1.55528 -11.8717,-1.74916 -11.1485,-1.02592 0.3987,0.39868 3.9787,1.15315 21.3877,4.50731 28.0356,5.40158 78.46,7.16611 113,3.95427 z M 1839.6623,927.75 c -0.2774,-0.6875 -0.5044,-0.125 -0.5044,1.25 0,1.375 0.227,1.9375 0.5044,1.25 0.2774,-0.6875 0.2774,-1.8125 0,-2.5 z m -6.2653,-3.58333 c 0.2833,-0.45834 -0.1204,-0.83334 -0.897,-0.83334 -0.7766,0 -1.1803,0.375 -0.897,0.83334 0.2833,0.45833 0.6869,0.83333 0.897,0.83333 0.2101,0 0.6137,-0.375 0.897,-0.83333 z m -6.4803,-3.80735 c 1.0035,-0.86538 -3.5663,-0.22744 -4.9167,0.68637 -1.0955,0.74131 -0.6909,0.83408 1.5,0.34401 1.65,-0.36908 3.1875,-0.83275 3.4167,-1.03038 z M 1867.5,921 c -1.1,-0.47269 -2.9,-0.8462 -4,-0.83003 -1.6078,0.0236 -1.5097,0.1864 0.5,0.83003 3.4192,1.09501 6.0482,1.09501 3.5,0 z m 92,-2.4315 c 11.4901,-1.42622 30.2958,-4.35962 42,-6.55139 13.6508,-2.55629 42.8276,-10.26948 53.9158,-14.25321 3.1342,-1.12606 4.0017,-1.99132 4.3467,-4.33537 0.597,-4.05682 0.5624,-14.43692 -0.05,-15.04948 -0.2771,-0.27712 -4.4883,1.49314 -9.3581,3.93392 -26.3505,13.2069 -62.2292,25.62332 -86.1004,29.79652 -30.3589,5.30738 -56.9768,7.3692 -83.7539,6.4876 -9.35,-0.30784 -16.5483,-0.34254 -15.9962,-0.0771 5.7082,2.74418 73.002,2.77856 94.9962,0.0485 z M 1858.5,919 c -1.6666,-0.71616 -1.4165,-0.89385 1.5,-1.0659 2.6152,-0.15427 2.9055,-0.31939 1.1483,-0.65316 -1.2935,-0.24569 -3.5435,-0.13284 -5,0.25076 -2.4575,0.64721 -2.5042,0.7562 -0.6483,1.5126 2.7396,1.11657 5.6031,1.07428 3,-0.0443 z m -1.5,-9.39301 c 0,-0.21616 -0.6984,-0.661 -1.5519,-0.98855 -0.89,-0.34149 -1.2914,-0.17385 -0.941,0.39301 0.5872,0.95021 2.4929,1.40545 2.4929,0.59554 z m -31.4176,-7.89052 c -4.5258,-3.71585 -9.1755,-7.05371 -23.0824,-16.56986 -34.8791,-23.86696 -82.6986,-45.69341 -127,-57.96706 C 1652.495,820.80604 1641.9003,818 1640.8409,818 c -0.7133,0 -0.88,1.35428 -0.4768,3.87544 0.4852,3.03404 0.172,4.44454 -1.4422,6.4967 -1.134,1.44169 -1.9179,3.63524 -1.7419,4.87456 0.2773,1.95249 0.9875,2.28777 5.32,2.51148 9.7997,0.50602 30.8098,3.30477 43.7504,5.82799 37.8748,7.38498 77.9403,23.0056 113.1813,44.12674 7.1766,4.30115 24.4418,15.95982 26.5326,17.91664 0.8053,0.75375 1.9303,1.35536 2.5,1.33692 0.5696,-0.0184 -0.7272,-1.48094 -2.8819,-3.25 z m 18.1106,-5.44744 c -0.2536,-0.97297 -0.4777,-0.41903 -0.4981,1.23097 -0.02,1.65 0.1871,2.44606 0.461,1.76903 0.274,-0.67703 0.2906,-2.02703 0.037,-3 z m 1.9901,1.54347 c -0.3192,-0.79773 -0.5562,-0.56078 -0.6042,0.60417 -0.043,1.05416 0.193,1.64479 0.5253,1.3125 0.3323,-0.33229 0.3678,-1.1948 0.079,-1.91667 z M 1404.7092,613.47705 c 2.1416,-0.89484 3.2626,-1.87964 2.7179,-2.3878 -5.6298,-5.25201 -42.3086,-33.62343 -54.0365,-41.79778 -35.7731,-24.93378 -82.3362,-47.79146 -128.3906,-63.02645 -16.239,-5.37194 -23.093,-6.68379 -24.8027,-4.74724 -0.477,0.54022 -0.6668,3.17484 -0.4218,5.85472 0.3394,3.71288 0.8951,4.9901 2.3349,5.36663 1.0393,0.27177 1.8896,1.37197 1.8896,2.44489 0,1.51817 0.4594,1.80495 2.0717,1.29323 2.4542,-0.77893 5.9283,1.93474 5.9283,4.63068 0,3.2064 2.021,6.34239 5.5951,8.68184 1.924,1.25937 3.7808,3.05937 4.1262,4 0.3454,0.94063 1.8994,3.27526 3.4534,5.18807 1.9724,2.42793 2.8253,4.60241 2.8253,7.20295 0,6.96169 0.8363,7.64414 24.2875,19.81921 25.7071,13.34629 47.6522,25.75083 66.7125,37.70946 l 13.5,8.47006 6.5,-1.52607 c 8.8084,-2.06804 11.8441,-2.5277 23.5916,-3.57217 12.0089,-1.06772 19.4648,0.11497 29.9084,4.74419 8.2606,3.66162 7.6093,3.57351 12.2092,1.65158 z m 27.9633,-13.21655 c 1.1949,-0.76396 5.0787,-1.49677 8.6307,-1.62845 5.7125,-0.21179 6.8117,-0.59311 9.5216,-3.30296 3.3507,-3.35072 8.0373,-4.85552 18.4252,-5.91611 3.7125,-0.37905 6.75,-1.14193 6.75,-1.6953 0,-1.91989 -73.5659,-74.40571 -85.9538,-84.6918 -49.8707,-41.4095 -103.1179,-71.01351 -164.7664,-91.6058 C 1205.1647,404.7011 1202,404.03103 1202,406.49101 c 0,0.82006 -2.25,5.81795 -5,11.10643 -2.75,5.28847 -5,9.97879 -5,10.42292 0,0.44413 3.0375,2.49692 6.75,4.56175 35.9955,20.02012 97.1624,59.38836 131.75,84.79682 29.6934,21.81316 42.4197,32.72469 73.2778,62.8283 24.2369,23.64434 23.7771,23.32524 28.8947,20.05327 z"
         id="path3" />
      <path
         style="fill:#06cafa"
         d="m 1736.8849,1225.1493 c -1.3117,-1.0178 -3.7349,-2.2906 -5.3849,-2.8283 -1.9141,-0.6238 -3.1157,-1.7637 -3.3196,-3.1493 -0.3747,-2.547 -1.4568,-2.7525 -3.5375,-0.6717 -2.2282,2.2281 -2.4438,1.913 -1.913,-2.796 0.3978,-3.5294 0.044,-4.8232 -1.9821,-7.25 -2.702,-3.2361 -5.7478,-8.7495 -5.7478,-10.4043 0,-0.5774 1.1046,-1.0497 2.4547,-1.0497 2.0136,0 2.5727,-0.6289 3.1113,-3.5 1.0373,-5.5292 -0.2134,-9.5287 -5.6458,-18.0546 -5.6636,-8.8887 -10.9202,-18.7837 -10.9202,-20.5559 0,-2.7213 23.3243,-64.827 33.0077,-87.8895 21.1508,-50.3742 50.9122,-96.69868 84.4829,-131.5 l 10.6111,-11 -8.6513,10 c -45.6512,52.76794 -73.894,111.2435 -84.9254,175.8346 -1.6438,9.6249 -6.8299,65.6939 -6.1401,66.3836 0.2336,0.2337 0.7306,-1.0699 1.1043,-2.8967 1.9941,-9.7471 12.2995,-54.1985 17.0126,-73.3819 13.8755,-56.4776 34.5511,-105.13179 62.4871,-147.04581 8.3316,-12.50036 18.1282,-25.61 18.7061,-25.0321 0.2164,0.2164 -2.1159,3.89107 -5.183,8.16593 -23.3966,32.61 -44.3603,78.72288 -53.8596,118.47238 -7.2258,30.2363 -8.9761,46.6577 -8.7931,82.5 0.082,15.95 0.337,29.9 0.5679,31 0.2309,1.1 0.5064,6.275 0.6123,11.5 0.2393,11.8111 0.5503,10.5739 2.3877,-9.5 1.4738,-16.1016 5.605,-53.711 7.6342,-69.5 8.0028,-62.2672 27.6971,-120.39291 58.2774,-172 1.6616,-2.80417 1.7347,-3.22715 0.3676,-2.12756 -2.404,1.93356 -2.1259,0.203 0.3994,-2.48503 1.9358,-2.06059 1.956,-2.21739 0.25,-1.94288 -1.0207,0.16424 -2.4002,-0.13365 -3.0655,-0.66198 -0.8876,-0.70481 -1.0979,-0.37991 -0.7898,1.22016 0.3131,1.62584 0.035,2.0331 -1.0922,1.60048 -0.8317,-0.31915 -1.2787,-0.20251 -0.9933,0.25921 0.2853,0.46172 -3.2628,4.08578 -7.8847,8.05348 -11.3928,9.78023 -32.2655,31.42638 -42.0886,43.64826 -22.3709,27.83376 -40.4427,58.66006 -52.7249,89.93586 -8.6349,21.9885 -11.7539,32.9359 -19.2151,67.4435 -1.9554,9.0439 -3.7178,16.606 -3.9164,16.8046 -0.1986,0.1986 -2.2118,-3.4623 -4.4737,-8.1354 -3.4928,-7.2162 -5.0166,-9.1922 -10.1121,-13.1131 -3.2997,-2.5391 -5.9972,-5.3777 -5.9943,-6.308 0,-0.9304 2.7076,-6.8666 6.0107,-13.1916 3.303,-6.325 9.2037,-17.8 13.1126,-25.5 19.3397,-38.097 44.6692,-76.3066 69.274,-104.5 9.5091,-10.89609 34.3077,-35.32743 44.3737,-43.71664 5.6519,-4.7104 10.0292,-8.81127 9.7275,-9.11304 -1.456,-1.45595 -31.6983,21.69459 -47.8814,36.65318 -44.5673,41.1953 -75.7474,89.7974 -94.5796,147.4265 -1.2132,3.7125 -2.6249,6.75 -3.1372,6.75 -1.5923,0 -4.608,-8.0284 -7.3246,-19.5 -1.4327,-6.05 -2.5995,-11.5959 -2.5929,-12.3241 0.012,-1.3457 18.8521,-29.5047 28.8869,-43.1759 34.3325,-46.77375 78.0293,-87.96888 121.8063,-114.83284 5.7447,-3.52521 8.7391,-5.9153 8,-6.38532 -0.8297,-0.52768 -0.7349,-0.76033 0.3188,-0.78184 1.3333,-0.0272 1.3333,-0.14902 0,-1.0962 -1.1376,-0.80811 -0.7752,-0.90812 1.5,-0.41392 2.2162,0.48139 2.7114,0.35763 1.8954,-0.47371 -0.8184,-0.83374 -2.8407,-0.82302 -7.8045,0.0414 -7.9779,1.38929 -10.0868,0.58007 -2.4189,-0.9282 4.7105,-0.92654 4.1689,-0.98795 -4.672,-0.52989 -15.1577,0.78535 -38.2869,4.74556 -58.2014,9.96529 -40.5787,10.63599 -80.9652,29.7013 -114.738,54.16449 l -10.8778,7.87928 -6.0012,-6.45082 c -5.7128,-6.14085 -5.9094,-6.51984 -4.0914,-7.88694 2.9706,-2.23377 37.5751,-18.91277 50.644,-24.40987 46.7264,-19.65424 97.5666,-32.20156 140.0505,-34.56438 5.9316,-0.32989 11.0206,-0.98157 11.309,-1.44816 0.2884,-0.4666 -7.3049,-0.84836 -16.8741,-0.84836 -63.9817,0 -128.9517,17.36844 -179.2196,47.91083 l -10,6.07593 -0.6317,-2.74338 c -0.8902,-3.86618 -0.8736,-14.37111 0.026,-16.66819 0.8356,-2.1329 14.0868,-7.07601 41.6053,-15.52015 48.5746,-14.90525 96.7749,-21.87207 144.4172,-20.87387 12.4205,0.26023 20.5578,0.13465 18.0828,-0.27907 -66.2528,-11.07471 -133.0846,-3.93913 -191.1078,20.40446 l -10.6077,4.45048 1.8428,-4.84987 c 1.0135,-2.66743 2.4123,-9.47527 3.1083,-15.12852 l 1.2655,-10.27865 10.9995,-2.77014 c 24.9694,-6.28839 52.7733,-9.63428 81.9994,-9.8677 12.8887,-0.10293 16.4382,-0.35965 12.5,-0.90406 -14.8509,-2.05296 -68.1413,-0.78124 -89.8055,2.14311 -4.568,0.61662 -8.5387,0.88792 -8.8237,0.60289 -1.0316,-1.03155 2.7082,-6.66254 6.1871,-9.31606 4.0092,-3.05799 5.8692,-6.19836 6.8357,-11.54149 0.3634,-2.0094 1.2111,-3.84739 1.8836,-4.08443 2.0216,-0.71255 35.2627,1.12724 49.7228,2.75199 40.9378,4.59982 81.3275,14.5586 113.5,27.98536 4.4,1.83628 9.8,4.09185 12,5.01237 4.7212,1.97544 3.6612,0.61125 -2,-2.5739 -14.9151,-8.3917 -38.2324,-18.71007 -56,-24.78108 -32.3513,-11.05409 -59.7585,-16.27257 -96.25,-18.32654 -20.791,-1.17024 -21.25,-1.24308 -21.25,-3.37247 0,-1.19701 -1.5706,-4.15222 -3.4903,-6.56712 -5.4303,-6.83121 -6.7971,-6.54473 15.9903,-3.35135 54.6807,7.66284 114.9994,27.92532 158.8845,53.37303 4.8865,2.83353 9.1201,4.91632 9.408,4.62841 0.2879,-0.28791 1.0748,-0.0659 1.7487,0.49338 0.8745,0.72579 1.4222,0.50862 1.9134,-0.75868 0.6472,-1.66969 0.7734,-1.65982 2.1168,0.16561 0.7857,1.06762 1.4779,1.74262 1.5382,1.5 0.06,-0.24262 0.2372,-1.99439 0.3932,-3.89282 0.269,-3.27591 0.2202,-3.3336 -0.9577,-1.13266 -1.066,1.99185 -1.3314,2.08352 -1.8816,0.64975 -0.4112,-1.07137 -0.2481,-1.42673 0.4551,-0.99211 1.7554,1.0849 0.1421,-3.09575 -5.4307,-14.07329 -16.9827,-33.45276 -36.6282,-60.43877 -64.1551,-88.12651 -27.8405,-28.00324 -52.9528,-45.92623 -91.5328,-65.32841 -6.875,-3.45749 -17.1498,-8.74474 -22.8329,-11.74944 -5.6832,-3.0047 -10.4741,-5.31292 -10.6465,-5.12937 -0.1725,0.18355 3.3345,2.80873 7.7932,5.83373 9.3005,6.30996 51.8095,35.55433 62.0725,42.70322 27.1631,18.92106 64.9049,54.09264 86.1848,80.31548 13.1713,16.2308 27.7195,36.79766 34.2938,48.4813 2.4843,4.41506 2.2139,4.06396 -9.6039,-12.47181 -21.156,-29.60205 -45.9709,-55.06934 -74.761,-76.72632 -29.5954,-22.26283 -57.3668,-36.60673 -98,-50.61699 -8.8,-3.03422 -19.0948,-6.69729 -22.8773,-8.14016 -3.7826,-1.44286 -7.0111,-2.4897 -7.1745,-2.32629 -0.1634,0.1634 13.7314,7.45145 30.8774,16.19566 48.9764,24.97735 71.2138,38.11563 97.7622,57.75967 27.6951,20.49259 55.1255,46.07988 74.3201,69.32624 5.9037,7.15 11.1533,13.76019 11.6658,14.68931 1.7952,3.25485 -0.6369,2.59726 -5.0849,-1.37489 -19.3633,-17.29151 -31.1225,-26.62799 -45.9888,-36.5139 -26.6777,-17.74028 -53.0631,-30.80966 -82,-40.61677 -19.6744,-6.66789 -32.5843,-9.83282 -58.8395,-14.42479 -4.137,-0.72356 -4.4548,-1.03252 -6.813,-6.62466 -1.3604,-3.22613 -4.0202,-8.11413 -5.9105,-10.86221 -3.1139,-4.52682 -4.4614,-8.77209 -2.7844,-8.77209 1.1487,0 45.3802,17.10687 58.7771,22.73249 38.0124,15.96218 70.0295,34.0848 101.0703,57.20871 7.15,5.32641 13.6781,10.33113 14.5068,11.12159 0.8288,0.79047 4.2038,3.68598 7.5,6.43448 3.2963,2.74849 10.1557,9.00213 15.2432,13.89696 5.0875,4.89484 9.25,8.54616 9.25,8.11406 0,-1.57737 -11.5174,-14.80114 -23.3588,-26.81965 -45.886,-46.57206 -100.5651,-78.13981 -161.1412,-93.03126 -5.5,-1.35207 -12.25,-2.76039 -15,-3.12961 -8.772,-1.17772 -9.1404,-1.38351 -10.4766,-5.85203 -2.9415,-9.83676 -6.0808,-13.98722 -23.581,-31.17574 l -17.3083,-17 -5.567,-11.39797 C 1571.5052,707.83315 1569,702.12598 1569,701.41942 c 0,-0.70655 0.7886,-1.53494 1.7525,-1.84086 2.5944,-0.82344 4.2875,-4.12073 4.9386,-9.6179 0.5254,-4.43642 0.7553,-4.79212 2.4954,-3.86085 1.0542,0.56417 2.906,0.87214 4.1151,0.68437 2.0231,-0.31418 1.9489,-0.4757 -0.9304,-2.02581 -1.7209,-0.92642 -3.38,-2.3388 -3.6869,-3.13863 -1.2747,-3.32181 2.5336,-2.12019 9.9367,3.13527 9.5978,6.81341 29.496,19.4613 29.9319,19.02547 0.1738,-0.1738 -6.742,-5.81638 -15.3685,-12.53907 C 1585.0709,677.90464 1581,674.47167 1581,673.37671 c 0,-0.39558 -0.7183,-1.51291 -1.5962,-2.48297 -1.4649,-1.61879 -1.4349,-2.20059 0.3659,-7.07874 1.0792,-2.92325 2.272,-7.115 2.6508,-9.315 0.3788,-2.2 1.3806,-6.82814 2.2263,-10.28476 l 1.5376,-6.28475 -2.583,-3.38642 c -1.9553,-2.5636 -2.4392,-4.10502 -1.9914,-6.34396 0.3416,-1.70802 0.1264,-3.24497 -0.5093,-3.63785 -0.6054,-0.37416 -1.1007,-0.20374 -1.1007,0.37872 0,1.35189 -3.5521,1.36912 -6.0554,0.0294 -1.0581,-0.56631 -2.6151,-2.36631 -3.4599,-4 -0.8448,-1.6337 -2.221,-2.97036 -3.0581,-2.97036 -0.8372,0 -2.6158,-1.18012 -3.9525,-2.62248 l -2.4305,-2.62248 -1.0446,2.74752 c -0.9883,2.59943 -1.2994,2.71481 -5.7718,2.14057 -2.6,-0.33383 -6.2075,-0.89377 -8.0166,-1.24433 -2.3401,-0.45343 -3.8113,-0.16514 -5.0975,0.99888 -0.9945,0.89994 -4.2173,2.26121 -7.162,3.02505 l -5.3539,1.38878 -6.2986,-6.08157 c -5.2718,-5.09019 -6.2986,-6.62857 -6.2986,-9.43714 0,-1.9386 -0.5856,-3.5803 -1.3869,-3.88777 -0.7628,-0.2927 -2.9003,-2.76736 -4.75,-5.49923 -2.4224,-3.57776 -4.8019,-5.6519 -8.507,-7.41555 -4.3506,-2.07085 -7.2082,-4.95811 -18.5272,-18.71938 -7.3607,-8.94898 -19.8959,-24.55814 -27.856,-34.68702 -36.3607,-46.26749 -62.3161,-72.93852 -114.2444,-117.39422 -27.9034,-23.88798 -86.1806,-69.11052 -116.9546,-90.75547 -4.2493,-2.98879 -7.7368,-5.80308 -7.75,-6.25398 -0.013,-0.45091 1.3791,-2.85905 3.0939,-5.35144 3.7497,-5.44996 2.899,-5.51537 23.0472,1.77226 64.1559,23.20537 119.4216,55.84782 169.835,100.31239 2.475,2.18295 11.4971,10.97046 20.0491,19.5278 16.9044,16.91492 31.9025,34.63991 55.9509,66.12365 19.117,25.02766 56.58,72.06478 68.5289,86.04228 31.0404,36.31026 63.8262,68.87338 84.9711,84.39397 2.2,1.61483 -3.8804,-5.14981 -13.5121,-15.03252 -25.3596,-26.02064 -47.378,-53.20591 -73.6789,-90.96857 -9.2709,-13.31112 -30.2725,-45.22333 -35.2652,-53.58586 -0.8491,-1.42222 -5.3688,-8.75241 -10.0438,-16.28931 -4.675,-7.53689 -13.1304,-21.17263 -18.7897,-30.30163 -26.8349,-43.28686 -61.504,-85.29442 -115.8452,-140.36648 -23.03,-23.33964 -45.7048,-45.50632 -60.8422,-59.47851 -7.1374,-6.58802 -15.4079,-14.26188 -18.379,-17.05304 l -5.402,-5.07483 3.3791,-1.74013 c 1.8584,-0.95707 4.5535,-2.46535 5.9889,-3.35173 2.5371,-1.56661 2.9838,-1.42998 16,4.89303 13.5163,6.56593 41.0518,21.88108 43.9688,24.4553 0.8683,0.76626 1.8802,1.39319 2.2487,1.39319 1.1751,0 24.6817,15.89039 36.1262,24.42118 21.2152,15.81406 45.4283,36.72732 59.5464,51.43122 7.985,8.31634 23.4193,25.50652 27.5159,30.64626 2.1912,2.74926 4.5791,5.62645 5.3064,6.39375 8.4551,8.92038 29.9642,40.98243 46.6968,69.60759 58.4956,100.07057 91.0195,148.18329 125.8006,186.09721 12.1523,13.24683 16.3164,16.49522 8.0146,6.25201 -28.4119,-35.05574 -53.786,-76.46335 -83.5532,-136.34922 -10.1914,-20.50331 -28.4681,-59.56868 -34.8547,-74.5 -16.48,-38.52919 -51.1967,-94.77589 -92.2746,-149.5 -30.6182,-40.78981 -75.8575,-96.30559 -93.4306,-114.65431 -2.4516,-2.55987 -4.1528,-5.14737 -3.7803,-5.75 1.4454,-2.33881 2.6932,-1.80145 23.5591,10.14578 8.2088,4.70015 30.4634,19.72806 42.5,28.69916 39.3005,29.29129 77.496,67.31292 106.5782,106.09297 24.7563,33.01162 43.0694,66.17572 64.8645,117.4664 6.7777,15.95 13.3362,31.25 14.5745,34 1.2383,2.75 3.7157,8.375 5.5054,12.5 20.3011,46.7926 44.8938,95.13845 62.7381,123.33464 6.9312,10.95213 23.0728,33.85653 25.487,36.16536 1.2805,1.2245 1.6581,1.89335 -8.9593,-15.86704 -25.4705,-42.60587 -51.1556,-104.41273 -75.3658,-181.35505 -15.4287,-49.03372 -18.7138,-58.8418 -24.7108,-73.77791 -16.5264,-41.16064 -40.3224,-88.00586 -71.6239,-141 -3.8983,-6.6 -7.5379,-12.78466 -8.0879,-13.74369 -2.1486,-3.74652 -9.9435,-16.50939 -12.9823,-21.25631 -1.7604,-2.75 -7.173,-11.3 -12.028,-19 -4.8551,-7.7 -11.9293,-18.63906 -15.7205,-24.30901 -7.2331,-10.81742 -8.0012,-13.69099 -3.66,-13.69099 1.4112,0 3.7478,-0.62992 5.1925,-1.39981 3.0369,-1.61845 3.3364,-1.4096 23.6983,16.52783 50.3738,44.37583 89.9112,94.98748 118.8776,152.17481 14.3053,28.2424 24.8496,55.91034 35.1364,92.19717 11.1841,39.45198 27.1671,91.53678 36.3635,118.5 12.6962,37.22473 22.6722,61.56685 35.6582,87.00919 12.2931,24.08468 18.8398,33.23261 9.5804,13.38688 -23.6645,-50.71978 -43.536,-125.65864 -60.6964,-228.89607 -4.2139,-25.35119 -14.6601,-65.32429 -23.781,-91 -1.0746,-3.025 -4.1943,-11.8 -6.9328,-19.5 -6.3143,-17.75459 -23.5347,-60.87694 -30.7491,-77 -14.43,-32.24873 -20.6493,-45.85742 -27.3687,-59.88634 -4.4485,-9.28748 -8.0881,-16.98395 -8.0881,-17.10326 0,-0.11931 3.2889,-0.49494 7.3086,-0.83473 4.0198,-0.3398 8.8884,-1.27785 10.8191,-2.08456 l 3.5104,-1.46675 7.931,9.67475 c 4.362,5.32112 9.3934,11.15814 11.1809,12.97116 1.7875,1.81302 3.2401,4.0689 3.228,5.01306 -0.04,3.13876 -3.7303,9.93827 -6.426,11.8405 -1.4623,1.03189 -4.4309,3.29989 -6.5968,5.03999 -2.166,1.7401 -4.4949,3.34943 -5.1755,3.57628 -2.1752,0.72506 1.9195,5.7599 4.6843,5.7599 1.3299,0 2.6961,0.45 3.036,1 0.3399,0.55 1.2665,1 2.059,1 0.7926,0 3.1868,1.74585 5.3207,3.87966 5.1566,5.15667 11.4741,7.17599 21.9705,7.02265 4.5456,-0.0664 8.4093,0.0409 8.586,0.23847 0.1768,0.19757 3.9987,6.65922 8.4932,14.35922 21.9587,37.61961 40.4618,82.53435 51.0832,124 4.9863,19.4668 6.8915,28.96006 11.4756,57.18255 17.1324,105.47826 27.8773,156.98017 41.0835,196.92032 5.5031,16.64333 15.1625,41.39713 16.1539,41.39713 0.5778,0 0.5792,0.005 -3.6793,-13.5 -15.7672,-50.00359 -26.4517,-122.1784 -31.0137,-209.5 -3.6544,-69.94971 -6.3826,-89.73803 -21.1399,-153.33005 -2.7863,-12.00653 -4.8047,-22.09127 -4.4854,-22.41054 0.3192,-0.31926 1.5304,0.27926 2.6916,1.33005 3.2172,2.91161 9.6105,2.53042 14.7644,-0.8803 5.6201,-3.71918 6.7898,-6.86839 4.7209,-12.70916 -2.5044,-7.06991 -2.0951,-9.78198 2.069,-13.70924 5.0874,-4.79802 8.2895,-6.76001 9.2856,-5.68941 1.2009,1.29063 9.287,22.98996 13.3774,35.89865 6.6531,20.99637 7.5176,24.08102 11.0702,39.5 8.9628,38.9007 11.6677,62.04002 13.6186,116.5 3.5244,98.38787 7.8721,149.03637 16.6099,193.5 2.1068,10.7206 8.4423,35.22617 9.5658,37 1.0873,1.71681 0.934,0.45751 -2.1314,-17.5 -5.8734,-34.40699 -7.4446,-57.67259 -7.3949,-109.5 0.043,-44.71197 1.1458,-71.26946 4.8792,-117.5 2.7022,-33.46023 1.648,-83.0151 -2.6058,-122.5 -1.6705,-15.50493 -4.9853,-41.36624 -5.5438,-43.25 -0.9206,-3.1053 5.1394,-2.26759 8.1656,1.12879 2.5004,2.80625 2.861,2.88934 14.3132,3.29766 9.6222,0.34306 12.5128,0.81741 15.9735,2.62121 2.3239,1.21129 4.7739,2.20923 5.4445,2.21765 0.6706,0.008 1.7577,0.35768 2.416,0.77613 2.0764,1.32003 7.4686,35.35375 9.8145,61.94678 1.9143,21.69995 1.8965,61.07609 -0.037,82.76178 -8.8898,99.68711 -10.5267,126.36002 -10.5251,171.5 9e-4,24.47006 0.468,40.00519 1.5036,50 2.6321,25.40427 6.0911,46.29823 4.8837,29.5 -1.1271,-15.68182 -0.452,-65.81449 1.1244,-83.5 3.7564,-42.14173 10.1847,-84.1269 22.0477,-144 3.5417,-17.875 7.3188,-38.8 8.3935,-46.5 3.9085,-28.00321 6.0751,-63.66412 6.0886,-100.21482 0.011,-30.07329 -0.7032,-28.04905 9.7873,-27.73387 6.8074,0.20452 9.2012,1.57332 11.909,6.80949 2.6291,5.08418 4.4737,13.92664 3.8247,18.33514 -0.4945,3.35933 -0.1086,5.1522 1.9355,8.99204 1.4043,2.63786 2.5532,5.16861 2.5532,5.62389 0,1.90844 6.4101,9.93647 9.5646,11.97875 5.2045,3.36947 6.5387,8.63303 6.4997,25.64167 -0.029,12.53205 -1.138,29.95725 -2.5508,40.06771 -2.021,14.46398 -5.2233,32.14291 -8.5133,47 -10.1734,45.94138 -20.4622,97.02879 -24.9731,124 -6.9237,41.39755 -9.0763,60.43603 -9.8932,87.5 -0.5153,17.07046 0.034,46.76833 0.6931,37.5 1.4784,-20.77783 2.441,-31.44834 3.6989,-41 6.9975,-53.13415 20.9343,-107.93305 49.441,-194.39958 8.2516,-25.02864 18.0092,-59.80905 18.0484,-64.332 0.01,-0.97263 0.4371,-2.43552 0.9527,-3.25086 0.7829,-1.23811 1.4383,-1.00247 3.977,1.42974 2.8099,2.69207 2.9194,3.04504 1.4489,4.66997 -1.1714,1.29432 -1.4172,2.7851 -0.9325,5.65405 0.9994,5.9158 3.9464,9.89491 9.36,12.63817 8.7492,4.43357 14.1786,10.35724 14.1786,15.46942 0,1.08803 0.6039,2.58216 1.3421,3.3203 5.3541,5.35413 4.9608,11.66221 -1.9535,31.33507 -37.9703,108.0327 -54.4237,166.27745 -60.8665,215.4657 -1.6645,12.70767 -1.9567,21.37099 -0.5734,17 0.4351,-1.375 1.3266,-5.425 1.9811,-9 6.7468,-36.85581 23.1577,-86.33583 47.5943,-143.5 10.1838,-23.82282 12.1848,-28.29458 21.7031,-48.5 2.7205,-5.775 5.631,-12.1875 6.4679,-14.25 1.6885,-4.16115 3.4942,-4.74489 5.559,-1.79703 0.7524,1.07414 2.5337,2.39619 3.9584,2.93789 4.1912,1.59346 7.4025,6.88621 11.5997,19.118 2.1687,6.32013 5.0971,14.03289 6.5077,17.13948 l 2.5646,5.64834 -3.5556,7.35166 c -39.0664,80.77555 -55.4633,122.49023 -67.2264,171.02885 -3.4774,14.34896 -2.2782,13.21503 3.3602,-3.17719 10.1832,-29.60504 14.5657,-40.07235 29.5171,-70.5 13.7971,-28.07838 31.5265,-60.15699 49.6037,-89.75 3.3228,-5.43963 5.8239,-6.07376 9.3118,-2.36099 1.2344,1.31395 3.5361,2.64735 5.1148,2.9631 1.866,0.37319 4.0286,2.14207 6.18,5.05482 1.8202,2.4644 4.5427,5.00884 6.05,5.6543 1.5073,0.64547 4.3191,3.37074 6.2484,6.05617 1.9293,2.68543 3.9585,4.8826 4.5094,4.8826 2.1084,0 0.6979,2.78062 -8.8302,17.4071 -31.9635,49.06682 -57.177,95.18672 -71.3945,130.5929 -2.9577,7.36572 -8.7736,23.8705 -8.7736,24.89843 0,0.28779 5.0852,-9.58413 11.3005,-21.93759 11.3835,-22.6257 21.183,-39.72245 33.4457,-58.3511 6.4955,-9.86754 28.9666,-42.0079 31.7445,-45.40414 0.7673,-0.93808 4.5059,-5.7556 8.308,-10.7056 5.8073,-7.56054 7.5815,-9.20249 11.0928,-10.26606 5.3118,-1.60891 6.8939,-0.79273 12.0855,6.23486 8.2609,11.18243 14.4946,13.50892 24.4267,9.1163 3.2471,-1.43605 6.0585,-2.45622 6.2477,-2.26704 0.1892,0.18918 -3.1649,4.58251 -7.4534,9.76295 -23.2838,28.12629 -51.6839,65.01323 -65.0988,84.55249 -11.2002,16.31332 -31.7747,52.10898 -33.5477,58.3665 -0.3896,1.375 0.9388,-0.17138 2.9522,-3.43639 25.4811,-41.32306 58.4741,-81.20553 111.0007,-134.17944 l 22.0043,-22.19177 6.4957,-0.4653 c 5.7897,-0.41474 21.7325,-3.33325 32.3606,-5.92397 2.1257,-0.51817 4.9586,-2.03585 6.2954,-3.37263 2.7161,-2.71614 4.1075,-2.94901 7.7375,-1.29505 2.9383,1.33875 3.9495,3.42135 2.7243,5.6106 -0.4845,0.86578 -0.6526,5.23383 -0.3735,9.70676 l 0.5073,8.1326 -12.878,11.87699 c -7.0829,6.53234 -18.053,16.62658 -24.378,22.43164 -42.5509,39.053 -80.3177,77.76212 -100.1165,102.61455 -8.3965,10.53965 -21.1643,28.34716 -24.3715,33.99141 -3.5,6.15953 -3.1929,5.85299 9.0173,-9 13.2986,-16.17683 51.0882,-53.78047 71.9707,-71.61637 28.0932,-23.99463 63.1095,-51.60743 64.139,-50.57799 0.7788,0.77881 -1.5992,7.61152 -7.7446,22.25216 -3.6779,8.76219 -6.2711,13.37558 -9.488,16.87925 -2.4348,2.65181 -5.8418,7.47612 -7.5712,10.72068 -3.8209,7.1688 -13.7302,18.90784 -20.5481,24.34227 -2.7601,2.2 -6.7663,6.40937 -8.9027,9.35415 -3.9552,5.45179 -8.9237,8.98577 -15.613,11.10538 -4.2234,1.33824 -23.3953,18.36538 -28.7989,25.57712 -1.8707,2.49674 -5.0553,5.23757 -7.1692,6.17021 -2.0918,0.92292 -3.8033,2.38697 -3.8033,3.25345 0,3.95377 -10.9379,16.67458 -21.1854,24.63862 -3.1269,2.43018 -5.9389,5.21723 -6.2487,6.19343 -0.3098,0.9762 -1.8847,2.55543 -3.4996,3.50941 -2.9455,1.73997 -4.5921,4.70922 -11.6801,21.06317 -1.8748,4.32572 -4.4897,8.71522 -5.8108,9.75444 -1.3212,1.03922 -3.596,4.93252 -5.0552,8.65177 -2.4775,6.3147 -4.1213,8.25211 -24.8367,29.27228 -44.4222,45.07603 -80.8682,72.447 -128.1906,96.27133 -13.6963,6.89539 -35.3874,16.12408 -36.1367,15.37476 -0.2433,-0.24329 2.6145,-1.65485 6.3507,-3.1368 9.2476,-3.66803 33.5879,-16.44868 45.2385,-23.75397 52.2407,-32.75641 93.7292,-76.90716 121.5022,-129.29875 3.2071,-6.05 7.5072,-13.925 9.5556,-17.5 7.9902,-13.94442 7.7363,-14.45969 -1.1086,-2.25 -3.4863,4.8125 -12.4553,16.625 -19.9311,26.25 -7.4759,9.625 -16.709,21.55 -20.5181,26.5 -29.3733,38.17115 -69.6699,75.95221 -109.1592,102.34483 -10.6331,7.10665 -33.1378,20.16243 -34.7157,20.13986 -0.5888,-0.008 -0.4571,-0.40395 0.2927,-0.87895 0.9324,-0.59073 1.0023,-0.9839 0.2214,-1.2442 -0.6279,-0.20932 2.3587,-3.06332 6.6369,-6.34224 11.1132,-8.51745 13.8529,-11.01367 32.3526,-29.47742 29.9773,-29.91903 49.4747,-57.09232 66.9043,-93.24381 10.9058,-22.62006 16.182,-37.68324 24.4483,-69.79807 2.4775,-9.625 5.1707,-19.70325 5.985,-22.3961 2.3525,-7.77998 0.2668,-4.0602 -4.4275,7.8961 -3.982,10.14213 -12.9215,30.75247 -20.1689,46.5 -1.6453,3.575 -4.1275,9.2 -5.516,12.5 -4.195,9.96976 -16.1114,34.01689 -21.3629,43.11017 -2.715,4.70116 -4.9364,8.72783 -4.9364,8.94816 0,0.22033 -3.639,6.14734 -8.0868,13.17114 -17.5166,27.66201 -33.6092,47.93082 -56.7173,71.43611 -9.5519,9.71608 -17.2948,18.02983 -17.2065,18.475 0.088,0.44518 -0.3372,0.97536 -0.9457,1.17817 -0.6084,0.20281 -1.0207,-0.0109 -0.9162,-0.475 0.1045,-0.46406 -0.169,-1.66898 -0.6079,-2.6776 -0.6279,-1.44297 -0.9781,-1.54954 -1.6435,-0.5 -0.6785,1.07048 -0.8515,1.03767 -0.8761,-0.16615 -0.027,-1.33333 -0.1473,-1.33333 -1.0808,0 -0.8085,1.15473 -0.905,0.92455 -0.4192,-1 0.5059,-2.00426 0.4067,-2.20256 -0.5,-1 -0.9003,1.19396 -0.9865,0.98994 -0.4227,-1 1.2061,-4.25664 3.4904,-9.68514 2.9456,-7 -0.279,1.375 -0.7409,3.625 -1.0264,5 -0.5366,2.58379 6.0892,-10.56306 7.5597,-15 0.4557,-1.375 2.4343,-6.775 4.3969,-12 8.2857,-22.05924 15.3872,-51.47566 19.1925,-79.5 1.3282,-9.78182 1.7658,-19.8077 1.7677,-40.5 0,-35.21742 -1.6494,-48.06482 -11.3843,-88.5 -2.1187,-8.8 -4.4131,-18.7 -5.0988,-22 -1.3621,-6.55521 -3.158,-9.90749 -2.3646,-4.41369 0.9809,6.7919 7.3977,74.76371 8.3939,88.91369 3.0281,43.01461 -1.4759,94.0143 -12.0549,136.5 -3.5602,14.298 -7.951,28.78696 -8.544,28.19395 -0.2336,-0.23361 0.8836,-5.32282 2.4828,-11.30935 3.0898,-11.56739 3.1887,-12.02243 6.2141,-28.60376 3.5435,-19.42091 4.9229,-36.42155 4.9317,-60.78084 0.016,-46.1342 -6.4547,-79.82819 -23.894,-124.41104 -4.322,-11.04893 -8.675,-22.29827 -9.6735,-24.99855 -3.0816,-8.33429 -2.6471,-3.58861 1.0989,12.00171 4.1813,17.40166 11.5332,50.74835 14.9717,67.90788 10.0129,49.96816 11.6798,107.14208 4.4317,152 -2.2318,13.81292 -4.3214,23.80774 -4.7245,22.59836 -0.2372,-0.71159 0.063,-3.83732 0.6663,-6.94608 2.8893,-14.87825 3.6176,-26.05734 3.6257,-55.65228 0.01,-24.75888 -0.3619,-33.61724 -1.8314,-44 -5.6457,-39.89004 -15.8157,-73.95067 -31.3345,-104.94317 -5.2163,-10.41759 -7.2875,-14.37471 -19.5604,-37.37071 -2.7339,-5.12263 -5.1444,-9.14028 -5.3565,-8.92811 -0.2122,0.21217 1.6921,5.52841 4.2318,11.81388 4.2836,10.60174 12.238,32.89239 22.991,64.42811 15.4155,45.20985 22.9056,83.52263 25.4148,130 0.7632,14.13693 0.8239,24.92175 0.1857,33 l -0.948,12 -0.142,-11.60478 C 1843.313,809.14775 1824.504,743.54131 1791.1336,692 c -4.4812,-6.92134 -29.0933,-42.1551 -30.3864,-43.5 -0.5288,-0.55 8.2833,17.45 19.5824,40 11.2991,22.55 23.4267,47.975 26.9503,56.5 13.9504,33.75208 23.5759,66.97388 29.6977,102.5 2.1801,12.65135 4.9894,41.07497 5.0101,50.69098 0.01,3.13004 0.4623,5.9691 1.0123,6.30902 0.5561,0.34368 1.0017,-0.40698 1.0037,-1.69098 0,-2.07605 0.2092,-1.97207 2.0398,1.03046 1.6752,2.7478 2.2947,3.12476 3.4962,2.12756 1.4139,-1.17338 1.5674,-1.0886 1.8353,1.0137 0.2648,2.07752 4.541,4.07836 7.3354,3.43225 20.3763,-4.71118 60.8889,-21.7335 84.2799,-35.41221 35.6504,-20.84782 71.2896,-51.95783 96.2224,-83.99396 l 2.7127,-3.48555 4.1165,3.98937 c 5.9804,5.79576 6.2636,6.63068 4.411,13.0033 -1.5404,5.29902 -2.1196,5.94173 -13.7805,15.29251 -51.7429,41.49238 -101.186,68.70761 -156.1724,85.96288 -6.05,1.89855 -12.575,3.82831 -14.5,4.28836 -7.782,1.85981 -10.4241,2.74132 -8.5,2.83593 3.5815,0.1761 19.718,-2.76202 32.5,-5.91755 57.9839,-14.31466 108.6952,-40.61663 149.6465,-77.61579 4.4805,-4.04816 8.418,-7.36028 8.75,-7.36028 0.3319,0 0.6079,0.7875 0.6133,1.75 0.01,0.9625 1.1303,4.15718 2.5,7.0993 4.2195,9.06405 4.6973,8.44643 -15.7598,20.37095 -49.2635,28.71583 -95.1593,47.0227 -143.2653,57.14556 -16.9106,3.55847 -33.4071,5.89526 -37.2571,5.27763 -2.2139,-0.35516 -3.0547,-0.17264 -2.5992,0.56425 1.3781,2.22983 33.6811,-0.14461 58.4618,-4.29726 37.7612,-6.32786 84.6599,-22.92869 112.262,-39.73762 3.7687,-2.29505 7.0595,-4.17281 7.313,-4.17281 0.2534,0 6.4845,-4.07008 13.8469,-9.04462 l 13.3863,-9.04463 4.0319,2.54524 c 5.6383,3.55931 6.3877,8.05683 2.3673,14.20735 -1.456,2.22754 -18.879,10.30562 -41.5809,19.2788 -30.3201,11.98434 -62.3181,20.92144 -92.7167,25.89592 -22.9326,3.75273 -26.7919,4.16167 -49.7107,5.26748 -22.1636,1.06936 -29.9488,2.22634 -27.1068,4.02842 1.0446,0.6624 1.0068,0.84176 -0.1825,0.86604 -0.8829,0.018 -1.0886,0.33289 -0.5,0.76531 1.2641,0.92869 1.7631,3.23469 0.7,3.23469 -0.44,0 -1.3362,-0.45375 -1.9917,-1.00833 -0.6554,-0.55459 -0.9743,-0.70849 -0.7086,-0.34201 0.2656,0.36648 -0.061,1.38273 -0.7254,2.25833 -0.6646,0.87561 -0.8097,1.25353 -0.3225,0.83983 0.4873,-0.4137 1.7873,0.0363 2.8889,1 1.1799,1.03206 1.6634,1.17495 1.1767,0.34767 -0.5621,-0.95523 -0.4519,-1.17304 0.3444,-0.6809 0.644,0.39798 0.9311,1.11142 0.6382,1.58541 -0.2929,0.47399 -0.075,1.14446 0.4837,1.48992 0.559,0.34546 1.0163,0.14847 1.0163,-0.43776 0,-0.58624 3.2625,1.67453 7.25,5.02393 27.656,23.23033 69.4043,47.11538 103.9723,59.48471 l 4.7223,1.68976 -2.2223,2.81939 c -1.2223,1.55067 -3.0124,2.84425 -3.978,2.87475 -2.0975,0.066 -26.9314,-12.69591 -40.6671,-20.89858 -22.3861,-13.36849 -47.9713,-31.73511 -61.3679,-44.05371 -3.735,-3.43434 -7.0617,-5.97339 -7.3927,-5.64232 -0.3311,0.33106 3.1747,4.48218 7.7907,9.2247 16.7745,17.2344 39.4075,35.99673 60.4648,50.12418 9.2604,6.21281 37.4981,22.30103 39.1424,22.30103 2.0739,0 5.2264,4.7783 5.8899,8.9275 0.8737,5.4636 1.5264,5.6732 -15.803,-5.0759 -36.8387,-22.85032 -71.5014,-52.14088 -97.6356,-82.50361 -4.7601,-5.53024 -6.9859,-6.86127 -8.6652,-5.18188 -1.7219,1.72186 16.2447,41.28634 26.5942,58.56342 20.4773,34.18417 41.9856,60.52177 69.7641,85.42857 l 8.3588,7.4947 -7.2077,2.2748 c -3.9642,1.2511 -7.5483,1.8917 -7.9647,1.4236 -26.8988,-30.2424 -51.6079,-66.6075 -69.6063,-102.44156 -6.8434,-13.62487 -18.6315,-41.98349 -19.9809,-48.06796 -0.6564,-2.95937 -0.8411,-3.11287 -1.615,-1.34168 -0.6894,1.57796 -0.7611,1.4197 -0.3394,-0.75 0.3013,-1.55056 0.09,-2.75 -0.4846,-2.75 -0.5605,0 -1.0924,2.1375 -1.1821,4.75 l -0.163,4.75 L 1843,932 c -0.6338,-5.17155 -0.6899,-4.96253 -0.9405,3.5 -0.822,27.76482 2.6139,58.46026 9.8508,88.0055 9.7607,39.8485 27.0557,78.3264 50.3016,111.9107 l 5.4793,7.9162 -6.9132,10.4329 c -3.8022,5.7381 -7.1816,10.1645 -7.5097,9.8364 -0.5974,-0.5975 -6.8482,-15.3471 -14.452,-34.1017 -16.9533,-41.8148 -27.3226,-78.2062 -33.1952,-116.5 -3.7827,-24.6661 -4.8743,-38.09893 -5.1602,-63.5 -0.1424,-12.65 -0.3044,-23.6525 -0.3599,-24.45 -0.4835,-6.94209 -13.8869,28.95034 -20.1118,53.85665 -7.7422,30.97705 -10.4401,53.47915 -10.3823,86.59335 0.063,36.2566 3.2859,57.2513 15.3313,99.8822 3.748,13.2648 7.1672,25.4678 7.5982,27.1178 0.5454,2.0879 0.9079,2.4751 1.1924,1.2735 0.2248,-0.9496 -0.9836,-10.8496 -2.6855,-22 -10.5487,-69.114 -11.402,-77.7967 -11.3774,-115.7735 0.02,-30.2661 1.3274,-47.8259 5.4364,-73 1.7455,-10.69361 6.071,-31.32175 7.0213,-33.48366 0.984,-2.23868 1.1119,-3.17401 -2.0496,14.98366 -3.7065,21.28746 -4.5413,32.54948 -4.5217,61 0.019,28.1881 0.5957,35.6075 4.5433,58.5 4.837,28.0496 14.0526,57.0534 26.7882,84.3092 2.2639,4.8451 4.1162,8.9805 4.1162,9.1899 0,0.2094 1.3213,3.2203 2.9362,6.6908 l 2.9362,6.3101 -2.1862,2.3365 c -3.8477,4.1122 -15.0116,12.8452 -20.6607,16.1621 -4.7257,2.7746 -6.3672,3.2024 -12,3.1273 -7.0134,-0.093 -8.292,0.3482 -9.359,3.2334 -0.5562,1.5039 -1.3351,1.7378 -4.0754,1.2238 -2.4809,-0.4655 -4.3264,-0.082 -6.8939,1.433 -3.485,2.0563 -3.5384,2.0573 -8.9102,0.1692 -7.8367,-2.7543 -24.7133,-2.0119 -29.787,1.3104 -2.8149,1.8433 -5.3214,2.3866 -12.8053,2.7757 -7.695,0.4001 -9.6962,0.8511 -11.5644,2.6062 -2.838,2.6662 -8.4913,2.797 -11.7454,0.2717 z m 62.6637,-90.3993 c -0.05,-60.4137 0.2526,-66.7271 4.5959,-95.75 5.2874,-35.3318 14.5844,-69.62804 26.5311,-97.87162 6.0315,-14.25941 6.0582,-14.35957 2.299,-8.62838 -4.36,6.64722 -14.6362,28.22022 -20.2446,42.5 -18.3166,46.6361 -26.8406,98.0496 -23.8518,143.8642 1.2975,19.8882 2.3232,27.8179 7.0672,54.6358 1.654,9.35 3.0179,17.5625 3.0309,18.25 0.013,0.6875 0.158,1.25 0.3223,1.25 0.1642,0 0.2767,-26.2125 0.25,-58.25 z M 1827.5,926 c 0.3399,-0.55 0.168,-1 -0.382,-1 -0.55,0 -1.2781,0.45 -1.618,1 -0.3399,0.55 -0.168,1 0.382,1 0.55,0 1.2781,-0.45 1.618,-1 z m 43.0855,-27.61326 c 55.4341,-35.42196 99.1535,-83.46218 126.3951,-138.88674 4.9291,-10.0286 14.6843,-33.10298 23.1991,-54.87373 2.4886,-6.36295 1.8944,-6.7429 -1.3009,-0.83176 -2.5235,4.66845 -11.509,20.47474 -29.6776,52.20549 C 1956.5568,813.01235 1914.7388,861.90937 1869.5,895.96445 1856.7394,905.57044 1856.2316,906 1857.6355,906 c 0.5696,0 6.3971,-3.42597 12.95,-7.61326 z m 15.6008,-30.16926 c 16.1454,-20.23902 28.543,-39.59724 39.944,-62.37037 18.0707,-36.09579 28.1121,-69.89874 33.3733,-112.34711 0.8862,-7.15 2.2706,-17.45232 3.0765,-22.89404 0.8058,-5.44173 1.3031,-10.05611 1.105,-10.25418 -0.1981,-0.19808 -2.1726,6.50424 -4.3879,14.89404 -5.5525,21.0287 -19.6763,69.33883 -23.4629,80.25418 -13.4005,38.62923 -32.6714,78.20588 -52.2557,107.31779 -7.5713,11.25462 -19.8215,27.95095 -23.2454,31.68221 -1.0094,1.1 -3.0723,3.49703 -4.5842,5.32673 -5.6101,6.78919 -2.4763,1.86823 6.08,-9.54734 33.9346,-45.27447 57.7956,-101.75912 65.5953,-155.27939 2.7445,-18.83163 3.5601,-33.05414 3.4695,-60.5 l -0.089,-27 -2.8371,20.22501 c -2.7138,19.34511 -6.9615,46.14652 -8.9983,56.77499 -0.527,2.75 -1.8962,9.95 -3.0426,16 -7.5638,39.9177 -20.926,80.23241 -38.4478,116 -7.4662,15.24087 -22.2627,40.76909 -25.2133,43.5 -1.4671,1.35795 -1.4648,1.24765 0.024,-1.16472 14.0746,-22.80394 30.5078,-59.84318 37.8608,-85.33528 14.1322,-48.99551 17.0881,-88.27551 10.8454,-144.12449 -1.6522,-14.78153 -3.1395,-27.55051 -3.3052,-28.37551 -0.1656,-0.825 -0.6274,8.85 -1.0263,21.5 -2.4266,76.96747 -4.2038,98.02418 -11.267,133.5 -6.6252,33.27564 -19.906,73.20262 -32.9939,99.19161 -3.516,6.98194 -3.9698,8.27643 -2.6058,7.43339 0.4388,-0.27117 1.4513,-0.0629 2.25,0.46294 1.9034,1.25289 20.3649,-17.60441 34.1386,-34.87046 z M 1840.1018,899.5 c 0.9583,3.721 0.13,-12.06945 -1.2065,-23 -7.961,-65.11119 -36.8069,-132.1713 -76.7817,-178.5 -8.592,-9.95765 -34.3186,-38 -34.862,-38 -0.5998,0 2.1887,4.37242 5.7397,9 3.5317,4.60253 39.224,58.37046 45.1398,68 27.0315,44.0009 46.7023,91.01145 56.8472,135.8572 4.0634,17.96219 3.7094,20.75428 -0.5887,4.6428 -8.3709,-31.37858 -20.0749,-60.73428 -34.4885,-86.50334 -20.3144,-36.31887 -43.7775,-64.32676 -80.3247,-95.8838 C 1696.6139,675.28569 1696,674.77319 1696,675.43023 c 0,0.31672 7.0875,8.58947 15.75,18.38391 20.6619,23.36177 42.6064,49.64703 54.421,65.18586 31.8473,41.88599 58.6956,94.26034 70.9608,138.42663 1.2536,4.51412 1.4029,4.68158 1.7828,2 l 0.4146,-2.92663 z m -1.9439,-5.5 c 0,-1.375 0.227,-1.9375 0.5044,-1.25 0.2774,0.6875 0.2774,1.8125 0,2.5 -0.2774,0.6875 -0.5044,0.125 -0.5044,-1.25 z m -3.6915,-1.18522 c -17.1688,-52.5221 -54.3571,-109.66461 -94.5707,-145.31478 -5.5837,-4.95 -10.6569,-9.46789 -11.2739,-10.03976 -5.1336,-4.75815 -53.6306,-38.44458 -61.6014,-42.78887 -2.1139,-1.1521 3.1783,3.73819 20.0215,18.50102 7.9519,6.96981 15.8081,13.94784 17.4581,15.50673 1.65,1.55889 9.75,8.95426 18,16.43416 49.1771,44.58657 88.4194,97.46588 111.034,149.61883 2.4983,5.76152 3.063,4.60038 0.9324,-1.91733 z m 32.8428,294.93522 c -0.5566,-1.2375 -2.6909,-8.55 -4.743,-16.25 -2.052,-7.7 -6.0083,-22.325 -8.7916,-32.5 -12.4265,-45.428 -17.0163,-70.7352 -19.8593,-109.5 -1.4519,-19.7971 -0.632,-58.10827 1.6265,-76 1.7127,-13.5677 3.1527,-18.76537 2.0778,-7.5 -1.4837,15.55152 -1.8402,47.50863 -0.6828,61.2169 4.7028,55.7005 17.9533,99.5639 43.5858,144.2831 3.1525,5.5 6.6654,11.7012 7.8064,13.7805 l 2.0746,3.7804 -10.434,10.4696 c -5.7386,5.7582 -10.7072,10.4695 -11.0412,10.4695 -0.3341,0 -1.0627,-1.0125 -1.6192,-2.25 z m 43.9285,-53 c -1.1884,-2.3375 -3.6864,-6.95 -5.551,-10.25 -8.0823,-14.3042 -14.6039,-26.4892 -17.6622,-33 -9.666,-20.5781 -11.569,-24.8262 -15.2312,-34 -12.5127,-31.345 -21.9566,-65.53098 -26.7093,-96.68537 -1.1462,-7.51352 -2.0358,-15.60803 -1.9769,-17.98779 l 0.1071,-4.32684 0.7948,4 c 0.4372,2.2 1.3281,7.375 1.9799,11.5 3.2216,20.38755 11.128,48.6654 19.7117,70.5 13.3681,34.005 30.7224,63.5508 55.3674,94.2635 l 4.2236,5.2635 -1.7855,3.9595 c -1.8912,4.1939 -8.0669,11.0135 -9.9735,11.0135 -0.6237,0 -2.1064,-1.9125 -3.2949,-4.25 z m 11.515,-31 c -25.0338,-33.4589 -49.7881,-80.513 -64.0505,-121.75 -4.473,-12.9327 -10.8443,-36.04106 -10.4243,-37.80814 0.2705,-1.13802 0.6511,-0.70979 1.1627,1.30814 8.1085,31.98 27.2403,73.7921 47.6193,104.0705 6.2545,9.2927 18.601,25.1142 26.7005,34.2157 6.2741,7.0501 6.4271,7.3491 4.7238,9.2312 -1.4641,1.6179 -1.5418,2.2082 -0.462,3.5094 0.714,0.8603 1.9512,1.3137 2.7493,1.0074 1.0857,-0.4166 1.3152,0.013 0.9115,1.7045 -0.2967,1.2437 -0.8479,4.3988 -1.2248,7.0113 -0.3769,2.6125 -1.0443,4.75 -1.4832,4.75 -0.4388,0 -3.2389,-3.2625 -6.2223,-7.25 z m 28.6514,-38.591 c -40.2747,-36.348 -75.9267,-81.77241 -97.3183,-123.99384 -3.4372,-6.78415 -5.9876,-12.59665 -5.6676,-12.91666 0.32,-0.32001 0.5887,0.0557 0.5971,0.83483 0.012,1.09349 0.198,1.12897 0.8159,0.15555 0.5471,-0.86175 2.3628,1.03831 5.7338,6 15.2441,22.43738 43.1271,51.58871 68.935,72.07082 10.5595,8.3804 33.9108,24.1143 44,29.6468 3.3,1.8095 6.1518,3.4239 6.3374,3.5875 0.6032,0.5318 -1.9579,11.456 -2.6858,11.456 -1.549,0 -32.6107,-23.1676 -36.1516,-26.9639 -0.275,-0.2949 -3.2,-2.7714 -6.5,-5.5033 -9.7226,-8.0491 -34.989,-33.16235 -45.3074,-45.0328 -9.5955,-11.03886 -22.5888,-28.00298 -29.6912,-38.76508 -2.0925,-3.17079 -4.0037,-5.56591 -4.2472,-5.32248 -0.9231,0.92308 12.616,24.00706 22.6321,38.58756 22.3301,32.506 51.8131,62.5842 83.8504,85.5431 6.4698,4.6365 12.5508,8.4361 13.5133,8.4435 0.9625,0.01 1.7483,0.3509 1.7463,0.7634 -0.012,2.3994 -7.0676,11.1037 -9.0922,11.2167 -0.3277,0.018 -5.5027,-4.3951 -11.5,-9.8077 z m -286.2494,7.091 c -1.9621,-3.7498 -3.0389,-12.2439 -2.447,-19.3034 l 0.6181,-7.3727 6.5026,-7.0369 c 11.8827,-12.8591 31.4729,-32.6196 40.6313,-40.98465 31.8662,-29.10564 73.2578,-56.74284 109.0858,-72.83671 10.774,-4.83964 8.277,-2.80719 -5.0455,4.10688 -19.8903,10.32262 -34.4327,19.51296 -51.5,32.54633 -39.5895,30.23245 -68.4493,63.43205 -92.9097,106.88115 -1.7804,3.1625 -3.4132,5.75 -3.6285,5.75 -0.2153,0 -0.8035,-0.7875 -1.3071,-1.75 z M 247,1038.4088 c -14.27525,-2.0682 -27.15549,-5.6905 -40.5,-11.3897 -32.90461,-14.0531 -53.90709,-33.08412 -67.89179,-61.5191 -12.07658,-24.55519 -16.40437,-47.52363 -15.26232,-81 1.14255,-33.49095 7.8892,-61.80377 21.20778,-89 C 164.89673,753.95992 201.89,719.90859 246.5,701.6611 c 29.35763,-12.00859 52.34897,-16.1638 89,-16.08492 20.11515,0.0433 26.02336,0.40788 36.5,2.25233 12.95188,2.28022 27.40971,6.13921 34.71311,9.26539 l 4.21312,1.8034 -12.22572,12.30135 c -11.59788,11.66963 -17.22512,18.49324 -28.13792,34.12012 -3.56826,5.10967 -5.17545,6.65528 -6.41219,6.16649 -0.90772,-0.35876 -6.8254,-1.27567 -13.1504,-2.03758 -52.53319,-6.32818 -94.36755,9.97805 -121.83637,47.48948 -28.20168,38.51222 -35.16699,101.15819 -15.34666,138.0277 11.28964,21.00085 30.6096,34.45665 57.68303,40.17458 8.77872,1.85408 42.58009,1.50837 54,-0.55229 13.05649,-2.35597 20.55513,-4.36715 29.80839,-7.99479 6.55435,-2.56957 8.15631,-3.59928 8.01501,-5.1519 -0.0971,-1.06725 -1.74764,-6.44752 -3.66781,-11.95614 -6.28289,-18.0245 -8.00522,-29.9034 -7.89972,-54.48432 0.0939,-21.88022 1.11034,-31.87039 5.29068,-52 9.57464,-46.10482 34.94145,-91.06052 65.45345,-115.99823 24.64819,-20.14517 52.89713,-32.85269 87,-39.13614 14.61264,-2.69238 44.06359,-3.20871 57,-0.99933 20.79527,3.55159 40.95986,11.14054 56.5,21.2638 8.78596,5.7234 25.49271,22.58715 31.98613,32.28672 11.83612,17.68023 20.29237,41.93764 22.61019,64.8591 0.37685,3.72675 0.95574,6.50535 1.28643,6.17467 0.33068,-0.33069 7.35986,-27.45485 15.62038,-60.27592 L 709.52227,691.5 h 49.4876 49.4876 l 0.65488,6 c 0.36019,3.3 1.17408,12.75 1.80865,21 0.63456,8.25 2.01385,25.575 3.06507,38.5 7.63516,93.87567 9.78963,124.51687 10.60184,150.78051 0.46775,15.12521 1.03321,22.16578 1.76076,21.92327 0.58946,-0.19649 2.14574,-3.24772 3.45841,-6.78052 3.7964,-10.21727 15.16363,-39.13138 16.6782,-42.42326 0.75915,-1.65 4.49923,-10.2 8.3113,-19 9.50441,-21.94056 20.07021,-44.12512 46.67428,-98 12.49346,-25.3 25.57304,-51.9625 29.06575,-59.25 L 936.927,691 h 123.3953 123.3954 l -2.2911,11.75 c -1.2601,6.4625 -3.0752,15.68385 -4.0336,20.49189 -0.9584,4.80804 -1.4574,9.02704 -1.1089,9.37557 0.3485,0.34852 1.8598,-0.88533 3.3584,-2.74189 5.0247,-6.22483 14.7894,-14.89692 22.8575,-20.29983 26.7256,-17.89717 57.3702,-25.6296 96,-24.22324 28.2383,1.02805 43.6795,4.41292 68.7072,15.0613 l 3.7072,1.57729 -1.3715,3.75445 c -5.5686,15.24347 -21.4368,56.48168 -21.9195,56.96439 -0.3288,0.32884 -3.6411,-0.7987 -7.3606,-2.50567 C 1323.1872,752.36794 1308.7828,749.5 1286.5,749.5 c -18.5509,0 -24.11,0.90787 -34,5.5526 -8.244,3.87169 -13.5628,8.71181 -17.3202,15.76136 -2.6957,5.0577 -3.1765,7.0104 -3.1578,12.82602 0.053,16.47004 10.0279,26.52079 46.478,46.82982 19.8655,11.06852 32.5124,19.72111 42.126,28.82124 9.7875,9.26468 14.3382,15.20344 20.0513,26.16759 l 4.1772,8.01669 18.685,-37.98766 C 1373.8162,834.59445 1386.626,808.5 1392.0058,797.5 c 5.3797,-11 19.0941,-38.9 30.4763,-62 11.3822,-23.1 22.0377,-44.8125 23.6788,-48.25 l 2.9838,-6.25 h 46.959 c 36.6619,0 47.0572,0.2741 47.4065,1.25 0.2462,0.6875 2.2667,17 4.4902,36.25 2.2235,19.25 5.3733,46.475 6.9996,60.5 1.6263,14.025 4.7657,41.25 6.9765,60.5 2.2108,19.25 4.4949,39.05 5.0758,44 0.581,4.95 1.472,12.6 1.98,17 2.1576,18.68488 4.1584,35.7777 5.5017,47 3.0441,25.4322 8.466,73.4126 8.466,74.9192 0,1.4133 -4.0244,1.5808 -37.9809,1.5808 h -37.981 l -0.4551,-2.25 c -0.2503,-1.2375 -0.7202,-5.85 -1.0442,-10.25 -1.1244,-15.26696 -2.4982,-32.12041 -4.4833,-55 -1.0975,-12.65 -2.9286,-33.78209 -4.069,-46.96021 -1.1405,-13.17811 -2.2629,-24.14951 -2.4943,-24.38089 -0.4747,-0.47474 -11.8963,6.91461 -79.4922,51.42862 -73.2162,48.21512 -86.5182,57.01289 -105.1779,69.56288 -24.0889,16.2016 -33.3041,20.8325 -50.8221,25.5398 -6.0424,1.6237 -18.3805,1.768 -175.25,2.0506 -111.70528,0.2013 -168.75,-0.033 -168.75,-0.693 0,-0.5484 1.55049,-9.221 3.44554,-19.2724 4.63988,-24.61028 8.47452,-45.20366 9.54784,-51.2754 0.48613,-2.75 2.24262,-12.2 3.90331,-21 3.35701,-17.78874 5.27001,-29.62038 11.07547,-68.5 5.54479,-37.13387 13.57884,-84.62696 18.14687,-107.27477 1.12598,-5.58247 0.63014,-8.98146 -0.74666,-5.11836 -1.12618,3.15991 -24.93333,57.2993 -29.19557,66.39313 -21.5593,45.99838 -32.85931,69.21084 -63.65018,130.75 L 831.87697,1029 H 803.4838 775.09063 l -0.51945,-3.25 c -0.28569,-1.7875 -1.23377,-12.025 -2.10683,-22.75 -0.87307,-10.725 -2.02243,-24.45 -2.55415,-30.5 -0.53171,-6.05 -1.39138,-16.175 -1.91038,-22.5 -0.51899,-6.325 -1.39519,-16.675 -1.94712,-23 -0.55193,-6.325 -1.68285,-19.6 -2.51317,-29.5 -0.83031,-9.9 -1.73575,-19.8 -2.01208,-22 -1.00329,-7.9876 -4.23503,-60.76476 -6.10805,-99.75 -0.64646,-13.45535 -1.6252,-17.00555 -2.8947,-10.5 -0.34881,1.7875 -1.49613,7.3 -2.5496,12.25 -1.75913,8.26579 -3.9543,18.7403 -14.98442,71.5 -5.6758,27.1487 -9.38958,43.58455 -16.04291,71 -17.31795,71.35971 -27.13726,111.6335 -27.49004,112.75 -0.49647,1.5713 -67.45773,1.8497 -67.45773,0.2805 0,-0.5332 3.83199,-16.3513 8.51553,-35.15115 4.68355,-18.79989 8.37386,-34.32329 8.20071,-34.49644 -0.17315,-0.17316 -3.05287,3.38235 -6.39936,7.90113 -24.05956,32.48766 -59.05626,55.05076 -98.71378,63.64296 -48.38354,10.4827 -92.85909,4.2075 -125.90048,-17.7635 l -6.90937,-4.5944 -6.14662,2.3043 c -37.78025,14.1636 -57.40757,19.2834 -90.58305,23.6287 -14.20901,1.8611 -45.91951,1.811 -59.06358,-0.093 z m 267.63544,-61.79606 c 36.01043,-7.72984 69.69159,-53.38897 81.96402,-111.11274 1.95509,-9.19582 2.68235,-16.16206 3.1122,-29.81081 1.09825,-34.8723 -4.73066,-54.86373 -20.63369,-70.76745 -10.8687,-10.86917 -22.39157,-16.09084 -39.23698,-17.7805 -10.88874,-1.09219 -19.49272,-0.16635 -30.36125,3.26704 -37.51333,11.85055 -68.60225,58.24982 -78.12,116.59172 -2.50438,15.35138 -2.28005,41.48953 0.4608,53.68992 7.09254,31.5711 23.82384,49.91255 50.94732,55.85029 7.63018,1.67036 24.24769,1.70818 31.86758,0.0725 z m 719.15676,-2.14985 c 16.0947,-3.20962 28.7727,-11.77108 34.4211,-23.2445 2.9068,-5.90466 3.2818,-7.60344 3.2445,-14.69736 -0.093,-17.64046 -9.3696,-28.08132 -40.1431,-45.17986 -36.8434,-20.47116 -57.4446,-38.60678 -68.1715,-60.01254 -9.584,-19.12503 -10.614,-45.74037 -2.5927,-66.99151 1.4194,-3.76042 2.8286,-7.62462 3.1317,-8.58712 0.5207,-1.65367 -2.8345,-1.75 -60.9543,-1.75 h -61.5053 l -0.6579,3.75 c -0.3619,2.0625 -3.3369,17.36209 -6.6113,33.9991 -3.2744,16.637 -5.9534,31.1495 -5.9534,32.25 0,1.97937 0.6575,2.0009 61.1084,2.0009 h 61.1084 l -0.5463,2.25 c -0.3005,1.2375 -2.8522,14.175 -5.6705,28.75 -2.8183,14.575 -5.37,27.5125 -5.6705,28.75 l -0.5463,2.25 h -60.8916 c -33.4904,0 -60.8916,0.17637 -60.8916,0.39194 0,0.21557 -0.8753,4.82807 -1.9451,10.25 -2.4457,12.3956 -4.9132,25.37486 -6.0565,31.85806 -0.485,2.75 -2.2562,12.2 -3.9361,21 -1.6799,8.8 -3.0562,16.7875 -3.0583,17.75 0,1.64863 3.7346,1.75 64.5378,1.75 h 64.5418 l 2.9582,-6.59322 c 1.627,-3.62627 2.9582,-7.22627 2.9582,-8 0,-2.07393 0.7365,-1.86209 12.1025,3.48113 10.017,4.70905 24.7165,9.89156 34.6433,12.21401 16.6386,3.89272 38.3337,4.89615 51.0464,2.36097 z M 1495.9982,877.25 c -10e-4,-0.9625 -1.5682,-18.85 -3.4827,-39.75 -3.105,-33.89727 -3.975,-45.27113 -6.0432,-79 -0.8676,-14.14821 -1.5473,-19.5 -2.4769,-19.5 -0.4733,0 -1.1808,1.0125 -1.5722,2.25 -0.7886,2.4937 -24.5704,59.9132 -27.4392,66.25 -0.996,2.2 -8.3744,18.4 -16.3966,36 -8.0221,17.6 -14.5861,32.7875 -14.5866,33.75 -7e-4,1.63427 2.3798,1.75 35.9992,1.75 33.6197,0 35.9999,-0.11571 35.9982,-1.75 z m 159.92,154.055 c -5.5471,-7.4415 -6.3689,-9.3016 -4.7658,-10.7872 6.6803,-6.1908 25.6234,-21.80123 35.3476,-29.12885 29.9052,-22.53499 60.4259,-40.56111 92.5,-54.63228 14.8931,-6.53374 38.6433,-15.0527 40.3131,-14.45992 0.6528,0.23175 -0.3881,0.88003 -2.3131,1.44062 -12.3094,3.58471 -45.2218,18.97095 -61.5732,28.78492 -37.2295,22.34477 -64.4009,45.83235 -93.9268,81.19241 l -2,2.3952 z m -15.05,-25.8301 c -4.2549,-8.64517 -5.1479,-7.09796 9.6318,-16.68946 39.8728,-25.87612 78.9253,-44.84231 118.9105,-57.74993 15.4278,-4.98026 40.9888,-11.27081 43.9648,-10.81972 1.1686,0.17713 -1.9253,1.35001 -6.8753,2.60641 -39.5073,10.02761 -80.5883,28.49816 -113.5,51.03117 -12.8671,8.80944 -26.5442,19.67329 -38.1535,30.30553 -5.3094,4.8626 -9.8094,8.8082 -10,8.768 -0.1906,-0.04 -1.9808,-3.3936 -3.9783,-7.452 z M 1964,981.07639 c -23.9242,-8.44088 -30.3557,-11.13489 -51.5,-21.57225 -17.9067,-8.83922 -34.3905,-18.12241 -44.5243,-25.07473 -12.273,-8.42 -13.9568,-9.82336 -12.7246,-10.60579 0.9539,-0.60566 0.9142,-0.79661 -0.1678,-0.80831 -0.7791,-0.008 -1.187,-0.24494 -0.9064,-0.52559 0.2807,-0.28066 4.5474,1.49573 9.4816,3.94752 26.7329,13.28351 63.9926,25.1652 95.8415,30.56279 7.15,1.21174 22.0807,2.94495 33.1793,3.85157 l 20.1792,1.6484 -5.8162,4.64103 -5.8162,4.64102 -13.363,-2.37502 c -40.4924,-7.19672 -80.6036,-20.2135 -116.2145,-37.71359 -6.5182,-3.20323 -12.05,-5.62538 -12.2928,-5.38254 -0.7819,0.78184 16.9562,11.72035 31.0925,19.1738 28.0388,14.78364 65.884,28.09886 95.8017,33.70627 3.7125,0.69583 6.75,1.55741 6.75,1.91464 0,1.37377 -3.0461,3.09066 -4.4962,2.53421 -0.8996,-0.3452 -2.0253,0.22232 -2.7533,1.38812 -0.6774,1.08463 -2.1358,1.94908 -3.241,1.92099 -1.1052,-0.0281 -9.4345,-2.67073 -18.5095,-5.87254 z M 1858.5,925 c -0.3399,-0.55 -1.068,-1 -1.618,-1 -0.55,0 -0.7219,0.45 -0.382,1 0.3399,0.55 1.068,1 1.618,1 0.55,0 0.7219,-0.45 0.382,-1 z m 129.5,25.341 c -28.2351,-1.9425 -59.6604,-6.88614 -85.2778,-13.4154 -10.1978,-2.59917 -38.9918,-12.16428 -44.7222,-14.85632 -5.8555,-2.75081 -2.7092,-2.04418 8.3983,1.88617 11.6013,4.10508 36.2098,10.45577 50.1224,12.93506 23.5569,4.19793 40.2382,5.35824 69.4793,4.8328 27.6161,-0.49623 39.448,-1.70011 61.523,-6.25981 4.2274,-0.8732 7.9438,-1.33001 8.2587,-1.01513 0.8075,0.80747 -4.7382,6.44632 -8.0317,8.16659 -1.5678,0.81888 -2.75,2.27414 -2.75,3.38504 0,1.14645 -1.2146,2.57671 -2.9503,3.47432 -2.4285,1.25579 -7.0721,1.49477 -26.25,1.35097 -12.8149,-0.0961 -25.3247,-0.31402 -27.7997,-0.48429 z m -154.9211,-4.92433 c 0.048,-1.16495 0.285,-1.4019 0.6042,-0.60417 0.2889,0.72187 0.2534,1.58438 -0.079,1.91667 -0.3323,0.33229 -0.5687,-0.25834 -0.5253,-1.3125 z m 13.3655,-6.86111 c -0.3764,-2.00685 -0.4345,-3.89882 -0.1289,-4.20437 0.3055,-0.30556 0.8636,1.08641 1.2401,3.09325 0.3764,2.00685 0.4345,3.89882 0.1289,4.20437 -0.3055,0.30556 -0.8636,-1.08641 -1.2401,-3.09325 z M 1838.1579,936 c 0,-1.375 0.227,-1.9375 0.5044,-1.25 0.2774,0.6875 0.2774,1.8125 0,2.5 -0.2774,0.6875 -0.5044,0.125 -0.5044,-1.25 z m 99.3421,-3.97619 c -14.612,-0.77948 -35.9156,-3.12791 -46,-5.07086 -17.409,-3.35416 -20.989,-4.10863 -21.3877,-4.50731 -0.7232,-0.72324 1.3836,-0.52936 11.1485,1.02592 55.401,8.8239 112.3997,4.54387 164.6944,-12.36688 6.8503,-2.21523 12.5853,-3.89754 12.7443,-3.73848 0.1591,0.15906 1.1604,2.92991 2.2252,6.15745 2.1449,6.50175 1.5681,9.10604 -2.2036,9.94936 -29.5815,6.61419 -84.6746,10.5004 -121.2211,8.5508 z M 1839.1579,929 c 0,-1.375 0.227,-1.9375 0.5044,-1.25 0.2774,0.6875 0.2774,1.8125 0,2.5 -0.2774,0.6875 -0.5044,0.125 -0.5044,-1.25 z m -7.5549,-4.83333 c -0.2833,-0.45834 0.1204,-0.83334 0.897,-0.83334 0.7766,0 1.1803,0.375 0.897,0.83334 -0.2833,0.45833 -0.6869,0.83333 -0.897,0.83333 -0.2101,0 -0.6137,-0.375 -0.897,-0.83333 z M 1822,921.04569 c 0.825,-0.55829 2.3625,-1.02196 3.4167,-1.03038 2.5584,-0.0204 1.7602,0.55192 -1.9167,1.37439 -2.1909,0.49007 -2.5955,0.3973 -1.5,-0.34401 z M 1864,921 c -2.0097,-0.64363 -2.1078,-0.8064 -0.5,-0.83003 1.1,-0.0162 2.9,0.35734 4,0.83003 2.5482,1.09501 -0.081,1.09501 -3.5,0 z m 10.5038,-1.07193 c -14.3571,-1.47707 -12.3013,-1.9334 5.9962,-1.33098 26.7771,0.8816 53.395,-1.18022 83.7539,-6.4876 23.8712,-4.1732 59.7499,-16.58962 86.1004,-29.79652 4.8698,-2.44078 9.081,-4.21104 9.3581,-3.93392 0.6125,0.61256 0.6471,10.99266 0.05,15.04948 -0.345,2.34405 -1.2125,3.20931 -4.3467,4.33537 -11.0882,3.98373 -40.265,11.69692 -53.9158,14.25321 -11.7042,2.19177 -30.5099,5.12517 -42,6.55139 -15.3273,1.9025 -71.0545,2.79389 -84.9962,1.35957 z M 1855.5,919.0443 c -1.8559,-0.7564 -1.8092,-0.86539 0.6483,-1.5126 1.4565,-0.3836 3.7065,-0.49645 5,-0.25076 1.7572,0.33377 1.4669,0.49889 -1.1483,0.65316 -2.9165,0.17205 -3.1666,0.34974 -1.5,1.0659 2.6031,1.11858 -0.2604,1.16087 -3,0.0443 z m -0.9929,-10.03285 c -0.3504,-0.56686 0.051,-0.7345 0.941,-0.39301 1.7324,0.66479 2.0493,1.38156 0.6109,1.38156 -0.5175,0 -1.2159,-0.44485 -1.5519,-0.98855 z m -28.5428,-5.3819 c -2.0908,-1.95682 -19.356,-13.61549 -26.5326,-17.91664 -35.241,-21.12114 -75.3065,-36.74176 -113.1813,-44.12674 -12.9406,-2.52322 -33.9507,-5.32197 -43.7504,-5.82799 -4.3325,-0.22371 -5.0427,-0.55899 -5.32,-2.51148 -0.176,-1.23932 0.6079,-3.43287 1.7419,-4.87456 1.6142,-2.05216 1.9274,-3.46266 1.4422,-6.4967 -0.4032,-2.52116 -0.2365,-3.87544 0.4768,-3.87544 1.0594,0 11.6541,2.80604 34.6591,9.17955 34.8751,9.66211 73.9801,26.06904 104.5,43.84415 20.1358,11.72729 51.7057,33.83783 48.4643,33.94277 -0.5697,0.0184 -1.6947,-0.58317 -2.5,-1.33692 z M 1843.1949,897.5 c 0.02,-1.65 0.2445,-2.20394 0.4981,-1.23097 0.2535,0.97297 0.2369,2.32297 -0.037,3 -0.2739,0.67703 -0.4813,-0.11903 -0.461,-1.76903 z m 1.884,0.91667 c 0.048,-1.16495 0.285,-1.4019 0.6042,-0.60417 0.2889,0.72187 0.2534,1.58438 -0.079,1.91667 -0.3323,0.33229 -0.5687,-0.25834 -0.5253,-1.3125 z M 1392.5,611.82547 c -10.4436,-4.62922 -17.8995,-5.81191 -29.9084,-4.74419 -11.7475,1.04447 -14.7832,1.50413 -23.5916,3.57217 l -6.5,1.52607 -13.5,-8.47006 C 1299.9397,591.75083 1277.9946,579.34629 1252.2875,566 1228.8363,553.82493 1228,553.14248 1228,546.18079 c 0,-2.60054 -0.8529,-4.77502 -2.8253,-7.20295 -1.554,-1.91281 -3.108,-4.24744 -3.4534,-5.18807 -0.3454,-0.94063 -2.2022,-2.74063 -4.1262,-4 -3.5741,-2.33945 -5.5951,-5.47544 -5.5951,-8.68184 0,-2.69594 -3.4741,-5.40961 -5.9283,-4.63068 -1.6123,0.51172 -2.0717,0.22494 -2.0717,-1.29323 0,-1.07292 -0.8503,-2.17312 -1.8896,-2.44489 -1.4398,-0.37653 -1.9955,-1.65375 -2.3349,-5.36663 -0.245,-2.67988 -0.055,-5.3145 0.4218,-5.85472 1.7097,-1.93655 8.5637,-0.6247 24.8027,4.74724 46.0544,15.23499 92.6175,38.09267 128.3906,63.02645 11.7279,8.17435 48.4067,36.54577 54.0365,41.79778 0.829,0.77339 -5.0657,3.97021 -7.145,3.8749 -0.4301,-0.0197 -3.9321,-1.43212 -7.7821,-3.13868 z m 11.2778,-31.61824 c -30.8581,-30.10361 -43.5844,-41.01514 -73.2778,-62.8283 -34.5876,-25.40846 -95.7545,-64.7767 -131.75,-84.79682 -3.7125,-2.06483 -6.75,-4.11762 -6.75,-4.56175 0,-0.44413 2.25,-5.13445 5,-10.42292 2.75,-5.28848 5,-10.28637 5,-11.10643 0,-2.45998 3.1647,-1.78991 23.2798,4.92907 61.6485,20.59229 114.8957,50.1963 164.7664,91.6058 12.3879,10.28609 85.9538,82.77191 85.9538,84.6918 0,0.55337 -3.0375,1.31625 -6.75,1.6953 -10.3879,1.06059 -15.0745,2.56539 -18.4252,5.91611 -2.7099,2.70985 -3.8091,3.09117 -9.5216,3.30296 -3.552,0.13168 -7.4358,0.86449 -8.6307,1.62845 -5.1176,3.27197 -4.6578,3.59107 -28.8947,-20.05327 z"
         id="path2" />
    </g>
  </g>
</svg>
