<?xml version="1.0" encoding="UTF-8" standalone="no"?>
<!-- Created with Inkscape (http://www.inkscape.org/) -->

<svg
   width="255.32292mm"
   height="52.916668mm"
   viewBox="0 0 255.32292 52.916668"
   version="1.1"
   id="svg1"
   xml:space="preserve"
   inkscape:version="1.3.2 (091e20e, 2023-11-25)"
   sodipodi:docname="crosslake-logo.svg"
   xmlns:inkscape="http://www.inkscape.org/namespaces/inkscape"
   xmlns:sodipodi="http://sodipodi.sourceforge.net/DTD/sodipodi-0.dtd"
   xmlns="http://www.w3.org/2000/svg"
   xmlns:svg="http://www.w3.org/2000/svg"><sodipodi:namedview
     id="namedview1"
     pagecolor="#ffffff"
     bordercolor="#000000"
     borderopacity="0.25"
     inkscape:showpageshadow="2"
     inkscape:pageopacity="0.0"
     inkscape:pagecheckerboard="0"
     inkscape:deskcolor="#d1d1d1"
     inkscape:document-units="mm"
     showgrid="false"
     inkscape:zoom="0.67133303"
     inkscape:cx="520.60599"
     inkscape:cy="-256.20667"
     inkscape:window-width="2496"
     inkscape:window-height="1387"
     inkscape:window-x="1920"
     inkscape:window-y="25"
     inkscape:window-maximized="1"
     inkscape:current-layer="layer1" /><defs
     id="defs1" /><g
     inkscape:label="Layer 1"
     inkscape:groupmode="layer"
     id="layer1"
     transform="translate(17.996159,-78.810577)"><g
       id="g1"
       transform="translate(-0.24424337)"><path
         style="fill:#fefefe"
         d="M -17.996159,105.26891 V 78.810577 H 109.6653 237.32676 v 26.458333 26.45834 H 109.6653 -17.996159 Z m 68.598471,23.95292 c 4.349186,-0.92161 7.749375,-3.88136 9.247721,-8.04983 0.757622,-2.10774 0.742134,-5.92431 -0.03286,-8.09788 -1.687438,-4.73263 -5.786516,-7.8029 -11.006036,-8.2437 -6.534568,-0.55185 -12.356054,3.97966 -13.394582,10.42651 -1.038261,6.44519 3.19006,12.55181 9.666849,13.96104 2.122554,0.46183 3.353646,0.46269 5.518911,0.004 z m -5.44172,-4.2262 c -3.604202,-1.28565 -5.721546,-4.62542 -5.408093,-8.53039 0.254761,-3.17378 1.939343,-5.5435 4.906385,-6.90186 1.246818,-0.57081 1.701862,-0.6388 3.583948,-0.53545 1.516013,0.0832 2.487435,0.2895 3.273255,0.69501 4.991195,2.57562 5.99055,9.56174 1.931312,13.50109 -1.98327,1.9247 -5.656272,2.70993 -8.286807,1.7716 z m -44.65998232,3.8491 c 1.80592202,-0.56207 3.75551712,-1.72405 4.90408522,-2.9229 0.7604201,-0.79371 0.7624682,-0.80451 0.2583427,-1.36293 -0.2794848,-0.30958 -0.9622191,-0.92295 -1.5171874,-1.36305 l -1.0090333,-0.80017 -0.8430501,0.81577 c -1.44165185,1.39501 -3.19016056,2.02598 -5.6055501,2.02284 -2.7172198,-0.004 -4.4358491,-0.72405 -6.0745555,-2.54668 -2.8739842,-3.19657 -2.7704032,-8.42381 0.2263043,-11.42052 1.4949596,-1.49496 2.9048911,-2.09932 5.220297,-2.23766 2.4365843,-0.14558 4.13362208,0.3409 5.9035382,1.69233 1.345569,1.02742 1.2685002,1.04269 3.1624955,-0.62652 1.1223067,-0.98911 1.0853148,-1.15293 -0.5714169,-2.53051 -3.68851603,-3.06702 -9.0164283,-3.6325 -13.6152471,-1.44505 -3.1146212,1.48149 -5.1922772,3.83122 -6.3062312,7.13205 -0.470637,1.39458 -0.548724,2.13885 -0.46716,4.4526 0.08648,2.45307 0.195868,2.98626 0.934939,4.557 1.445686,3.07251 4.252916,5.55748 7.4230108,6.57088 2.0983155,0.67078 5.842541,0.67665 7.97641888,0.0125 z m 77.56510732,0.0795 c 2.019899,-0.59285 4.006011,-2.63035 4.476743,-4.59258 0.444233,-1.85178 0.199525,-3.99659 -0.614451,-5.38554 -0.893852,-1.52524 -2.60368,-2.6799 -6.179677,-4.17318 -3.6651,-1.53049 -4.25597,-1.89936 -4.481422,-2.79763 -0.439356,-1.75053 0.931826,-3.07919 3.157113,-3.05919 1.580147,0.0142 2.739144,0.4907 3.691396,1.51766 l 0.613926,0.66209 1.695841,-1.19414 1.695841,-1.19415 -1.465586,-1.41954 c -1.886267,-1.82699 -3.493245,-2.41594 -6.576598,-2.41028 -1.798287,0.003 -2.496483,0.12507 -3.484166,0.60769 -1.567427,0.7659 -3.271685,2.60365 -3.638023,3.92298 -1.034428,3.72538 0.795128,6.75583 5.149398,8.52938 3.947653,1.60794 5.396801,2.40854 5.811636,3.21075 0.496478,0.96008 0.498996,1.67165 0.0093,2.61868 -1.293396,2.50115 -6.85124,1.91493 -8.684682,-0.91603 -0.323064,-0.49883 -0.677334,-0.90844 -0.787265,-0.91024 -0.109931,-0.002 -0.904413,0.43712 -1.765516,0.97539 -1.563312,0.97722 -1.565075,0.97977 -1.184241,1.71622 0.969644,1.87509 2.791969,3.42291 4.940295,4.19611 1.780732,0.64091 5.598934,0.68879 7.620169,0.0955 z m 22.175493,0.01 c 4.71327,-1.39969 6.3753,-7.80704 2.88428,-11.11922 -1.50124,-1.42433 -1.97952,-1.70026 -5.524475,-3.18717 -3.478389,-1.45899 -4.207588,-2.0471 -4.207588,-3.39348 0,-1.14685 0.662074,-1.87225 2.036565,-2.23136 1.707828,-0.44619 3.607272,0.10196 4.810268,1.38819 l 0.62912,0.67265 1.55369,-1.05509 c 0.85453,-0.5803 1.55369,-1.20508 1.55369,-1.38841 0,-0.49705 -1.83069,-2.16855 -3.07707,-2.8095 -2.719364,-1.39844 -6.630266,-1.32295 -9.052713,0.17473 -2.709635,1.67524 -3.724929,5.238 -2.314323,8.12117 0.998051,2.03995 2.324824,2.95808 6.727685,4.65559 3.597306,1.38693 4.810791,2.89648 3.889351,4.83827 -0.851479,1.79436 -3.831829,2.33273 -6.3702,1.15071 -1.234166,-0.5747 -2.767313,-1.99802 -2.767313,-2.56907 0,-0.13435 -0.130882,-0.24428 -0.290849,-0.24428 -0.368076,0 -3.413318,1.86945 -3.413318,2.0954 0,0.29657 0.845172,1.44727 1.825441,2.48533 1.155889,1.22403 2.345778,1.98685 3.816581,2.44674 1.5593,0.48756 5.602572,0.47026 7.291178,-0.0312 z m -83.312368,-4.08585 v -4.23333 h 1.923183 1.923183 l 2.508588,4.22639 2.508588,4.22639 2.447396,0.007 c 1.346068,0.004 2.447396,-0.0961 2.447396,-0.22202 0,-0.12594 -1.241328,-2.27057 -2.758507,-4.76586 l -2.758507,-4.53688 0.707986,-0.37095 c 0.938603,-0.49178 2.256801,-1.91455 2.834941,-3.05982 0.256522,-0.50816 0.522835,-1.71263 0.591806,-2.67659 0.17944,-2.50791 -0.442368,-4.21176 -2.166115,-5.93551 -2.041476,-2.04148 -2.860578,-2.23793 -9.331029,-2.23793 h -5.376826 v 11.90625 11.90625 h 2.248959 2.248958 z m 0,-11.90625 v -3.70417 h 2.52204 c 2.968053,0 4.115902,0.38526 4.879511,1.63773 0.700049,1.14821 0.700795,2.92788 0.0017,4.05903 -0.765197,1.23812 -2.155868,1.71157 -5.027357,1.71157 H 16.92884 Z m 108.424148,14.08906 -0.0773,-2.05052 -4.69636,-0.0722 -4.69635,-0.0722 v -9.78348 -9.78348 h -2.24896 -2.24896 v 11.90625 11.90625 h 7.02259 7.02259 z m 9.77022,-0.40237 0.92795,-2.3206 5.18446,0.0716 5.18446,0.0716 0.91564,2.31511 0.91565,2.3151 h 2.33666 c 1.28515,0 2.33577,-0.0893 2.3347,-0.19844 -0.001,-0.10914 -2.18591,-5.43718 -4.85521,-11.8401 l -4.85327,-11.64167 -1.97316,-0.0764 -1.97315,-0.0764 -4.87945,11.68425 c -2.68369,6.42634 -4.92066,11.79337 -4.97105,11.92673 -0.0526,0.13935 0.94398,0.20998 2.3431,0.16607 l 2.43473,-0.0764 z m 2.57575,-6.4768 c 1.29111,-3.38257 3.44981,-8.49066 3.54709,-8.39338 0.0692,0.0692 0.92629,2.09017 1.90469,4.49109 l 1.7789,4.36532 h -3.7037 c -3.41828,0 -3.69009,-0.0357 -3.52698,-0.46303 z m 25.80905,5.47239 v -3.45731 l 1.36994,-1.55633 c 0.75347,-0.85598 1.4541,-1.50432 1.55696,-1.44075 0.10285,0.0636 1.77085,2.31971 3.70665,5.01364 l 3.51965,4.89805 h 2.62675 2.62674 l -0.47652,-0.7276 c -0.26209,-0.40018 -2.31445,-3.28745 -4.5608,-6.41615 -2.24634,-3.1287 -4.14209,-5.83777 -4.21276,-6.02016 -0.10508,-0.27121 4.8803,-6.2037 8.22596,-9.78869 l 0.80249,-0.8599 -2.76388,0.016 -2.76389,0.016 -4.7625,5.42535 -4.7625,5.42536 -0.0715,-5.44137 -0.0715,-5.44138 h -2.24359 -2.2436 v 11.90625 11.90625 h 2.24896 2.24896 z m 36.5125,1.34064 v -2.11667 h -5.42396 -5.42395 v -3.04271 -3.04271 h 5.02708 5.02708 v -2.11667 -2.11666 h -5.02708 -5.02708 v -2.64584 -2.64583 h 5.42395 5.42396 v -1.98437 -1.98438 h -7.67291 -7.67292 v 11.90625 11.90625 h 7.67292 7.67291 z m 13.96214,-23.34948 0.0715,-5.490109 h 5.94775 5.94776 v -2.139404 -2.139404 l -5.6224,0.09181 c -6.25175,0.102087 -6.78304,0.23286 -8.58555,2.113291 -1.55051,1.617547 -1.76537,2.497917 -1.87983,7.702596 -0.0569,2.58657 -0.034,4.88377 0.0508,5.1049 0.12246,0.31913 0.55067,0.386 2.07633,0.32423 l 1.92206,-0.0778 z m 15.40661,-7.342192 c 0,-1.426279 0.0553,-1.5875 0.54478,-1.5875 0.29963,0 0.4712,-0.119063 0.38126,-0.264584 -0.0899,-0.14552 -0.62571,-0.264583 -1.19062,-0.264583 -0.56491,0 -1.10069,0.119063 -1.19063,0.264583 -0.0899,0.145521 0.0816,0.264584 0.38126,0.264584 0.48946,0 0.54479,0.161221 0.54479,1.5875 0,0.881944 0.11759,1.5875 0.26458,1.5875 0.14699,0 0.26458,-0.705556 0.26458,-1.5875 z m 1.90302,0.463021 0.0814,-1.12448 0.52891,0.874864 0.52891,0.874864 0.59425,-0.742572 0.59426,-0.742572 0.001,0.992187 c 7.3e-4,0.545703 0.12038,0.992188 0.2659,0.992188 0.1526,0 0.26209,-0.811877 0.2587,-1.918229 l -0.006,-1.91823 -0.51891,0.661459 c -0.28541,0.363802 -0.58844,0.869818 -0.67341,1.124479 -0.23889,0.715958 -0.56118,0.557258 -1.20896,-0.595313 -0.32715,-0.582083 -0.69195,-1.058333 -0.81068,-1.058333 -0.11872,0 -0.21586,0.833438 -0.21586,1.852083 0,2.004616 0.44713,2.565438 0.5801,0.727605 z m -22.65476,-0.910348 c 1.58473,-0.84315 2.93716,-2.477528 3.41755,-4.130021 0.31907,-1.097574 0.39735,-2.450281 0.3413,-5.897918 l -0.0727,-4.473693 h -1.98438 -1.98437 l -0.0715,5.485057 -0.0715,5.485057 -5.88163,0.07119 -5.88162,0.07119 -0.0798,1.691924 c -0.0439,0.930558 -0.0138,1.863694 0.0667,2.073635 0.12272,0.319792 1.03695,0.366669 5.63602,0.288984 5.01908,-0.08478 5.58178,-0.141805 6.56592,-0.665411 z"
         id="path8" /><path
         style="fill:#bedef4"
         d="m 196.42671,96.179064 c -0.0757,-0.197228 -0.10171,-1.119963 -0.0578,-2.050521 l 0.0798,-1.691924 5.88162,-0.07119 5.88163,-0.07119 0.0715,-5.485057 0.0715,-5.485057 h 1.98437 1.98438 l 0.01,4.7625 0.01,4.7625 -0.082,-4.696354 -0.0819,-4.696354 h -1.84598 -1.84598 v 5.55625 5.55625 h -5.95313 -5.95312 v 1.84637 1.846371 l 5.09323,0.07792 5.09323,0.07792 -5.10154,0.06009 c -4.0904,0.04818 -5.1288,-0.01099 -5.23914,-0.298511 z"
         id="path7" /><path
         style="fill:#cdcdcd"
         d="m 47.157489,129.42107 c 0.400182,-0.0606 1.055026,-0.0606 1.455208,0 0.400182,0.0606 0.07276,0.11022 -0.727604,0.11022 -0.800365,0 -1.127787,-0.0496 -0.727604,-0.11022 z m -30.385521,-4.57299 c 0,-2.4011 0.04011,-3.38336 0.08914,-2.18281 0.04903,1.20054 0.04903,3.16507 0,4.36562 -0.04903,1.20055 -0.08914,0.21828 -0.08914,-2.18281 z m 108.423282,2.32121 -0.0518,-2.04442 -4.69636,-0.0788 -4.69635,-0.0788 4.70466,-0.0596 c 3.74592,-0.0475 4.73257,0.0131 4.84164,0.29734 0.0753,0.19634 0.0949,1.1786 0.0435,2.18281 l -0.0935,1.82583 z m -86.590599,-1.46132 -0.641433,-0.7276 0.727604,0.64143 c 0.680055,0.59952 0.848939,0.81378 0.641433,0.81378 -0.04739,0 -0.374816,-0.32742 -0.727604,-0.72761 z m 18.143984,0.19844 c 0.263389,-0.29104 0.53842,-0.52916 0.61118,-0.52916 0.07276,0 -0.08321,0.23812 -0.346597,0.52916 -0.263389,0.29104 -0.538421,0.52917 -0.611181,0.52917 -0.07276,0 0.08321,-0.23813 0.346598,-0.52917 z m 132.273915,-1.14148 c -0.0734,-0.19125 -0.0949,-1.64977 -0.0479,-3.24115 l 0.0856,-2.89341 0.0562,3.10349 0.0562,3.10348 5.4901,0.0772 5.4901,0.0772 -5.4984,0.0605 c -4.34134,0.0478 -5.52649,-0.0127 -5.63185,-0.28726 z M 2.5090501,122.996 c 0.2633891,-0.29105 0.5384206,-0.52917 0.611181,-0.52917 0.07276,0 -0.083209,0.23812 -0.3465976,0.52917 -0.2633891,0.29104 -0.5384205,0.52916 -0.6111809,0.52916 -0.07276,0 0.083208,-0.23812 0.3465975,-0.52916 z M 104.84619,122.33454 c 0.002,-0.72761 0.0534,-0.99386 0.11418,-0.59168 0.0608,0.40219 0.0592,0.9975 -0.004,1.32292 -0.0628,0.32542 -0.11256,-0.004 -0.11057,-0.73124 z m 59.72016,-1.55511 c 0,-0.0549 0.20835,-0.2633 0.46302,-0.46302 0.41964,-0.3291 0.429,-0.31975 0.0999,0.0999 -0.34564,0.44073 -0.56291,0.58088 -0.56291,0.36312 z M 35.226869,117.96891 c 0,-0.3638 0.06005,-0.51263 0.133452,-0.33073 0.0734,0.1819 0.0734,0.47956 0,0.66146 -0.0734,0.1819 -0.133452,0.0331 -0.133452,-0.33073 z m 25.165704,-0.79375 c 0,-0.65484 0.0516,-0.92273 0.114662,-0.59531 0.06306,0.32742 0.06306,0.8632 0,1.19062 -0.06306,0.32743 -0.114662,0.0595 -0.114662,-0.59531 z m 20.531688,0.59531 c -0.329107,-0.41964 -0.319749,-0.429 0.0999,-0.0999 0.440729,0.34564 0.580887,0.56292 0.363126,0.56292 -0.05494,0 -0.263302,-0.20836 -0.463021,-0.46303 z m -45.697392,-1.38906 c 0,-0.3638 0.06005,-0.51263 0.133452,-0.33073 0.0734,0.1819 0.0734,0.47956 0,0.66146 -0.0734,0.1819 -0.133452,0.0331 -0.133452,-0.33073 z m -18.457466,-3.43958 c 0,-2.11005 0.04109,-2.97326 0.09131,-1.91823 0.05022,1.05503 0.05022,2.78143 0,3.83646 -0.05022,1.05502 -0.09131,0.19182 -0.09131,-1.91823 z m 73.679858,2.71198 c -0.329107,-0.41965 -0.319749,-0.429 0.09989,-0.0999 0.254662,0.19972 0.463021,0.40808 0.463021,0.46302 0,0.21776 -0.217272,0.0776 -0.562916,-0.36312 z m 98.572199,-1.21048 c -0.074,-0.19281 -0.095,-1.47274 -0.0466,-2.84427 l 0.0879,-2.49369 0.0549,2.70627 0.0549,2.70626 5.09322,0.0779 5.09323,0.0779 -5.10153,0.0601 c -4.03393,0.0475 -5.12969,-0.0133 -5.23606,-0.2905 z m -89.047199,-4.34577 c -0.329107,-0.41965 -0.319749,-0.429 0.0999,-0.0999 0.25466,0.19972 0.46302,0.40808 0.46302,0.46302 0,0.21776 -0.21727,0.0776 -0.562917,-0.36312 z m 68.825419,0.0985 c 0,-0.0549 0.20836,-0.2633 0.46302,-0.46302 0.41964,-0.32911 0.429,-0.31975 0.0999,0.0999 -0.34564,0.44073 -0.56291,0.58089 -0.56291,0.36313 z m -111.938779,-1.68604 -0.641433,-0.72761 0.727604,0.64144 c 0.680056,0.59951 0.848939,0.81377 0.641433,0.81377 -0.04739,0 -0.374816,-0.32742 -0.727604,-0.7276 z m 142.985729,-1.25677 c 9.6e-4,-1.16417 0.0475,-1.60751 0.10337,-0.9852 0.0559,0.62231 0.0551,1.57481 -0.002,2.11667 -0.0568,0.54186 -0.10258,0.0327 -0.10162,-1.13147 z m 10.08511,1.65515 c -0.0744,-0.1939 -0.0993,-2.31251 -0.0553,-4.70802 l 0.08,-4.355467 0.0591,4.564067 0.0591,4.56406 h 1.84671 1.84672 l 0.0715,-5.49011 0.0715,-5.4901 5.95312,-0.0075 5.95313,-0.0075 -5.88163,0.07855 -5.88162,0.07855 -0.0715,5.48515 -0.0715,5.48515 -1.92206,0.0778 c -1.41381,0.0572 -1.95783,-0.0154 -2.05734,-0.27474 z M -12.5722,108.44391 c 0.263389,-0.29104 0.53842,-0.52917 0.611181,-0.52917 0.07276,0 -0.08321,0.23813 -0.346598,0.52917 -0.263389,0.29104 -0.53842,0.52917 -0.611181,0.52917 -0.07276,0 0.08321,-0.23813 0.346598,-0.52917 z m 8.934723,0.34581 c 0.257431,-0.0671 0.6146185,-0.0627 0.7937501,0.01 0.1791315,0.0725 -0.031494,0.12736 -0.4680564,0.12197 -0.4365625,-0.005 -0.5831247,-0.0647 -0.3256937,-0.13178 z m 51.059549,9.7e-4 c 0.254661,-0.0665 0.67138,-0.0665 0.926042,0 0.254661,0.0666 0.0463,0.121 -0.463021,0.121 -0.509323,0 -0.717683,-0.0544 -0.463021,-0.121 z m 43.19323,-1.93428 c 0.263389,-0.29104 0.53842,-0.52917 0.611181,-0.52917 0.07276,0 -0.08321,0.23813 -0.346598,0.52917 -0.263389,0.29104 -0.53842,0.52917 -0.611181,0.52917 -0.07276,0 0.08321,-0.23813 0.346598,-0.52917 z m -44.367319,-2.03282 c 0.190996,-0.0764 0.4192,-0.067 0.507118,0.0209 0.08792,0.0879 -0.06835,0.15045 -0.347265,0.13896 -0.308225,-0.0127 -0.370919,-0.0754 -0.159853,-0.15985 z M 218.22469,93.958908 c 1.49933,-0.04725 3.88058,-0.04706 5.29167,4.26e-4 1.41109,0.04748 0.18436,0.08614 -2.72606,0.0859 -2.91041,-2.34e-4 -4.06494,-0.03908 -2.56561,-0.08633 z"
         id="path6" /><path
         style="fill:#b2b2b2"
         d="m 230.79687,96.008494 c 0,-0.945885 0.048,-1.332838 0.10671,-0.859895 0.0587,0.472942 0.0587,1.246849 0,1.719791 -0.0587,0.472943 -0.10671,0.08599 -0.10671,-0.859896 z m -2.2675,-1.774225 c 0.32742,-0.06306 0.8632,-0.06306 1.19062,0 0.32742,0.06306 0.0595,0.114662 -0.59531,0.114662 -0.65484,0 -0.92273,-0.0516 -0.59531,-0.114662 z"
         id="path5" /><path
         style="fill:#959595"
         d="m 13.423113,128.88768 c 0.618463,-0.0557 1.630495,-0.0557 2.248958,0 0.618464,0.0557 0.112448,0.10128 -1.124479,0.10128 -1.236927,0 -1.742943,-0.0456 -1.124479,-0.10128 z m 13.626042,-7.5e-4 c 0.691224,-0.0545 1.822318,-0.0545 2.513542,0 0.691223,0.0545 0.125677,0.0991 -1.256771,0.0991 -1.382448,0 -1.947995,-0.0446 -1.256771,-0.0991 z m 84.457055,-0.13625 c -0.0698,-0.1819 -0.0945,-5.56948 -0.055,-11.97239 l 0.0719,-11.64167 0.0633,11.83564 0.0633,11.83563 6.81302,0.0753 6.81302,0.0753 -6.82133,0.0615 c -5.25906,0.0474 -6.85038,-0.0143 -6.94818,-0.26925 z m 19.12732,0.137 c 0.61847,-0.0557 1.6305,-0.0557 2.24896,0 0.61846,0.0557 0.11245,0.10128 -1.12448,0.10128 -1.23693,0 -1.74294,-0.0456 -1.12448,-0.10128 z m 18.3224,0.0297 c 1.53223,-0.19635 3.91044,-0.21789 3.79633,-0.0344 -0.0679,0.10915 -1.09863,0.1806 -2.29059,0.1588 -1.19196,-0.0218 -1.86954,-0.0778 -1.50574,-0.12441 z m 10.17528,-0.16668 c -0.0698,-0.1819 -0.0945,-5.56948 -0.055,-11.97239 l 0.0719,-11.64167 0.0633,11.82897 0.0633,11.82898 2.05052,0.0902 2.05052,0.0902 -2.05882,0.0532 c -1.44432,0.0374 -2.09669,-0.0455 -2.18569,-0.27749 z m 15.82003,0.13625 c 0.69123,-0.0545 1.82232,-0.0545 2.51354,0 0.69123,0.0545 0.12568,0.0991 -1.25677,0.0991 -1.38245,0 -1.94799,-0.0446 -1.25677,-0.0991 z m 13.49375,-0.003 c 2.14643,-0.0445 5.65878,-0.0445 7.80521,0 2.14643,0.0445 0.39026,0.0809 -3.9026,0.0809 -4.29287,0 -6.04904,-0.0364 -3.90261,-0.0809 z m -85.65885,-1.65421 c 0.26338,-0.29104 0.53842,-0.52917 0.61118,-0.52917 0.0728,0 -0.0832,0.23813 -0.3466,0.52917 -0.26339,0.29104 -0.53842,0.52917 -0.61118,0.52917 -0.0728,0 0.0832,-0.23813 0.3466,-0.52917 z m -35.743894,-0.59531 -0.504028,-0.59532 0.595313,0.50403 c 0.327421,0.27722 0.595312,0.54511 0.595312,0.59531 0,0.21174 -0.212935,0.0554 -0.686597,-0.50402 z M 5.0225919,126.0711 c 0,-0.0549 0.2083593,-0.2633 0.4630208,-0.46302 0.4196439,-0.32911 0.4290023,-0.31975 0.099895,0.0999 -0.3456436,0.44073 -0.5629156,0.58089 -0.5629156,0.36313 z m 42.0191411,-0.61001 c 0.190996,-0.0764 0.4192,-0.067 0.507118,0.0209 0.08792,0.0879 -0.06835,0.15045 -0.347265,0.13896 -0.308225,-0.0127 -0.370919,-0.0754 -0.159853,-0.15985 z m 1.322917,0 c 0.190996,-0.0764 0.419199,-0.067 0.507118,0.0209 0.08792,0.0879 -0.06835,0.15045 -0.347266,0.13896 -0.308224,-0.0127 -0.370919,-0.0754 -0.159852,-0.15985 z m 25.515756,-0.002 c 0.254661,-0.0666 0.67138,-0.0666 0.926041,0 0.254662,0.0665 0.0463,0.121 -0.46302,0.121 -0.509323,0 -0.717683,-0.0545 -0.463021,-0.121 z m 22.225,0 c 0.254662,-0.0666 0.67138,-0.0666 0.926042,0 0.254661,0.0665 0.0463,0.121 -0.463021,0.121 -0.509323,0 -0.717682,-0.0545 -0.463021,-0.121 z m -4.333228,-1.86813 c -0.329108,-0.41965 -0.319749,-0.429 0.0999,-0.0999 0.440729,0.34565 0.580887,0.56292 0.363126,0.56292 -0.05494,0 -0.263302,-0.20836 -0.463021,-0.46302 z m -50.006251,-0.52917 c -0.329108,-0.41964 -0.319749,-0.429 0.0999,-0.0999 0.440729,0.34564 0.580887,0.56291 0.363126,0.56291 -0.05494,0 -0.263302,-0.20836 -0.463021,-0.46302 z m 40.846307,-0.7276 c 0.0029,-0.58209 0.05712,-0.78906 0.120406,-0.45994 0.06329,0.32912 0.06088,0.80537 -0.0053,1.05833 -0.06622,0.25297 -0.118003,-0.0163 -0.115066,-0.59839 z m 108.743176,-3.76913 c 1.41883,-0.0476 3.74055,-0.0476 5.15937,0 1.41883,0.0476 0.25797,0.0865 -2.57968,0.0865 -2.83766,0 -3.99852,-0.0389 -2.57969,-0.0865 z M 66.712286,111.35433 c 0,-0.3638 0.06005,-0.51263 0.133452,-0.33073 0.0734,0.1819 0.0734,0.47956 0,0.66146 -0.0734,0.1819 -0.133452,0.0331 -0.133452,-0.33073 z m -25.177193,0.16469 c 0,-0.0549 0.208359,-0.2633 0.46302,-0.46302 0.419644,-0.32911 0.429003,-0.31975 0.0999,0.0999 -0.345643,0.44073 -0.562915,0.58089 -0.562915,0.36313 z m 29.389638,-0.31903 c 0.0127,-0.30823 0.07539,-0.37092 0.159853,-0.15985 0.07643,0.19099 0.06703,0.41919 -0.02089,0.50711 -0.08792,0.0879 -0.150453,-0.0684 -0.138965,-0.34726 z m 9.74867,-3.74827 -0.641433,-0.7276 0.727605,0.64143 c 0.680055,0.59952 0.848939,0.81378 0.641433,0.81378 -0.04739,0 -0.374816,-0.32742 -0.727605,-0.72761 z m -53.724141,0 c -0.329107,-0.41964 -0.319749,-0.429 0.0999,-0.0999 0.440729,0.34564 0.580887,0.56291 0.363126,0.56291 -0.05494,0 -0.263302,-0.20835 -0.463021,-0.46302 z M -3.7717193,104.8172 c 0.3291185,-0.0633 0.8053685,-0.0609 1.0583333,0.005 0.2529648,0.0662 -0.016314,0.118 -0.5983973,0.11506 -0.5820834,-0.003 -0.7890546,-0.0571 -0.459936,-0.1204 z m 51.0645843,0 c 0.329119,-0.0633 0.805369,-0.0609 1.058333,0.005 0.252965,0.0662 -0.01631,0.118 -0.598397,0.11506 -0.582083,-0.003 -0.789055,-0.0571 -0.459936,-0.1204 z m 26.458334,0 c 0.329118,-0.0633 0.805368,-0.0609 1.058333,0.005 0.252965,0.0662 -0.01631,0.118 -0.598397,0.11506 -0.582083,-0.003 -0.789055,-0.0571 -0.459936,-0.1204 z m 22.089624,0.005 c 0.254661,-0.0665 0.67138,-0.0665 0.926042,0 0.254661,0.0666 0.0463,0.121 -0.463021,0.121 -0.509323,0 -0.717683,-0.0544 -0.463021,-0.121 z M 225.77405,96.008494 c 0,-1.091406 0.0467,-1.53789 0.10379,-0.992187 0.0571,0.545703 0.0571,1.438672 0,1.984375 -0.0571,0.545703 -0.10379,0.09922 -0.10379,-0.992188 z m 7.95389,1.480396 c -0.0784,-0.204428 -0.101,-0.769975 -0.0501,-1.256771 0.0811,-0.776023 0.1081,-0.730224 0.21899,0.371688 0.1297,1.288851 0.082,1.538848 -0.16887,0.885083 z m -4.86784,-1.348104 c 0,-0.800364 0.11906,-1.455208 0.26458,-1.455208 0.14552,0 0.26458,0.654844 0.26458,1.455208 0,0.800365 -0.11906,1.455209 -0.26458,1.455209 -0.14552,0 -0.26458,-0.654844 -0.26458,-1.455209 z"
         id="path4" /><path
         style="fill:#0281dc"
         d="m 196.58093,94.435576 v -1.866665 h 5.95312 5.95313 v -5.55625 -5.55625 h 1.8675 1.86751 l -0.0816,5.247377 -0.0816,5.247377 -0.80074,1.294066 c -0.49509,0.800102 -1.29474,1.599722 -2.09489,2.094811 l -1.29415,0.800744 -5.64417,0.08073 -5.64417,0.08073 z"
         id="path3" /><path
         style="fill:#636363"
         d="m 163.34707,125.37725 c 0,-1.96454 0.0417,-2.76821 0.0926,-1.78594 0.0509,0.98226 0.0509,2.58961 0,3.57187 -0.0509,0.98227 -0.0926,0.1786 -0.0926,-1.78593 z m -82.785935,1.85208 c 0.263389,-0.29104 0.538421,-0.52917 0.611181,-0.52917 0.07276,0 -0.08321,0.23813 -0.346598,0.52917 -0.263389,0.29104 -0.53842,0.52917 -0.611181,0.52917 -0.07276,0 0.08321,-0.23813 0.346598,-0.52917 z m 8.578933,-0.72761 -0.641433,-0.7276 0.727604,0.64143 c 0.680056,0.59952 0.848939,0.81378 0.641433,0.81378 -0.04739,0 -0.374816,-0.32742 -0.727604,-0.72761 z m -101.613725,-0.79375 c -0.329108,-0.41964 -0.31975,-0.429 0.09989,-0.0999 0.254662,0.19972 0.463021,0.40808 0.463021,0.46302 0,0.21776 -0.217272,0.0776 -0.562915,-0.36313 z m 8.1696862,-0.24137 c 0.181901,-0.0734 0.4795573,-0.0734 0.6614583,0 0.1819011,0.0734 0.033073,0.13345 -0.3307292,0.13345 -0.363802,0 -0.5126302,-0.06 -0.3307291,-0.13345 z m 1.3394531,-0.006 c 0.1909961,-0.0764 0.4191993,-0.067 0.5071181,0.0209 0.087919,0.0879 -0.068351,0.15045 -0.3472656,0.13896 -0.3082245,-0.0127 -0.3709193,-0.0754 -0.1598525,-0.15985 z M 115.73846,115.19079 c -8e-5,-5.5298 0.035,-7.82959 0.078,-5.11065 0.043,2.71894 0.043,7.24331 1.4e-4,10.05417 -0.0429,2.81085 -0.0781,0.58627 -0.0781,-4.94352 z m -38.484617,9.55739 c 0,-0.0549 0.20836,-0.2633 0.463021,-0.46302 0.419644,-0.3291 0.429002,-0.31975 0.0999,0.0999 -0.345644,0.44073 -0.562916,0.58088 -0.562916,0.36312 z m 58.703147,-0.50129 c 0.11267,-0.11238 2.51798,-0.17166 5.34513,-0.13175 l 5.14027,0.0726 -5.34513,0.13175 c -2.93983,0.0725 -5.25295,0.0398 -5.14027,-0.0726 z m -82.515647,-0.82162 c 0,-0.0549 0.208359,-0.2633 0.463021,-0.46302 0.419644,-0.32911 0.429002,-0.31975 0.09989,0.0999 -0.345644,0.44073 -0.562916,0.58089 -0.562916,0.36313 z m 24.91261,-0.95844 c 0,-0.3638 0.06005,-0.51263 0.133452,-0.33073 0.0734,0.1819 0.0734,0.47956 0,0.66146 -0.0734,0.1819 -0.133452,0.0331 -0.133452,-0.33073 z m -59.573028,-1.85208 -2.248958,-0.166 2.167198,-0.0493 c 1.215786,-0.0277 2.238984,0.0669 2.330719,0.2153 0.08994,0.14552 0.126729,0.2424 0.08176,0.21529 -0.04497,-0.0271 -1.093792,-0.124 -2.33072,-0.21529 z m 120.463655,0.0677 c 1.13444,-0.0497 2.92038,-0.0494 3.96875,6.8e-4 1.04838,0.0501 0.1202,0.0908 -2.06261,0.0904 -2.18281,-3.7e-4 -3.04057,-0.0414 -1.90614,-0.0911 z m 25.85093,-0.69676 c 0,-0.0549 0.20836,-0.2633 0.46302,-0.46302 0.41965,-0.3291 0.429,-0.31975 0.0999,0.0999 -0.34565,0.44073 -0.56292,0.58088 -0.56292,0.36312 z m 33.95562,-3.33969 c 0,-1.0914 0.0467,-1.53789 0.10379,-0.99218 0.0571,0.5457 0.0571,1.43867 0,1.98437 -0.0571,0.54571 -0.10379,0.0992 -0.10379,-0.99219 z m -159.560641,0.52917 c 0,-0.65484 0.0516,-0.92273 0.114662,-0.59531 0.06306,0.32742 0.06306,0.8632 0,1.19062 -0.06306,0.32743 -0.114662,0.0595 -0.114662,-0.59531 z m 63.394191,0.59531 c -0.32911,-0.41964 -0.31975,-0.429 0.0999,-0.0999 0.25466,0.19972 0.46302,0.40808 0.46302,0.46302 0,0.21776 -0.21727,0.0776 -0.56291,-0.36313 z M 17.788738,116.7161 c 0.691224,-0.0545 1.822318,-0.0545 2.513542,0 0.691224,0.0545 0.125677,0.0991 -1.256771,0.0991 -1.382448,0 -1.947995,-0.0446 -1.256771,-0.0991 z m 145.567072,-5.89094 c 0,-3.1287 0.0383,-4.40862 0.085,-2.84427 0.0468,1.56435 0.0468,4.12419 0,5.68854 -0.0468,1.56435 -0.085,0.28443 -0.085,-2.84427 z m -94.866966,4.82865 c -0.329107,-0.41965 -0.319749,-0.429 0.0999,-0.0999 0.440729,0.34565 0.580887,0.56292 0.363126,0.56292 -0.05494,0 -0.263302,-0.20836 -0.463021,-0.46302 z m -39.322445,-2.84427 c 0.0029,-0.58209 0.05712,-0.78906 0.120406,-0.45994 0.06329,0.32912 0.06088,0.80537 -0.0053,1.05833 -0.06622,0.25297 -0.118004,-0.0163 -0.115067,-0.59839 z m 141.749951,0.82614 c 0,-0.0549 0.20835,-0.2633 0.46302,-0.46302 0.41964,-0.3291 0.429,-0.31975 0.0999,0.0999 -0.34564,0.44073 -0.56291,0.58088 -0.56291,0.36312 z m -81.979063,-2.28135 c 0,-0.3638 0.06005,-0.51263 0.133452,-0.33073 0.0734,0.1819 0.0734,0.47956 0,0.66146 -0.0734,0.1819 -0.133452,0.0331 -0.133452,-0.33073 z m -98.3344871,-0.26459 c 0.2633891,-0.29104 0.5384205,-0.52916 0.6111809,-0.52916 0.07276,0 -0.083208,0.23812 -0.3465976,0.52916 -0.2633891,0.29105 -0.5384205,0.52917 -0.6111809,0.52917 -0.07276,0 0.083208,-0.23812 0.3465976,-0.52917 z m 11.8811115,-0.0661 -0.5040279,-0.59531 0.5786402,0.48894 c 0.3259068,0.27538 0.71934,0.40198 0.9007762,0.28985 0.205536,-0.12703 0.2538029,-0.0885 0.1333491,0.10637 -0.2765629,0.44749 -0.543559,0.37769 -1.1087376,-0.28985 z m 51.0645846,0 -0.504028,-0.59531 0.595312,0.50402 c 0.559447,0.47367 0.715762,0.6866 0.504028,0.6866 -0.05021,0 -0.318097,-0.26789 -0.595312,-0.59531 z m -35.627466,-1.981 c 0.763984,-0.0534 2.01414,-0.0534 2.778125,0 0.763984,0.0535 0.138906,0.0972 -1.389063,0.0972 -1.527969,0 -2.153047,-0.0437 -1.389062,-0.0972 z m 156.96407,0.0952 c 0,-0.055 0.20835,-0.2633 0.46302,-0.46302 0.41964,-0.32911 0.429,-0.31975 0.0999,0.0999 -0.34564,0.44073 -0.56291,0.58089 -0.56291,0.36313 z m 16.74927,-0.0977 c 1.57226,-0.0469 4.07257,-0.0467 5.55625,3.9e-4 1.48368,0.0471 0.19729,0.0854 -2.85865,0.0852 -3.05594,-2.2e-4 -4.26986,-0.0387 -2.6976,-0.0856 z m -21.24719,-0.43148 c 0,-0.0549 0.20836,-0.2633 0.46302,-0.46302 0.41964,-0.32911 0.429,-0.31975 0.0999,0.0999 -0.34564,0.44073 -0.56291,0.58089 -0.56291,0.36313 z M 68.390301,107.12099 c 0.26339,-0.29104 0.538421,-0.52916 0.611181,-0.52916 0.07276,0 -0.08321,0.23812 -0.346597,0.52916 -0.263389,0.29105 -0.538421,0.52917 -0.611181,0.52917 -0.07276,0 0.08321,-0.23812 0.346597,-0.52917 z"
         id="path2" /><path
         style="fill:#2f2f2f"
         d="m -6.2849974,128.94539 c -2.3505017,-0.51067 -4.6190246,-1.81218 -6.2736146,-3.59933 -6.401506,-6.91439 -2.808181,-18.17698 6.4106341,-20.0929 2.0404929,-0.42407 5.38108092,-0.17782 7.2661199,0.53562 1.5271662,0.578 4.6981999,2.74782 4.6981999,3.21481 0,0.2495 -1.5971676,1.76363 -2.2843542,2.16558 -0.2282707,0.13352 -0.6794719,-0.0263 -1.2216154,-0.4328 -2.05172353,-1.53826 -3.10098495,-1.89168 -5.6221556,-1.89369 -2.2173321,-0.002 -2.4977965,0.0613 -4.0743295,0.91588 -2.9872452,1.61932 -4.4404482,4.40642 -4.2009662,8.05706 0.291227,4.43942 3.6065043,7.61005 8.0107124,7.6612 2.2955627,0.0267 4.18012723,-0.5896 5.6496541,-1.84746 l 1.093904,-0.93634 0.7292627,0.52249 c 0.4010944,0.28738 1.0191882,0.83316 1.3735416,1.21286 l 0.6442789,0.69035 -0.8761737,0.90398 c -1.2117876,1.25025 -3.6331807,2.48282 -5.76495626,2.93455 -2.17389744,0.46066 -3.39521114,0.45805 -5.55814214,-0.0119 z m 50.7305064,-0.0794 c -6.409101,-1.67524 -10.271695,-8.26877 -8.601163,-14.68237 1.447734,-5.55823 6.197576,-9.17927 12.040747,-9.17927 7.648882,0 13.327881,6.44282 12.253359,13.90144 -1.058603,7.34811 -8.242429,11.90764 -15.692943,9.9602 z m 7.097918,-4.12696 c 6.206648,-3.14514 6.148806,-12.1758 -0.09762,-15.24141 -1.072047,-0.52614 -1.722723,-0.64497 -3.560712,-0.6503 -1.933503,-0.006 -2.459817,0.097 -3.752216,0.7317 -2.880354,1.41446 -4.559383,4.21804 -4.56932,7.62968 -0.0052,1.78879 0.09886,2.22322 0.916684,3.8265 1.035642,2.03029 2.652523,3.46115 4.726942,4.18308 1.775111,0.61777 4.591805,0.40473 6.336244,-0.47925 z m 20.490108,4.34444 c -1.716818,-0.36391 -3.332906,-1.16549 -4.529738,-2.24675 -1.019037,-0.92064 -2.334069,-2.71302 -2.120238,-2.88987 0.05298,-0.0438 0.765857,-0.50268 1.584172,-1.0197 l 1.487847,-0.94003 0.793727,1.12607 c 2.130286,3.02226 7.773292,3.35487 8.954519,0.5278 0.859344,-2.0567 -0.285044,-3.5856 -3.657227,-4.88605 -5.835559,-2.25043 -7.62007,-4.00035 -7.605693,-7.45824 0.01111,-2.67193 1.779919,-4.99463 4.488733,-5.89436 1.844014,-0.61248 4.902705,-0.44595 6.776395,0.36895 1.201655,0.52261 3.825994,2.77188 3.529227,3.02482 -0.06368,0.0543 -0.757681,0.52537 -1.542213,1.04687 l -1.426422,0.94819 -0.756142,-0.75614 c -1.003153,-1.00316 -2.346235,-1.41381 -4.138027,-1.26522 -1.23766,0.10264 -1.588438,0.25445 -2.219308,0.96052 -0.815572,0.91278 -0.916431,1.4969 -0.43929,2.54411 0.385136,0.84528 1.35547,1.45129 4.005184,2.50139 5.711363,2.26346 7.329161,3.93966 7.324994,7.58942 -8.12e-4,0.71072 -0.128913,1.75117 -0.284669,2.31211 -0.380764,1.37128 -2.085151,3.16247 -3.649618,3.83549 -1.474821,0.63445 -4.880795,0.92999 -6.576213,0.57062 z m 21.889059,-0.10448 c -1.904279,-0.42225 -3.052466,-1.03431 -4.452992,-2.37373 -1.034867,-0.98971 -2.068448,-2.48401 -1.850372,-2.67517 0.04711,-0.0413 0.732701,-0.48694 1.523535,-0.99031 l 1.43788,-0.91523 0.813521,1.0666 c 1.191662,1.56237 3.024392,2.41911 5.167198,2.41548 2.707385,-0.005 3.975816,-1.029 3.975816,-3.21098 0,-1.32688 -1.21955,-2.44077 -3.836461,-3.5041 -3.600587,-1.46301 -4.810055,-2.12305 -5.914988,-3.22799 -1.339723,-1.33972 -1.709851,-2.45273 -1.579979,-4.75114 0.129438,-2.29073 1.011849,-3.65962 3.129342,-4.85457 1.358785,-0.7668 1.630522,-0.82121 4.101041,-0.82121 2.144635,0 2.877508,0.10712 3.868845,0.5655 1.35305,0.62563 3.4072,2.35432 3.4072,2.86736 0,0.18072 -0.6194,0.76218 -1.37645,1.29215 l -1.37645,0.96357 -0.80636,-0.77754 c -1.031201,-0.99434 -1.965141,-1.33917 -3.62704,-1.33917 -2.099712,0 -3.397036,1.06009 -3.397036,2.77583 0,1.11774 1.067814,1.95068 4.101041,3.19899 3.646215,1.50058 4.822865,2.18754 6.023795,3.51682 2.66954,2.95486 1.67364,8.25279 -1.89343,10.07257 -1.09429,0.55827 -3.617099,1.08453 -5.038854,1.05112 -0.518977,-0.0122 -1.598438,-0.16738 -2.398802,-0.34485 z M 12.430925,117.01614 v -11.8007 l 5.490105,0.10083 c 5.021367,0.0922 5.603053,0.15213 6.813021,0.70175 2.781105,1.26328 4.358497,3.65972 4.36304,6.62853 0.0014,0.929 -0.138957,2.16152 -0.311952,2.73892 -0.343455,1.14635 -2.310783,3.51563 -3.136925,3.77784 -0.284508,0.0903 -0.517288,0.28283 -0.517288,0.42784 0,0.14501 1.190625,2.21298 2.645833,4.59547 1.455208,2.38249 2.645833,4.40358 2.645833,4.49131 0,0.0877 -1.036432,0.1251 -2.303182,0.083 l -2.303182,-0.0764 -2.4949,-4.16719 -2.4949,-4.16719 h -2.081085 -2.081084 v 4.23334 4.23333 h -2.116667 -2.116667 z m 10.895024,-0.84666 c 2.328603,-1.43916 2.343635,-5.07948 0.02724,-6.59724 -0.545912,-0.35769 -1.409248,-0.48867 -3.700482,-0.56141 l -2.98845,-0.0949 v 4.03129 4.03129 l 2.86745,-0.11814 c 2.343411,-0.0966 3.036825,-0.22283 3.79424,-0.69093 z m 88.323731,0.87339 v -11.77396 h 1.98437 1.98438 v 9.92188 9.92187 h 4.7625 4.7625 v 1.85209 1.85208 h -6.74688 -6.74687 z m 18.23916,11.17865 c 0.36049,-0.91555 8.32823,-19.98919 9.01256,-21.57478 l 0.60436,-1.4003 1.74852,0.0774 1.74852,0.0774 4.817,11.50938 c 2.64934,6.33015 4.82223,11.60349 4.82864,11.71851 0.006,0.11503 -0.9561,0.17456 -2.13892,0.13229 l -2.15057,-0.0768 -0.96111,-2.24896 -0.9611,-2.24896 h -5.25617 -5.25618 l -0.94386,2.3151 -0.94385,2.31511 h -2.19112 c -2.16533,0 -2.18836,-0.007 -1.95672,-0.59531 z m 15.09834,-7.64713 c 0,-0.16771 -0.58636,-1.74529 -1.30302,-3.50573 -1.97585,-4.85357 -2.40245,-5.80122 -2.5466,-5.65707 -0.17593,0.17593 -3.82065,9.01496 -3.82214,9.2693 -6.4e-4,0.10914 1.72525,0.19844 3.8353,0.19844 2.71972,0 3.83646,-0.0888 3.83646,-0.30494 z m 14.2875,-3.53152 v -11.77396 h 1.98437 1.98438 v 5.55625 c 0,3.05594 0.10184,5.55625 0.22632,5.55625 0.12448,0 2.41643,-2.49485 5.09323,-5.54412 l 4.86691,-5.54412 2.46801,-0.0121 2.46801,-0.0121 -0.88051,1.02083 c -0.48428,0.56146 -2.51762,2.8719 -4.51853,5.13431 -2.00092,2.26241 -3.63802,4.1925 -3.63802,4.28909 0,0.0966 2.08105,3.08442 4.62457,6.63965 l 4.62458,6.46404 h -2.44218 -2.44217 l -3.43917,-4.79105 c -1.89155,-2.63507 -3.5284,-4.92703 -3.63744,-5.09323 -0.12776,-0.19472 -0.75875,0.30938 -1.77443,1.41761 l -1.57616,1.71979 -0.0115,3.37344 -0.0115,3.37344 h -1.98438 -1.98437 z m 25.4,0 v -11.77396 h 7.54062 7.54063 v 1.85208 1.85209 h -5.42396 -5.42396 v 2.91041 2.91042 h 5.02709 5.02708 v 1.85208 1.85209 h -5.02708 -5.02709 v 3.30729 3.30729 h 5.55625 5.55625 v 1.85209 1.85208 h -7.67291 -7.67292 z m 25.4,-12.58284 c 0,-5.700419 0.20755,-6.57951 1.96602,-8.327107 1.83148,-1.820159 2.51035,-1.976512 8.58186,-1.976512 h 5.06254 v 1.852083 1.852084 h -5.95313 -5.95312 v 5.556252 5.55625 h -1.85209 -1.85208 z m 20.95215,-8.451536 -0.0294,-1.719791 0.678,1.124479 c 0.73688,1.222136 1.0337,1.376453 1.27227,0.661458 0.085,-0.254661 0.388,-0.760677 0.67341,-1.124479 l 0.51891,-0.661458 -0.0403,1.719791 c -0.0299,1.274805 -0.0666,1.428839 -0.14163,0.595313 -0.0557,-0.618464 -0.18373,-1.123726 -0.2845,-1.122806 -0.10077,9.2e-4 -0.39993,0.382298 -0.66479,0.847506 l -0.48157,0.845834 -0.57677,-0.913653 -0.57676,-0.913652 -0.1587,1.190625 c -0.1464,1.098336 -0.16098,1.057319 -0.18811,-0.529167 z m -2.49746,-1.509641 c 0.32742,-0.06306 0.8632,-0.06306 1.19062,0 0.32742,0.06306 0.0595,0.114662 -0.59531,0.114662 -0.65484,0 -0.92273,-0.0516 -0.59531,-0.114662 z"
         id="path1" /></g></g></svg>
